/* XPM */
static char * addtrack_addmiditrack_xpm[] = {
"16 16 3 1",
" 	c None",
".	c #A3ABA3",
"+	c #372D3D",
"................",
".++++++++++++++.",
".++++++++++++++.",
".++++++++++++++.",
".++++++++++++++.",
".++++++++++++++.",
".++++++++++++++.",
".++++++++++++++.",
".++++++++++++++.",
".++++++++++++++.",
".++++++++++++++.",
".++++++++++++++.",
".++++++++++++++.",
".++++++++++++++.",
".++++++++++++++.",
"................"};
