/* XPM */
static char * addtrack_wavetrack_xpm[] = {
"16 16 3 1",
" 	c None",
".	c #A3ABA3",
"+	c #283E44",
"................",
".++++++++++++++.",
".++++++++++++++.",
".++++++++++++++.",
".++++++++++++++.",
".++++++++++++++.",
".++++++++++++++.",
".++++++++++++++.",
".++++++++++++++.",
".++++++++++++++.",
".++++++++++++++.",
".++++++++++++++.",
".++++++++++++++.",
".++++++++++++++.",
".++++++++++++++.",
"................"};
