/* XPM */
static const char * audio_bounce_to_track_xpm[] = {
"16 16 38 1",
" 	c None",
".	c #FFFFFF",
"+	c #72AF39",
"@	c #5AA117",
"#	c #F1F7EB",
"$	c #6FAD34",
"%	c #5CA219",
"&	c #F0F7EA",
"*	c #388D00",
"=	c #378D00",
"-	c #4A9700",
";	c #4C9903",
">	c #368D00",
",	c #2E8800",
"'	c #9BB8E4",
")	c #95B1DF",
"!	c #9AB6E1",
"~	c #A0B9E2",
"{	c #A5BDE4",
"]	c #ABC1E6",
"^	c #B0C6E8",
"/	c #B5CAE9",
"(	c #BBCEEB",
"_	c #C1D1ED",
":	c #C6D5EF",
"<	c #CDDAF0",
"[	c #9FBBE7",
"}	c #99B6E2",
"|	c #9EBAE4",
"1	c #A3BCE5",
"2	c #A8C0E6",
"3	c #ADC4E8",
"4	c #B1C8EA",
"5	c #B6CBEB",
"6	c #BBCFED",
"7	c #C0D2EE",
"8	c #C5D6F0",
"9	c #CBDAF1",
"                ",
"         ....   ",
"         .+@.   ",
"       .#.$%.&. ",
"       .*=-;>,. ",
"       .#.$%.&. ",
"         .+@.   ",
"         ....   ",
"                ",
" .............. ",
" .')!~{]^/(_:<. ",
" .[}|123456789. ",
" .............. ",
"                ",
"                ",
"                "};
