/* XPM */
static const char * audio_restartaudio_xpm[] = {
"16 16 126 2",
"  	c None",
". 	c #FBDE91",
"+ 	c #FBDD8F",
"@ 	c #FDBC00",
"# 	c #FCB900",
"$ 	c #FBB600",
"% 	c #F9B300",
"& 	c #FBDD90",
"* 	c #F1D68F",
"= 	c #EBD18D",
"- 	c #FAD363",
"; 	c #BA9E4B",
"> 	c #FAB901",
", 	c #FEC841",
"' 	c #FCB828",
") 	c #F8AF00",
"! 	c #F9DC90",
"~ 	c #CDBA87",
"{ 	c #8E8D8B",
"] 	c #B7AE98",
"^ 	c #F4D480",
"/ 	c #F8C022",
"( 	c #FECB43",
"_ 	c #FFC24D",
": 	c #FFB03F",
"< 	c #FAA515",
"[ 	c #E7CD89",
"} 	c #F9DC8F",
"| 	c #797467",
"1 	c #6C6C6C",
"2 	c #B29C5F",
"3 	c #F6B509",
"4 	c #FCBD28",
"5 	c #FFB644",
"6 	c #FFA336",
"7 	c #F99E10",
"8 	c #DB9507",
"9 	c #787878",
"0 	c #827E72",
"a 	c #EBD18B",
"b 	c #838078",
"c 	c #323232",
"d 	c #858585",
"e 	c #837E71",
"f 	c #F4AD03",
"g 	c #F4A901",
"h 	c #F8A10E",
"i 	c #C38F26",
"j 	c #2E2E2E",
"k 	c #7D7D7D",
"l 	c #929292",
"m 	c #505050",
"n 	c #777777",
"o 	c #5D5D5D",
"p 	c #232323",
"q 	c #6B6B6B",
"r 	c #9B8553",
"s 	c #987E45",
"t 	c #BF8D22",
"u 	c #876E3C",
"v 	c #AF7F2A",
"w 	c #534F4A",
"x 	c #1F1F1F",
"y 	c #656565",
"z 	c #282828",
"A 	c #676767",
"B 	c #797979",
"C 	c #6D6D6D",
"D 	c #616161",
"E 	c #7A6844",
"F 	c #51504E",
"G 	c #4D4D4D",
"H 	c #545454",
"I 	c #191919",
"J 	c #6F6F6F",
"K 	c #909090",
"L 	c #7B7B7B",
"M 	c #767676",
"N 	c #6E6E6E",
"O 	c #626262",
"P 	c #595959",
"Q 	c #4F4F4F",
"R 	c #484848",
"S 	c #444444",
"T 	c #141414",
"U 	c #646464",
"V 	c #808080",
"W 	c #717171",
"X 	c #606060",
"Y 	c #575757",
"Z 	c #474747",
"` 	c #414141",
" .	c #3D3D3D",
"..	c #4B4B4B",
"+.	c #101010",
"@.	c #5B5B5B",
"#.	c #707070",
"$.	c #696969",
"%.	c #5A5A5A",
"&.	c #4C4C4C",
"*.	c #454545",
"=.	c #3F3F3F",
"-.	c #393939",
";.	c #3B3B3B",
">.	c #0C0C0C",
",.	c #565656",
"'.	c #515151",
").	c #424242",
"!.	c #373737",
"~.	c #343434",
"{.	c #3C3C3C",
"].	c #2A2A2A",
"^.	c #090909",
"/.	c #434343",
"(.	c #3A3A3A",
"_.	c #353535",
":.	c #313131",
"<.	c #2C2C2C",
"[.	c #1E1E1E",
"}.	c #262626",
"|.	c #070707",
"1.	c #131313",
"2.	c #0F0F0F",
"3.	c #0A0A0A",
"4.	c #080808",
"5.	c #060606",
"                                ",
"      . . +       @ # $ %       ",
"    . . & * = - ; > , ' )       ",
"      ! ~ { ] ^ / ( _ : <       ",
"      [ } | 1 2 3 4 5 6 7 8     ",
"    9 0 a b c d e f g h i j     ",
"  k l m n o p q r s t u v w x   ",
"  n l y c z A B C D E F G H I   ",
"  J K k k L M N O P Q R S H T   ",
"  U V W J 1 A X Y Q Z `  ...+.  ",
"  @.#.$.D o %.H &.*.=.-.;. .>.  ",
"  Q D O ,.'.G R ). .!.~.{.].^.  ",
"    ;.O H R /.=.(._.:.!.{.^.    ",
"      <.,.&.` -._._.-.(.^.      ",
"        [.(.*.Z ).!.}.|.        ",
"          1.2.>.3.4.5.          "};
