/* XPM */
static const char * automation_clear_data_xpm[] = {
"16 16 113 2",
"  	c None",
". 	c #DD6A68",
"+ 	c #DC6463",
"@ 	c #DA6461",
"# 	c #D9635D",
"$ 	c #DF6A6A",
"% 	c #ED938E",
"& 	c #F8C3BE",
"* 	c #F9D3CC",
"= 	c #F9CBC4",
"- 	c #F4B4AA",
"; 	c #E27066",
"> 	c #D15E53",
", 	c #E0696A",
"' 	c #F2ADAA",
") 	c #FDDCD8",
"! 	c #FABAAE",
"~ 	c #FAA391",
"{ 	c #FA9D8B",
"] 	c #FBA99C",
"^ 	c #FCC7BA",
"/ 	c #E97B70",
"( 	c #CC5B4C",
"_ 	c #F3A7A3",
": 	c #FDDBD4",
"< 	c #FA9A87",
"[ 	c #F0917F",
"} 	c #F18E7A",
"| 	c #F8947F",
"1 	c #F9927E",
"2 	c #F88C76",
"3 	c #F8B6A8",
"4 	c #E36E63",
"5 	c #C75745",
"6 	c #EA837D",
"7 	c #FCD4CD",
"8 	c #F7937E",
"9 	c #EE8A75",
"0 	c #F6846C",
"a 	c #F37963",
"b 	c #F8AFA4",
"c 	c #D04F3E",
"d 	c #DE6A67",
"e 	c #F5AFA5",
"f 	c #FAAB9D",
"g 	c #F08C77",
"h 	c #EC5F54",
"i 	c #F27763",
"j 	c #F48E81",
"k 	c #E97F78",
"l 	c #C0533A",
"m 	c #DB6964",
"n 	c #F9B9AF",
"o 	c #FA937F",
"p 	c #F08570",
"q 	c #FFFFFF",
"r 	c #E9594D",
"s 	c #EE6A5E",
"t 	c #F19D96",
"u 	c #BE4F36",
"v 	c #DA635F",
"w 	c #F7ABA1",
"x 	c #F88670",
"y 	c #F68268",
"z 	c #EA665C",
"A 	c #F19C96",
"B 	c #BC5032",
"C 	c #D7625C",
"D 	c #EE8C81",
"E 	c #F7917E",
"F 	c #F3735D",
"G 	c #E95B4F",
"H 	c #F0837B",
"I 	c #E27B75",
"J 	c #BA4B2E",
"K 	c #DB564B",
"L 	c #F6ABA2",
"M 	c #F06456",
"N 	c #EE6652",
"O 	c #E6584C",
"P 	c #E65A52",
"Q 	c #F5A39F",
"R 	c #C45034",
"S 	c #CF6153",
"T 	c #E36B61",
"U 	c #F5ACA1",
"V 	c #EA5C50",
"W 	c #E6594E",
"X 	c #E6564C",
"Y 	c #E65650",
"Z 	c #F4A29E",
"` 	c #D66054",
" .	c #B84A2A",
"..	c #CB5949",
"+.	c #E0655C",
"@.	c #F5A6A1",
"#.	c #EF867E",
"$.	c #E9635B",
"%.	c #E75D59",
"&.	c #EE847D",
"*.	c #F4A09E",
"=.	c #D75D51",
"-.	c #B74A2B",
";.	c #C65542",
">.	c #CC523C",
",.	c #E87A75",
"'.	c #EE928F",
").	c #E47871",
"!.	c #C14D33",
"~.	c #BE5338",
"{.	c #BD5135",
"].	c #BC4B30",
"^.	c #B84E2E",
"                                ",
"            . + @ #             ",
"        $ % & * = - ; >         ",
"      , ' ) ! ~ { ] ^ / (       ",
"    , _ : < [ } | 1 2 3 4 5     ",
"    6 7 { 8 9 0 0 0 0 a b c     ",
"  d e f g h h h h h h i j k l   ",
"  m n o p q q q q q q r s t u   ",
"  v w x y q q q q q q r z A B   ",
"  C D E F r r r r r r G H I J   ",
"    K L M N r r r r O P Q R     ",
"    S T U h V r W X Y Z `  .    ",
"      ..+.@.#.$.%.&.*.=.-.      ",
"        ;.>.,.'.'.).!.-.        ",
"            ~.{.].^.            ",
"                                "};
