/* XPM */
static const char * automation_take_snapshot_xpm[] = {
"16 16 155 2",
"  	c None",
". 	c #989898",
"+ 	c #909090",
"@ 	c #8B8B8B",
"# 	c #888888",
"$ 	c #818181",
"% 	c #787878",
"& 	c #717171",
"* 	c #6F6F6F",
"= 	c #767676",
"- 	c #C9C9C9",
"; 	c #C8C8C8",
"> 	c #C6C6C6",
", 	c #C4C4C4",
"' 	c #9B937F",
") 	c #F9E0A4",
"! 	c #F3BE41",
"~ 	c #857C69",
"{ 	c #939392",
"] 	c #5C5C5C",
"^ 	c #6D6D6D",
"/ 	c #AEAEAE",
"( 	c #D2D2D2",
"_ 	c #B0B0B0",
": 	c #A3A3A3",
"< 	c #9F9F9F",
"[ 	c #B7B7B7",
"} 	c #9E9E9E",
"| 	c #C0C0C0",
"1 	c #AAAAAA",
"2 	c #727272",
"3 	c #696969",
"4 	c #6A6A6A",
"5 	c #676767",
"6 	c #535353",
"7 	c #6C6C6C",
"8 	c #BCBCBC",
"9 	c #A6A6A6",
"0 	c #DDDDDD",
"a 	c #D8D8D8",
"b 	c #D5D5D5",
"c 	c #CCCCCC",
"d 	c #848484",
"e 	c #979797",
"f 	c #B4B4B4",
"g 	c #9D9D9D",
"h 	c #8D8D8D",
"i 	c #404040",
"j 	c #BABABA",
"k 	c #B7C7DA",
"l 	c #699AD4",
"m 	c #5E96D5",
"n 	c #5C96D5",
"o 	c #6397D1",
"p 	c #A2B3C5",
"q 	c #969696",
"r 	c #686868",
"s 	c #3E3E3E",
"t 	c #9B9B9B",
"u 	c #D7D7D7",
"v 	c #6A9AD4",
"w 	c #6299D6",
"x 	c #669BD7",
"y 	c #649CD7",
"z 	c #6099D6",
"A 	c #6397D0",
"B 	c #ADADAD",
"C 	c #5E5E5E",
"D 	c #A9A9A9",
"E 	c #929292",
"F 	c #5F5F5F",
"G 	c #7C7C7C",
"H 	c #3B3B3B",
"I 	c #656565",
"J 	c #949494",
"K 	c #D0D0D0",
"L 	c #5E97D6",
"M 	c #669DD9",
"N 	c #6A9FD9",
"O 	c #699ED9",
"P 	c #659BD8",
"Q 	c #5F98D6",
"R 	c #A5A5A5",
"S 	c #565656",
"T 	c #575757",
"U 	c #757575",
"V 	c #393939",
"W 	c #626262",
"X 	c #8E8E8E",
"Y 	c #C7C7C7",
"Z 	c #659CD7",
"` 	c #6AA0D9",
" .	c #679DD8",
"..	c #629AD7",
"+.	c #505050",
"@.	c #858585",
"#.	c #4E4E4E",
"$.	c #6E6E6E",
"%.	c #373737",
"&.	c #606060",
"*.	c #878787",
"=.	c #B9B9B9",
"-.	c #6496D0",
";.	c #619AD8",
">.	c #679CD8",
",.	c #669CD8",
"'.	c #689ACE",
").	c #8C8C8C",
"!.	c #5C6E51",
"~.	c #70945B",
"{.	c #668E4F",
"].	c #588140",
"^.	c #59704C",
"/.	c #353535",
"(.	c #7E7E7E",
"_.	c #95A5B8",
":.	c #6496CE",
"<.	c #609AD6",
"[.	c #639BD7",
"}.	c #6899CE",
"|.	c #8393A3",
"1.	c #627556",
"2.	c #81AB61",
"3.	c #B4D495",
"4.	c #D0E6BA",
"5.	c #8FBB6A",
"6.	c #578F2D",
"7.	c #355225",
"8.	c #7A7A7A",
"9.	c #939393",
"0.	c #868686",
"a.	c #585858",
"b.	c #5C8544",
"c.	c #B1D390",
"d.	c #B1D692",
"e.	c #FFFFFF",
"f.	c #8CBC65",
"g.	c #8FBC67",
"h.	c #37691A",
"i.	c #464646",
"j.	c #444444",
"k.	c #414141",
"l.	c #3F3F3F",
"m.	c #3C3C3C",
"n.	c #343434",
"o.	c #4C7B31",
"p.	c #B6D49C",
"q.	c #B2D295",
"r.	c #376B19",
"s.	c #396C1B",
"t.	c #8BBA62",
"u.	c #87BA60",
"v.	c #87B960",
"w.	c #538C28",
"x.	c #8DBA64",
"                                ",
"  . + @ # $ % & * = #           ",
"  . - ; > , ' ) ! ~ {   ] ] ]   ",
"^ / ( _ : < [ . } | 1 2 3 4 5 6 ",
"7 8 9 8 0 a b c : d e f g h # i ",
"3 9 j k l m n o p q & / . r $ s ",
"5 t u v w x y z A B C D E F G H ",
"I J K L M N O P Q R S : @ T U V ",
"W X Y L Z O `  ...t +.} @.#.$.%.",
"&.*.=.-.;.>. .,.'.).!.~.{.].^./.",
"C (.@ _.:.<.[.}.|.1.2.3.4.5.6.7.",
"T * 5 8.t . 9.0.a.b.c.d.e.f.g.h.",
"  %./.i.j.k.l.m.n.o.p.e.e.e.q.r.",
"                  s.t.u.e.v.g.r.",
"                  r.w.x.q.x.w.r.",
"                    r.r.r.r.r.  "};
