/* XPM */
static const char * automation_mixer_xpm[] = {
"16 16 61 1",
" 	c None",
".	c #F44548",
"+	c #F44347",
"@	c #FC9997",
"#	c #F2393E",
"$	c #F33D42",
"%	c #F2383D",
"&	c #F23C41",
"*	c #F1373C",
"=	c #447DCE",
"-	c #F1363C",
";	c #FB6B69",
">	c #FB6765",
",	c #FA6362",
"'	c #437CCD",
")	c #9CB1D0",
"!	c #709FBD",
"~	c #5A6BAD",
"{	c #E83841",
"]	c #8D527D",
"^	c #376BB6",
"/	c #3568B2",
"(	c #FB6665",
"_	c #FEB5B2",
":	c #F95D5D",
"<	c #4179C9",
"[	c #3F76C5",
"}	c #E73741",
"|	c #AE4565",
"1	c #366BB5",
"2	c #3468B1",
"3	c #8CA1C0",
"4	c #3062AA",
"5	c #F96160",
"6	c #F95C5C",
"7	c #F85758",
"8	c #F75254",
"9	c #F64D4F",
"0	c #A85E82",
"a	c #4277C6",
"b	c #F13339",
"c	c #F02E35",
"d	c #3062A9",
"e	c #8F6493",
"f	c #CC4D62",
"g	c #F03D43",
"h	c #F03238",
"i	c #EF2D34",
"j	c #417ACA",
"k	c #3F77C6",
"l	c #F03137",
"m	c #FE9694",
"n	c #EE272F",
"o	c #437CCC",
"p	c #EF2B32",
"q	c #EE262E",
"r	c #ED222B",
"s	c #427BCC",
"t	c #93ACD1",
"u	c #3E76C4",
"v	c #3E75C3",
"                ",
"              . ",
"             +@#",
"             $% ",
"            &*  ",
"        =   -   ",
";>,    ')!~{]^/ ",
"(_:    <[ }|1234",
"567890a  bc   d ",
"    efg*hi      ",
"   jk  lmn      ",
" o<    pqr      ",
"stu             ",
" v              ",
"                ",
"                "};
