/* XPM */
static const char * darkredled_xpm[] = {
"10 10 6 1",
" 	c None",
".	c #001A1A",
"+	c #002A2A",
"@	c #017F7E",
"#	c #1C4444",
"$	c #003231",
"          ",
"   ....   ",
"  .++++.  ",
" .++@+++. ",
" .+#$+++. ",
" .++++++. ",
" .++++++. ",
"  .++++.  ",
"   ....   ",
"          "};
