/* XPM */
static const char * dot_xpm[] = {
"16 13 80 1",
" 	c None",
".	c #4E524E",
"+	c #4E564D",
"@	c #525851",
"#	c #555A53",
"$	c #50574F",
"%	c #48863E",
"&	c #48AD3A",
"*	c #4AAD3D",
"=	c #4A9340",
"-	c #626562",
";	c #646862",
">	c #505550",
",	c #4F6B4B",
"'	c #45CC32",
")	c #6EE35D",
"!	c #7CE66D",
"~	c #6BE35A",
"{	c #44CD31",
"]	c #647E60",
"^	c #6F736E",
"/	c #595C59",
"(	c #39CA25",
"_	c #62E14F",
":	c #6AE358",
"<	c #6BE359",
"[	c #69E458",
"}	c #5EE14B",
"|	c #38CA25",
"1	c #767C75",
"2	c #5C625B",
"3	c #47923E",
"4	c #3DDA26",
"5	c #4FDE3B",
"6	c #50DF3D",
"7	c #4EDE3A",
"8	c #38DB21",
"9	c #5DA155",
"0	c #808480",
"a	c #636A63",
"b	c #3EAA2F",
"c	c #30D919",
"d	c #36DA1F",
"e	c #37D91F",
"f	c #2ED917",
"g	c #48B839",
"h	c #888D88",
"i	c #6B6F6B",
"j	c #3FAF2F",
"k	c #20D607",
"l	c #21D608",
"m	c #4DB93E",
"n	c #8F958F",
"o	c #727672",
"p	c #589B4F",
"q	c #1FD606",
"r	c #66B15C",
"s	c #979C97",
"t	c #7D847D",
"u	c #2EC919",
"v	c #31CE1C",
"w	c #9EA09D",
"x	c #878B87",
"y	c #7C9778",
"z	c #2FCC1A",
"A	c #33CE1E",
"B	c #91AB8D",
"C	c #A4A9A4",
"D	c #929790",
"E	c #959895",
"F	c #68B35E",
"G	c #53BF44",
"H	c #51C242",
"I	c #74B76B",
"J	c #A4ABA4",
"K	c #A9ADA8",
"L	c #9FA49F",
"M	c #A1A7A0",
"N	c #A7ABA7",
"O	c #AAADA9",
"      .+@#      ",
"    .$%&*=-;    ",
"   >,')!!~{]^   ",
"   /(_:<<[}|1   ",
"  234566667890  ",
"  abcdeeeedfgh  ",
"  ijkllllllkmn  ",
"  opqqqqqqqqrs  ",
"   tuqqqqqqvw   ",
"   xyzqqqqABC   ",
"    DEFGHIJK    ",
"      LMNO      ",
"                "};
