/* XPM */
static char * dot_xpm[] = {
"16 13 95 2",
"  	c None",
". 	c #000000",
"+ 	c #010101",
"@ 	c #1F1F1F",
"# 	c #383B38",
"$ 	c #454C44",
"% 	c #494F48",
"& 	c #40443E",
"* 	c #212121",
"= 	c #060606",
"- 	c #3B3E3B",
"; 	c #4E554D",
"> 	c #47843D",
", 	c #48AD3A",
"' 	c #4AAD3D",
") 	c #4A9340",
"! 	c #616461",
"~ 	c #50534E",
"{ 	c #080808",
"] 	c #404440",
"^ 	c #4D6849",
"/ 	c #45CC32",
"( 	c #6EE35D",
"_ 	c #7CE66D",
": 	c #6BE35A",
"< 	c #44CD31",
"[ 	c #627B5E",
"} 	c #545753",
"| 	c #202020",
"1 	c #585B58",
"2 	c #39CA25",
"3 	c #62E14F",
"4 	c #6AE358",
"5 	c #6BE359",
"6 	c #69E458",
"7 	c #5EE14B",
"8 	c #38CA25",
"9 	c #747A73",
"0 	c #313131",
"a 	c #454A44",
"b 	c #47923E",
"c 	c #3DDA26",
"d 	c #4FDE3B",
"e 	c #50DF3D",
"f 	c #4EDE3A",
"g 	c #38DB21",
"h 	c #5C9F54",
"i 	c #5B5E5B",
"j 	c #585F58",
"k 	c #3EAA2F",
"l 	c #30D919",
"m 	c #36DA1F",
"n 	c #37D91F",
"o 	c #2ED917",
"p 	c #48B839",
"q 	c #818681",
"r 	c #656965",
"s 	c #3FAF2F",
"t 	c #20D607",
"u 	c #21D608",
"v 	c #4DB93E",
"w 	c #808580",
"x 	c #515451",
"y 	c #57994E",
"z 	c #1FD606",
"A 	c #66B15C",
"B 	c #727672",
"C 	c #7B817B",
"D 	c #2EC919",
"E 	c #31CE1C",
"F 	c #9C9E9B",
"G 	c #3D3D3D",
"H 	c #020202",
"I 	c #666966",
"J 	c #799475",
"K 	c #2FCC1A",
"L 	c #33CE1E",
"M 	c #8EA78A",
"N 	c #838783",
"O 	c #0B0B0B",
"P 	c #757973",
"Q 	c #939693",
"R 	c #68B35E",
"S 	c #53BF44",
"T 	c #51C242",
"U 	c #73B56A",
"V 	c #A1A8A1",
"W 	c #7F827F",
"X 	c #0F0F0F",
"Y 	c #3A3A3A",
"Z 	c #787C78",
"` 	c #90958F",
" .	c #9FA29F",
"..	c #7A7C79",
"+.	c #464646",
". . . . + @ # $ % & * . . . . . ",
". . . = - ; > , ' ) ! ~ { . . . ",
". . . ] ^ / ( _ _ : < [ } + . . ",
". . | 1 2 3 4 5 5 6 7 8 9 0 . . ",
". . a b c d e e e e f g h i . . ",
". . j k l m n n n n m o p q . . ",
". . r s t u u u u u u t v w . . ",
". . x y z z z z z z z z A B . . ",
". . 0 C D z z z z z z E F G . . ",
". . H I J K z z z z L M N + . . ",
". . . O P Q R S T U V W X . . . ",
". . . . + Y Z `  ...+.H . . . . ",
". . . . . . . . . . . . . . . . "};
