/* XPM */
static const char * dot1_xpm[] = {
"16 13 79 1",
" 	c None",
".	c #4E4E4E",
"+	c #4D4E4D",
"@	c #515251",
"#	c #535553",
"$	c #4F504F",
"%	c #3D4B3C",
"&	c #364C34",
"*	c #3A4F38",
"=	c #3F4F3D",
"-	c #626262",
";	c #626462",
">	c #505050",
",	c #4A504A",
"'	c #2E4A2A",
")	c #556E52",
"!	c #647B61",
"~	c #637A60",
"{	c #526C4F",
"]	c #2D4A2A",
"^	c #60655F",
"/	c #6E6F6E",
"(	c #595A59",
"_	c #223F1E",
":	c #486345",
"<	c #506A4D",
"[	c #446142",
"}	c #21401F",
"|	c #757675",
"1	c #5B5C5B",
"2	c #3C4B3B",
"3	c #22431E",
"4	c #345432",
"5	c #365433",
"6	c #345331",
"7	c #1C3F19",
"8	c #536252",
"9	c #808280",
"0	c #636462",
"a	c #2E452C",
"b	c #153912",
"c	c #1B3E18",
"d	c #1C3E18",
"e	c #12370F",
"f	c #374F35",
"g	c #888988",
"h	c #6B6C6B",
"i	c #2D452B",
"j	c #042B01",
"k	c #052C02",
"l	c #3D543B",
"m	c #8F908D",
"n	c #727472",
"o	c #4E5C4D",
"p	c #032A00",
"q	c #5B6B59",
"r	c #979897",
"s	c #7D7E7C",
"t	c #173814",
"u	c #193B17",
"v	c #9D9E9D",
"w	c #878787",
"x	c #787D77",
"y	c #173915",
"z	c #1B3C19",
"A	c #8D938D",
"B	c #A4A5A4",
"C	c #909290",
"D	c #949594",
"E	c #5C6C5B",
"F	c #425940",
"G	c #40583E",
"H	c #6A7869",
"I	c #A3A5A3",
"J	c #A8A9A8",
"K	c #9FA09F",
"L	c #A0A1A0",
"M	c #A7A7A7",
"N	c #A9AAA9",
"      .+@#      ",
"    .$%&*=-;    ",
"   >,')!~{]^/   ",
"   (_:<{{<[}|   ",
"  123455556789  ",
"  0abcddddcefg  ",
"  hijkkkkkkjlm  ",
"  noppppppppqr  ",
"   stppppppuv   ",
"   wxyppppzAB   ",
"    CDEFGHIJ    ",
"      KLMN      ",
"                "};
