/* XPM */
static const char * edit_pianoroll_xpm[] = {
"16 16 19 1",
" 	c None",
".	c #818191",
"+	c #808090",
"@	c #7F7F8F",
"#	c #7D7C8B",
"$	c #C0D9FB",
"%	c #BED7F8",
"&	c #C1DAFD",
"*	c #7F7E8E",
"=	c #C2DDFF",
"-	c #C1DBFD",
";	c #C3DDFF",
">	c #C4DFFF",
",	c #7F7E8D",
"'	c #7E7D8C",
")	c #C8E5FF",
"!	c #C3DEFF",
"~	c #C7E3FF",
"{	c #C4DEFF",
" .+++++++++++++ ",
"++++@#######++++",
"+++++$$$$$$$++++",
"+++++%$$$$$&++++",
"++++++++++++++++",
"++$$$$$$$$$$$$+*",
"++=-----------+*",
"++++++++++++++++",
"++++++++;&&&&&+*",
"++++++++>=====+,",
"++++++++++++++++",
"+++++')!!~++++++",
"+++++'){{~++++++",
"++++++....++++++",
"++++++++++++++++",
" .+++++++++++++ "};
