/* XPM */
static const char * edit_wave_xpm[] = {
"16 16 101 2",
"  	c None",
". 	c #FFFCF8",
"+ 	c #FFFBF4",
"@ 	c #FEF0D3",
"# 	c #F8C976",
"$ 	c #FDEBD1",
"% 	c #FADB97",
"& 	c #F3C434",
"* 	c #EFA700",
"= 	c #FCECC9",
"- 	c #FFFFFD",
"; 	c #F7CE67",
"> 	c #F1B817",
", 	c #F1B610",
"' 	c #F2A809",
") 	c #FDECCC",
"! 	c #FEF8F0",
"~ 	c #FBD89C",
"{ 	c #F8C96A",
"] 	c #F7CB6E",
"^ 	c #F8CC6F",
"/ 	c #F5BE3A",
"( 	c #F2B517",
"_ 	c #F3B21F",
": 	c #F3B023",
"< 	c #F3A215",
"[ 	c #FDEBCE",
"} 	c #FFFDFB",
"| 	c #EFA600",
"1 	c #EFB901",
"2 	c #F0B508",
"3 	c #F1B410",
"4 	c #F1B116",
"5 	c #F3B01F",
"6 	c #F4AE26",
"7 	c #F5AC29",
"8 	c #F6A92B",
"9 	c #F59C19",
"0 	c #FDE9CE",
"a 	c #F0A802",
"b 	c #F2B41B",
"c 	c #F3B121",
"d 	c #F5AF25",
"e 	c #F4AC28",
"f 	c #F5AA2B",
"g 	c #F6A72C",
"h 	c #F5A42C",
"i 	c #F7A12B",
"j 	c #F69517",
"k 	c #FDE8CF",
"l 	c #FFFFFE",
"m 	c #F3A311",
"n 	c #F5AD28",
"o 	c #F6A82C",
"p 	c #F6A42B",
"q 	c #F6A12B",
"r 	c #F69E29",
"s 	c #F69C26",
"t 	c #F79823",
"u 	c #F68E0E",
"v 	c #FEE8CE",
"w 	c #FFFEFC",
"x 	c #F49D1A",
"y 	c #F5A52C",
"z 	c #F6A32B",
"A 	c #F7A02A",
"B 	c #F79C27",
"C 	c #F69924",
"D 	c #F6961F",
"E 	c #F69119",
"F 	c #F68E13",
"G 	c #F58400",
"H 	c #FDE6CB",
"I 	c #FFFDF9",
"J 	c #F7A333",
"K 	c #F79F32",
"L 	c #F89D2E",
"M 	c #F69A2A",
"N 	c #F69219",
"O 	c #F68B0B",
"P 	c #F68906",
"Q 	c #F58600",
"R 	c #F48100",
"S 	c #FDE6CA",
"T 	c #FEF9F2",
"U 	c #FCDBB1",
"V 	c #FCD4A4",
"W 	c #FCD4A5",
"X 	c #FCD5A7",
"Y 	c #FBC98D",
"Z 	c #F58300",
"` 	c #FEECD8",
" .	c #F9A744",
"..	c #F47E00",
"+.	c #FFF8F1",
"@.	c #FBC98E",
"#.	c #F58000",
"$.	c #FFFFFF",
"%.	c #FDDAAF",
"&.	c #FFEBD5",
"*.	c #FFFBF7",
"                        . +     ",
"                      @ # $     ",
"                    % & * =     ",
"                - ; > , ' )     ",
"    ! ~ { ] ] ^ / ( _ : < [     ",
"    } | 1 2 3 4 5 6 7 8 9 0     ",
"    - a b c d e f g h i j k     ",
"    l m n f o p q r s t u v     ",
"    w x y z A B C D E F G H     ",
"    I A J K L M N O P Q R S     ",
"    T U V W W X Y N Z Q R S     ",
"                  `  ...R S     ",
"                    +.@.#.S     ",
"                      $.%.&.    ",
"                        *.!     ",
"                                "};
