/* XPM */
static const char * edit_drumms_xpm[] = {
"16 16 27 1",
" 	c None",
".	c #818191",
"+	c #808090",
"@	c #7F7F8F",
"#	c #7E7D8C",
"$	c #7F7E8E",
"%	c #C3DEFF",
"&	c #818192",
"*	c #7F7F8E",
"=	c #C0DAFC",
"-	c #C1DAFD",
";	c #BED6F7",
">	c #807F8F",
",	c #7D7C8B",
"'	c #7F7E8D",
")	c #808191",
"!	c #828394",
"~	c #C1DBFE",
"{	c #C2DCFF",
"]	c #818292",
"^	c #7D7B8A",
"/	c #C1DBFD",
"(	c #7E7D8D",
"_	c #828293",
":	c #808091",
"<	c #C3DDFF",
"[	c #C2DCFE",
" .+++++++++++++ ",
"+++++++++++@#+++",
"++++++++++$+%&*+",
"+++++++++$+=-;+>",
"+++,'++#,@++%+++",
"+>+%+@@+%$+)!+++",
"++%~%++{~%!+++++",
"+]+%++++%+.@^>++",
"+++$@++@$+++%+++",
"+++++++++$+%{/+>",
"+++++++(#+_+%+&+",
"++++++++%+:@,>++",
"+++++@+<[%!+++++",
"++++++.+%&++++++",
"+++++++#,+++++++",
" .+++++++++++++ "};
