/* XPM */
static const char * edit_mastertrack_xpm[] = {
"16 16 142 2",
"  	c None",
". 	c #77A6EA",
"+ 	c #74A4E8",
"@ 	c #6EA0E8",
"# 	c #6B9DE6",
"$ 	c #6599E4",
"% 	c #5E95E2",
"& 	c #70A0E8",
"* 	c #ACC8F2",
"= 	c #A8C6F0",
"- 	c #A6C5F0",
"; 	c #A2C2EF",
"> 	c #538EE1",
", 	c #679BE6",
"' 	c #91B6EC",
") 	c #8CB3EB",
"! 	c #9BBCEE",
"~ 	c #4785DF",
"{ 	c #5C92E2",
"] 	c #A0C1EE",
"^ 	c #89B1EA",
"/ 	c #85AEE9",
"( 	c #94B7ED",
"_ 	c #3A7CDB",
": 	c #7491FE",
"< 	c #7290FE",
"[ 	c #708DFC",
"} 	c #6B89FB",
"| 	c #528DE1",
"1 	c #99BBED",
"2 	c #81ACE9",
"3 	c #7CA8E7",
"4 	c #8DB3EA",
"5 	c #2C74D8",
"6 	c #B8C5FE",
"7 	c #B6C4FE",
"8 	c #B4C2FE",
"9 	c #B0BFFE",
"0 	c #4584DF",
"a 	c #92B7EC",
"b 	c #78A5E6",
"c 	c #73A2E6",
"d 	c #85ADE9",
"e 	c #1E6BD6",
"f 	c #728FFC",
"g 	c #829DFE",
"h 	c #7D95FD",
"i 	c #ACBCFE",
"j 	c #397BD9",
"k 	c #8AB2EA",
"l 	c #6E9FE4",
"m 	c #6A9CE3",
"n 	c #7DA8E7",
"o 	c #1A62D1",
"p 	c #7B93FD",
"q 	c #7693FE",
"r 	c #A9BBFD",
"s 	c #2A74D8",
"t 	c #83ADE8",
"u 	c #6598E2",
"v 	c #6095E1",
"w 	c #76A3E5",
"x 	c #1857CF",
"y 	c #4C9DD0",
"z 	c #4994C9",
"A 	c #448FC4",
"B 	c #3F88BB",
"C 	c #3B7FB3",
"D 	c #6487FA",
"E 	c #6E8DFE",
"F 	c #A2B6FE",
"G 	c #1E69D6",
"H 	c #7BA7E7",
"I 	c #5C92E0",
"J 	c #568FDF",
"K 	c #6E9EE4",
"L 	c #164ECD",
"M 	c #AEBEE0",
"N 	c #AABADE",
"O 	c #A7B8DB",
"P 	c #A1B5D9",
"Q 	c #3476A8",
"R 	c #5C81F8",
"S 	c #6C8BFE",
"T 	c #6786FD",
"U 	c #9FB3FD",
"V 	c #1A60D1",
"W 	c #74A2E5",
"X 	c #538CDE",
"Y 	c #4D89DD",
"Z 	c #6699E2",
"` 	c #1545C9",
" .	c #A9BADD",
"..	c #7794C9",
"+.	c #7191C5",
"@.	c #9AB1D6",
"#.	c #2C6B9C",
"$.	c #527DF6",
"%.	c #6383FD",
"&.	c #5F80FD",
"*.	c #9AAFFE",
"=.	c #1855CF",
"-.	c #6C9CE3",
";.	c #4A86DC",
">.	c #4483DB",
",.	c #5E94E0",
"'.	c #133CC6",
").	c #A3B7D9",
"!.	c #6D8EC5",
"~.	c #6688C0",
"{.	c #93AAD1",
"].	c #256291",
"^.	c #4774F5",
"/.	c #5D7FFD",
"(.	c #567AFE",
"_.	c #96ACFE",
":.	c #164CCD",
"<.	c #6397E1",
"[.	c #4180DA",
"}.	c #3B7DD9",
"|.	c #588FDF",
"1.	c #1235C6",
"2.	c #9CB2D6",
"3.	c #6586BD",
"4.	c #5D80B9",
"5.	c #8CA5CE",
"6.	c #1E5686",
"7.	c #3E6CF2",
"8.	c #94ABFE",
"9.	c #93A9FD",
"0.	c #1543C9",
"a.	c #5D93E0",
"b.	c #598FDF",
"c.	c #558DDF",
"d.	c #518ADE",
"e.	c #112EC0",
"f.	c #96ADD2",
"g.	c #90A8D0",
"h.	c #8BA5CD",
"i.	c #88A2CA",
"j.	c #184E7C",
"k.	c #1231C4",
"                                ",
"          . + @ # $ %           ",
"          & * = - ; >           ",
"          , - ' ) ! ~           ",
"          { ] ^ / ( _           ",
": : < [ } | 1 2 3 4 5           ",
": 6 7 8 9 0 a b c d e           ",
"f 8 g h i j k l m n o           ",
"} 9 p q r s t u v w x y z A B C ",
"D i < E F G H I J K L M N O P Q ",
"R r S T U V W X Y Z `  ...+.@.#.",
"$.F %.&.*.=.-.;.>.,.'.).!.~.{.].",
"^.U /.(._.:.<.[.}.|.1.2.3.4.5.6.",
"7.*._.8.9.0.a.b.c.d.e.f.g.h.i.j.",
"k.k.k.k.k.k.k.k.k.k.k.k.k.k.k.k.",
"                                "};
