/* XPM */
static const char * edit_track_del_xpm[] = {
"16 16 7 1",
" 	c None",
".	c #FFFFFF",
"+	c #920000",
"@	c #990000",
"#	c #FDFDFD",
"$	c #C75C15",
"%	c #D1651A",
"                ",
"                ",
"                ",
"       .......  ",
"       .+@@@@.  ",
"       #......  ",
"                ",
"                ",
"                ",
"  ............  ",
"  .$%%%%%%%%%.  ",
"  .%%%%%%%%%%.  ",
"  ............  ",
"                ",
"                ",
"                "};
