/* XPM */
static const char * fileopenS_xpm[] = {
"16 16 150 2",
"  	c None",
". 	c #A2C1EF",
"+ 	c #9FC0ED",
"@ 	c #9DBEEB",
"# 	c #93B7E7",
"$ 	c #8CB2E4",
"% 	c #88AFE2",
"& 	c #84ACE0",
"* 	c #80A9DD",
"= 	c #7DA5DC",
"- 	c #7AA3DA",
"; 	c #A1C1EE",
"> 	c #F4F7FB",
", 	c #74A0D7",
"' 	c #9EBFEC",
") 	c #A5D59C",
"! 	c #A1D398",
"~ 	c #93CB8B",
"{ 	c #89C682",
"] 	c #84C37E",
"^ 	c #80C17A",
"/ 	c #7CBE76",
"( 	c #6F9BD4",
"_ 	c #9BBDEB",
": 	c #FFFFFF",
"< 	c #6A97D1",
"[ 	c #98BAE9",
"} 	c #A6C3E9",
"| 	c #6493CE",
"1 	c #D9B434",
"2 	c #E1C25E",
"3 	c #E2C360",
"4 	c #94B7E7",
"5 	c #ACC7E8",
"6 	c #EBF1F7",
"7 	c #5F8FCB",
"8 	c #DAB336",
"9 	c #FEFEFD",
"0 	c #FFFFFE",
"a 	c #FFFEFE",
"b 	c #FFFEFD",
"c 	c #8FB4E5",
"d 	c #F2F6FA",
"e 	c #AAC6E9",
"f 	c #ACC6E9",
"g 	c #B0C9E9",
"h 	c #B0C8E8",
"i 	c #B5CCE8",
"j 	c #DEE7F2",
"k 	c #598AC8",
"l 	c #DAAF35",
"m 	c #FEFCF7",
"n 	c #F8E48E",
"o 	c #F5DE91",
"p 	c #F5E09F",
"q 	c #8CB1E3",
"r 	c #F1F6FA",
"s 	c #AEC9EA",
"t 	c #DBE5F1",
"u 	c #5586C6",
"v 	c #DAAA36",
"w 	c #FDFAF1",
"x 	c #F5DE94",
"y 	c #F4DC93",
"z 	c #F2D581",
"A 	c #97A9C0",
"B 	c #E4C191",
"C 	c #DA9435",
"D 	c #D8E2F0",
"E 	c #5486C4",
"F 	c #DAAB35",
"G 	c #FBF6E8",
"H 	c #EAC57E",
"I 	c #E3AE5B",
"J 	c #E1A851",
"K 	c #DFAD61",
"L 	c #F7F6ED",
"M 	c #F6F5ED",
"N 	c #F3EFE7",
"O 	c #EEECE5",
"P 	c #EDEBE5",
"Q 	c #EFF3F8",
"R 	c #5D8AC5",
"S 	c #DAA637",
"T 	c #FFFDF8",
"U 	c #FFFDF6",
"V 	c #FFFCF5",
"W 	c #D1DBDE",
"X 	c #C5CAAD",
"Y 	c #C0C5A6",
"Z 	c #BDC3A4",
"` 	c #B6BD9E",
" .	c #B3BA97",
"..	c #B2B892",
"+.	c #B7CBE1",
"@.	c #5284C3",
"#.	c #4277BB",
"$.	c #DAA136",
"%.	c #FEFCF6",
"&.	c #FCF2C8",
"*.	c #FBEFB9",
"=.	c #FAECAC",
"-.	c #F8E48C",
";.	c #F8E38A",
">.	c #F7E182",
",.	c #F7DF79",
"'.	c #F6DD6D",
").	c #F5DA61",
"!.	c #F4D757",
"~.	c #FDF8E7",
"{.	c #DA9A36",
"].	c #FDFAF2",
"^.	c #FAEDB3",
"/.	c #F9E9A4",
"(.	c #F8E695",
"_.	c #F7E285",
":.	c #F7E181",
"<.	c #F7E07A",
"[.	c #F6DD6F",
"}.	c #F5DA62",
"|.	c #F3D654",
"1.	c #F2D347",
"2.	c #FDF9E8",
"3.	c #FEFAEF",
"4.	c #F9E9A1",
"5.	c #F8E591",
"6.	c #F6DE72",
"7.	c #F5DA63",
"8.	c #F4D754",
"9.	c #F3D347",
"0.	c #F2D039",
"a.	c #F1CD2E",
"b.	c #F0CB26",
"c.	c #FBF2CA",
"d.	c #D98E33",
"e.	c #FAF0DC",
"f.	c #F4DDA7",
"g.	c #F4DB9E",
"h.	c #F3DA96",
"i.	c #F3D88E",
"j.	c #F3D786",
"k.	c #F2D47F",
"l.	c #F2D379",
"m.	c #F1D272",
"n.	c #F1D06C",
"o.	c #F1CF69",
"p.	c #F8EAC2",
"q.	c #D8882D",
"r.	c #D8872D",
"s.	c #D8862C",
"            . + @ # $ % & * = - ",
"          ; > > > > > > > > > , ",
"          ' > ) ! ~ { ] ^ / > ( ",
"          _ > : : : : : : : > < ",
"          [ > } } } } } } } > | ",
"1 2 3 3 3 4 > } : 5 : : : : 6 7 ",
"8 9 0 a b c d e f 5 5 g h i j k ",
"l m n o p q r s : 5 : : : : t u ",
"v w x y z A B C C C C C C C D E ",
"F G H I J K L M N O P P Q C D R ",
"S 0 T U V W X Y Z `  ...+.C @.#.",
"$.%.&.*.=.-.;.>.,.'.).!.~.C     ",
"{.].^./.(._.:.<.[.}.|.1.2.C     ",
"C 3.4.5.:.6.7.8.9.0.a.b.c.C     ",
"d.e.f.g.h.i.j.k.l.m.n.o.p.d.    ",
"  q.r.q.q.q.q.q.q.q.q.r.q.s.    "};
