/* XPM */
static const char * filesave_xpm[] = {
"22 22 379 2",
"  	c None",
". 	c #3F72C0",
"+ 	c #3F72BF",
"@ 	c #3E71BF",
"# 	c #3E71BE",
"$ 	c #3D71BE",
"% 	c #3D70BD",
"& 	c #3D6FBD",
"* 	c #3D6FBE",
"= 	c #4071BE",
"- 	c #4273BF",
"; 	c #4172BE",
"> 	c #3F71BE",
", 	c #4273BE",
"' 	c #4374BD",
") 	c #B3C9EB",
"! 	c #C5D7F2",
"~ 	c #C7D7F1",
"{ 	c #DAE5F4",
"] 	c #D8E4F4",
"^ 	c #DCE6F5",
"/ 	c #DEE7F5",
"( 	c #D2DFF2",
"_ 	c #CDDBF0",
": 	c #CCDAF0",
"< 	c #CFDCF1",
"[ 	c #D6E1F2",
"} 	c #D9E3F3",
"| 	c #CEDCF1",
"1 	c #C8D8F0",
"2 	c #BCCFEB",
"3 	c #98B4DE",
"4 	c #5481C5",
"5 	c #C5D6F1",
"6 	c #C2D7F7",
"7 	c #BDD3F5",
"8 	c #FFFFFF",
"9 	c #D9E4F2",
"0 	c #B8CBE6",
"a 	c #F7FAFE",
"b 	c #F8FBFF",
"c 	c #F6F9FE",
"d 	c #FBFDFF",
"e 	c #F0F6FE",
"f 	c #EAF1FD",
"g 	c #D7E4F7",
"h 	c #B9CEEC",
"i 	c #92B0DC",
"j 	c #527FC3",
"k 	c #3D71BF",
"l 	c #C0D2EF",
"m 	c #A2C1F0",
"n 	c #8FB4EC",
"o 	c #F5F9FE",
"p 	c #A5BDE0",
"q 	c #668DC9",
"r 	c #E7EEF8",
"s 	c #F0F6FD",
"t 	c #EEF3FB",
"u 	c #F4F8FC",
"v 	c #F8FBFE",
"w 	c #F3F8FD",
"x 	c #EAF1FB",
"y 	c #E0EAF8",
"z 	c #DEE9F9",
"A 	c #BFD4F1",
"B 	c #B2CAED",
"C 	c #C5D6EF",
"D 	c #5984C5",
"E 	c #2C63B5",
"F 	c #3D70BF",
"G 	c #BDD1EE",
"H 	c #A5C3F1",
"I 	c #92B5EB",
"J 	c #F1F6FC",
"K 	c #FEFFFF",
"L 	c #A9C0E1",
"M 	c #6F95CC",
"N 	c #E3EDF8",
"O 	c #F2F7FC",
"P 	c #F7FAFD",
"Q 	c #EEF4FB",
"R 	c #E4EDF9",
"S 	c #DDE8F8",
"T 	c #E1EAF9",
"U 	c #A1BEEA",
"V 	c #87ACE4",
"W 	c #C3D5EF",
"X 	c #5481C3",
"Y 	c #245CB1",
"Z 	c #3C70BF",
"` 	c #BACFED",
" .	c #A4C3F0",
"..	c #90B4EA",
"+.	c #EAF2FA",
"@.	c #F7FBFF",
"#.	c #A1BADF",
"$.	c #698FCA",
"%.	c #E2EBF8",
"&.	c #F4F9FE",
"*.	c #F5F9FD",
"=.	c #F8FAFE",
"-.	c #F3F7FD",
";.	c #E7EFFB",
">.	c #DEE9F8",
",.	c #DBE7F7",
"'.	c #E0EAF9",
").	c #A0BEEA",
"!.	c #7FA7E2",
"~.	c #AFC7E9",
"{.	c #507DC1",
"].	c #265DB0",
"^.	c #3C70BE",
"/.	c #B7CEED",
"(.	c #A2C2EF",
"_.	c #90B5EB",
":.	c #EBF3FC",
"<.	c #F3F9FF",
"[.	c #C7D8EE",
"}.	c #AEC4E4",
"|.	c #EFF5FD",
"1.	c #FDFFFF",
"2.	c #FDFEFF",
"3.	c #F3F7FE",
"4.	c #E8F0FC",
"5.	c #E2ECFA",
"6.	c #E1EBFA",
"7.	c #E6EFFB",
"8.	c #A4C1EB",
"9.	c #7DA5E0",
"0.	c #A5BFE5",
"a.	c #4D7ABF",
"b.	c #275DAF",
"c.	c #3C70BD",
"d.	c #B6CDEC",
"e.	c #A3C2F0",
"f.	c #89AFE8",
"g.	c #CDDDF1",
"h.	c #CFDEF1",
"i.	c #D2E0F3",
"j.	c #D9E5F5",
"k.	c #E0E9F5",
"l.	c #E1EAF5",
"m.	c #CBDAF0",
"n.	c #C7D8EF",
"o.	c #C7D7F0",
"p.	c #CBDBF0",
"q.	c #98B7E5",
"r.	c #7EA4DF",
"s.	c #A3BDE3",
"t.	c #4C79BE",
"u.	c #265CAE",
"v.	c #B4CAEC",
"w.	c #A9C5F2",
"x.	c #739DDF",
"y.	c #688FC9",
"z.	c #6A90CA",
"A.	c #6D92CB",
"B.	c #7095CC",
"C.	c #7296CC",
"D.	c #7195CC",
"E.	c #6D93CB",
"F.	c #6A90C9",
"G.	c #678EC8",
"H.	c #6C94D2",
"I.	c #81A6DE",
"J.	c #9FBAE1",
"K.	c #4B78BD",
"L.	c #275CAE",
"M.	c #3C6FBD",
"N.	c #B3C9EA",
"O.	c #A7C4EF",
"P.	c #749EE0",
"Q.	c #6F99D9",
"R.	c #709AD9",
"S.	c #719AD9",
"T.	c #729AD9",
"U.	c #6F99D8",
"V.	c #6D97D7",
"W.	c #6D96D6",
"X.	c #6C96D6",
"Y.	c #6B95D5",
"Z.	c #6994D3",
"`.	c #6C97D8",
" +	c #80A5DE",
".+	c #9CB7DE",
"++	c #4A77BB",
"@+	c #275BAC",
"#+	c #3C6EBD",
"$+	c #B1C8EA",
"%+	c #A4C1ED",
"&+	c #75A0E2",
"*+	c #7CA5E5",
"=+	c #7CA5E4",
"-+	c #7CA4E3",
";+	c #7BA4E3",
">+	c #7AA3E2",
",+	c #79A2E1",
"'+	c #78A1E0",
")+	c #76A0DF",
"!+	c #759FDE",
"~+	c #749DDC",
"{+	c #719BDB",
"]+	c #7EA3DC",
"^+	c #98B3DC",
"/+	c #4975B9",
"(+	c #275BAB",
"_+	c #AFC6EA",
":+	c #A3C0ED",
"<+	c #759FE2",
"[+	c #79A2E3",
"}+	c #7AA2E2",
"|+	c #77A1E0",
"1+	c #77A0DF",
"2+	c #769FDE",
"3+	c #759EDE",
"4+	c #739DDD",
"5+	c #739CDB",
"6+	c #729ADA",
"7+	c #7099D9",
"8+	c #7DA1DA",
"9+	c #94AFD9",
"0+	c #4874B8",
"a+	c #275BAA",
"b+	c #3B6EBD",
"c+	c #ACC4E8",
"d+	c #A2BFEC",
"e+	c #749FE1",
"f+	c #749FE0",
"g+	c #759FE1",
"h+	c #759FE0",
"i+	c #719CDE",
"j+	c #709ADC",
"k+	c #709BDC",
"l+	c #6E99DB",
"m+	c #6D98DA",
"n+	c #6B96D7",
"o+	c #6A94D6",
"p+	c #7AA0D7",
"q+	c #8FACD6",
"r+	c #4773B6",
"s+	c #285AA8",
"t+	c #AAC3E7",
"u+	c #9BBAEA",
"v+	c #87ABE5",
"w+	c #C9DAF3",
"x+	c #D1DFFC",
"y+	c #D1DEFF",
"z+	c #D1DEFE",
"A+	c #D0DEFE",
"B+	c #D0DDFE",
"C+	c #CFDDFD",
"D+	c #CFDCFD",
"E+	c #CEDCFC",
"F+	c #CDDBFB",
"G+	c #CCDBF3",
"H+	c #94B3E0",
"I+	c #7198D3",
"J+	c #8CA9D3",
"K+	c #4671B4",
"L+	c #275AA7",
"M+	c #A8C2E7",
"N+	c #96B6E9",
"O+	c #94B4E9",
"P+	c #E9F6DA",
"Q+	c #DCEECB",
"R+	c #DEEFCE",
"S+	c #DEEFCF",
"T+	c #DDEFCD",
"U+	c #E0F1D1",
"V+	c #FFFFFC",
"W+	c #B1C7EA",
"X+	c #6A93CF",
"Y+	c #88A6D1",
"Z+	c #4470B3",
"`+	c #2759A6",
" @	c #A7C0E7",
".@	c #95B6E8",
"+@	c #93B4EA",
"@@	c #A3CF85",
"#@	c #80BC57",
"$@	c #87BF61",
"%@	c #83BD5C",
"&@	c #8CC268",
"*@	c #EEF7E8",
"=@	c #AFC4ED",
"-@	c #6891CC",
";@	c #84A3CE",
">@	c #446FB1",
",@	c #2859A6",
"'@	c #A5BFE7",
")@	c #95B5E8",
"!@	c #93B3E8",
"~@	c #CCE2C5",
"{@	c #B7D6AF",
"]@	c #BBD9B4",
"^@	c #B9D7B2",
"/@	c #BEDAB7",
"(@	c #F6FBF5",
"_@	c #ABC1E8",
":@	c #668ECB",
"<@	c #829FCC",
"[@	c #436EB0",
"}@	c #285AA4",
"|@	c #A4BEE6",
"1@	c #92B3E7",
"2@	c #91B2E9",
"3@	c #B5D7A3",
"4@	c #99C780",
"5@	c #9FCB88",
"6@	c #9BC983",
"7@	c #A2CD8C",
"8@	c #F2F9EE",
"9@	c #ABC0E9",
"0@	c #628AC9",
"a@	c #7E9CCA",
"b@	c #426DAF",
"c@	c #2859A3",
"d@	c #3C6FBC",
"e@	c #A3BEE7",
"f@	c #9CBAE9",
"g@	c #A1BDEC",
"h@	c #FCFEFF",
"i@	c #B9DB9D",
"j@	c #9CCC77",
"k@	c #A2CF80",
"l@	c #9ECD7B",
"m@	c #A6D185",
"n@	c #F7FDEF",
"o@	c #B2C5EA",
"p@	c #678DC7",
"q@	c #7D9BC9",
"r@	c #416DAE",
"s@	c #3A6EBD",
"t@	c #9CB9E4",
"u@	c #AFC7EC",
"v@	c #BED1EE",
"w@	c #FAFCFF",
"x@	c #B5C7E1",
"y@	c #7494C5",
"z@	c #7998C7",
"A@	c #416DAF",
"B@	c #2759A3",
"C@	c #376BBB",
"D@	c #517FC6",
"E@	c #5380C6",
"F@	c #5380C4",
"G@	c #5D86C6",
"H@	c #6088C8",
"I@	c #5F87C7",
"J@	c #5F86C6",
"K@	c #5F86C4",
"L@	c #5E85C3",
"M@	c #5E84C2",
"N@	c #5E84C1",
"O@	c #5E83C0",
"P@	c #5E83BF",
"Q@	c #5D82BE",
"R@	c #5C82BB",
"S@	c #4C75B3",
"T@	c #406BAD",
"U@	c #406CAD",
"V@	c #3564AA",
"W@	c #1D56AE",
"X@	c #1D56AD",
"Y@	c #1D56AC",
"Z@	c #1C55AB",
"`@	c #1C54A9",
" #	c #1B53A7",
".#	c #1B52A6",
"+#	c #1B51A4",
"@#	c #1A51A2",
"##	c #1A50A1",
"$#	c #1A4F9F",
"%#	c #1A4E9E",
"&#	c #184C9D",
"*#	c #2153A1",
"=#	c #295AA3",
"-#	c #2859A2",
"  . + @ @ @ @ # $ % & * = - - ; > , '       ",
". ) ! ~ { ] ^ / ( _ : < [ } [ | 1 2 3 4     ",
". 5 6 7 8 8 9 0 a b c d 8 8 d e f g h i j   ",
"k l m n o 8 p q r s t u v w x y z A B C D E ",
"F G H I J K L M N J O P P Q R S T U V W X Y ",
"Z `  ...+.@.#.$.%.&.*.=.-.;.>.,.'.).!.~.{.].",
"^./.(._.:.<.[.}.|.1.8 2.3.4.5.6.7.8.9.0.a.b.",
"c.d.e.f.g.h.i.j.{ k.l.^ ( m.n.o.p.q.r.s.t.u.",
"^.v.w.x.y.y.z.A.B.C.D.E.F.y.y.y.G.H.I.J.K.L.",
"M.N.O.P.Q.Q.R.S.T.T.S.U.V.W.X.Y.Z.`. +.+++@+",
"#+$+%+&+*+*+=+=+=+-+;+>+,+'+)+!+~+{+]+^+/+(+",
"#+_+:+<+[+}+}+}+>+,+|+1+2+3+4+5+6+7+8+9+0+a+",
"b+c+d+e+e+P.f+g+h+x.i+j+k+l+m+n+o+X.p+q+r+s+",
"b+t+u+v+w+x+y+y+z+A+B+C+C+D+E+F+G+H+I+J+K+L+",
"#+M+N+O+8 P+Q+R+R+S+S+S+S+S+T+U+V+W+X+Y+Z+`+",
"&  @.@+@a @@#@$@$@$@$@$@$@$@%@&@*@=@-@;@>@,@",
"% '@)@!@a ~@{@]@]@]@]@]@]@]@^@/@(@_@:@<@[@}@",
"& |@1@2@a 3@4@5@5@5@5@5@5@5@6@7@8@9@0@a@b@c@",
"d@e@f@g@h@i@j@k@k@k@k@k@k@k@l@m@n@o@p@q@r@c@",
"s@t@u@v@v w@v v v v v v v v v v 8 x@y@z@A@B@",
"C@D@E@F@G@H@H@I@J@K@L@M@N@O@P@Q@R@S@T@U@V@  ",
"      Y W@X@Y@Z@`@ #.#+#@###$#%#&#*#=#-#    "};
