/* XPM */
static const char * fileopen_xpm[] = {
"22 22 379 2",
"  	c None",
". 	c #A5C4F1",
"+ 	c #A8C5F0",
"@ 	c #A6C4F0",
"# 	c #A4C3EE",
"$ 	c #A2C1EC",
"% 	c #9ABCE9",
"& 	c #95B8E7",
"* 	c #91B5E5",
"= 	c #8EB3E4",
"- 	c #8CB1E3",
"; 	c #89AFE1",
"> 	c #87ADDF",
", 	c #85ABDF",
"' 	c #7DA5DC",
") 	c #78A2D9",
"! 	c #ACC9F1",
"~ 	c #E6EEF9",
"{ 	c #EFF3FE",
"] 	c #EDF1FF",
"^ 	c #ECF1FF",
"/ 	c #ECF0FF",
"( 	c #EBF0FF",
"_ 	c #EBEFFF",
": 	c #EBF0FE",
"< 	c #E7EEF8",
"[ 	c #98B9E2",
"} 	c #6898D4",
"| 	c #ACC8F0",
"1 	c #F5F8FE",
"2 	c #DBEED5",
"3 	c #C3E3BB",
"4 	c #C4E3BD",
"5 	c #BEDFB7",
"6 	c #B9DDB3",
"7 	c #B5DBB0",
"8 	c #B3DAAE",
"9 	c #B2D9AC",
"0 	c #ACD6A6",
"a 	c #BBDDB5",
"b 	c #FCFDFA",
"c 	c #9FBCE5",
"d 	c #6293D1",
"e 	c #A9C6EF",
"f 	c #F2F5FE",
"g 	c #CFE9C7",
"h 	c #B1DCA6",
"i 	c #B2DCA8",
"j 	c #A9D6A0",
"k 	c #A2D399",
"l 	c #9DD095",
"m 	c #9ACF93",
"n 	c #98CD90",
"o 	c #90C988",
"p 	c #A2D19B",
"q 	c #F4F8F6",
"r 	c #9BB9E4",
"s 	c #5F90CF",
"t 	c #A6C5ED",
"u 	c #EFF4FB",
"v 	c #FFFFFE",
"w 	c #FFFFFF",
"x 	c #FAFBFD",
"y 	c #95B5DE",
"z 	c #5B8DCD",
"A 	c #A6C3EC",
"B 	c #F2F6FB",
"C 	c #D3E1F5",
"D 	c #B6CDEF",
"E 	c #B7CEEF",
"F 	c #BCD1F1",
"G 	c #BAD0F1",
"H 	c #B7CEF0",
"I 	c #B4CCEF",
"J 	c #C2D5F2",
"K 	c #F7F9FC",
"L 	c #5689CA",
"M 	c #A8B5AF",
"N 	c #A2C2EF",
"O 	c #BCD2EE",
"P 	c #AAC6EA",
"Q 	c #CBDCF2",
"R 	c #A6C3E8",
"S 	c #B7CFED",
"T 	c #CFDFF3",
"U 	c #CCDDF3",
"V 	c #CADBF2",
"W 	c #D3E1F4",
"X 	c #F4F7FB",
"Y 	c #90B2DB",
"Z 	c #5287C8",
"` 	c #DAB638",
" .	c #E3C76B",
"..	c #E6CC78",
"+.	c #E6CB76",
"@.	c #ECCD6E",
"#.	c #BDBFA5",
"$.	c #9CBFF1",
"%.	c #F1F5FB",
"&.	c #BED3EE",
"*.	c #BFD4EF",
"=.	c #F7F9FD",
"-.	c #B3CCEA",
";.	c #D2E1F2",
">.	c #FEFEFE",
",.	c #F9FBFD",
"'.	c #EFF4F8",
").	c #89ACD8",
"!.	c #4F84C6",
"~.	c #DCB841",
"{.	c #F8F1D9",
"].	c #FEFCF9",
"^.	c #FFFFF9",
"/.	c #C7D8EE",
"(.	c #97B9E7",
"_.	c #EFF4F9",
":.	c #C6D8EF",
"<.	c #AEC7E9",
"[.	c #ACC7E8",
"}.	c #ADC8E8",
"|.	c #AFC9E9",
"1.	c #B2CAEA",
"2.	c #B2C9E9",
"3.	c #B2C9E8",
"4.	c #BED2EA",
"5.	c #E2EAF3",
"6.	c #85A9D6",
"7.	c #4B80C4",
"8.	c #DDB641",
"9.	c #FBF5E8",
"0.	c #FFFCE4",
"a.	c #FBEEB4",
"b.	c #FAEBBC",
"c.	c #FFF1C2",
"d.	c #C3CFD4",
"e.	c #94B9EC",
"f.	c #EFF7FF",
"g.	c #C2DBFB",
"h.	c #BAD7FC",
"i.	c #E1F1FF",
"j.	c #AECEF7",
"k.	c #C6DEFD",
"l.	c #E7F5FF",
"m.	c #E4F3FF",
"n.	c #E4F2FF",
"o.	c #E6F4FF",
"p.	c #E7F3FF",
"q.	c #E1EAF4",
"r.	c #7FA4D4",
"s.	c #487DC2",
"t.	c #DDB241",
"u.	c #FAF2E1",
"v.	c #FDF2C3",
"w.	c #F6DE82",
"x.	c #F5DD8C",
"y.	c #FCDF8A",
"z.	c #C1C5B2",
"A.	c #94B3DF",
"B.	c #E8E1D6",
"C.	c #CBC2B4",
"D.	c #CFBFA9",
"E.	c #F6DBB6",
"F.	c #C0B6A7",
"G.	c #D9C7AE",
"H.	c #FCDFB7",
"I.	c #F8DCB6",
"J.	c #F8DBB5",
"K.	c #FADDB6",
"L.	c #F6E1C6",
"M.	c #E1E7EF",
"N.	c #7DA3D5",
"O.	c #457BC1",
"P.	c #DDAF41",
"Q.	c #F9F1DC",
"R.	c #FBEEC7",
"S.	c #F3D98C",
"T.	c #F3D98F",
"U.	c #F7D67C",
"V.	c #C7BE98",
"W.	c #A0AAB9",
"X.	c #E1C298",
"Y.	c #E3A755",
"Z.	c #DC9432",
"`.	c #DA9538",
" +	c #DD9739",
".+	c #DB9638",
"++	c #DA9639",
"@+	c #D98E29",
"#+	c #DA9C48",
"$+	c #DDE1E7",
"%+	c #7EA6DA",
"&+	c #467CC0",
"*+	c #DDB040",
"=+	c #F8EFD5",
"-+	c #F4E1B7",
";+	c #E7BD6B",
">+	c #E4AF59",
",+	c #E3AA4D",
"'+	c #DAA550",
")+	c #DAB378",
"!+	c #F5EDDD",
"~+	c #F8F0E0",
"{+	c #F5E8D3",
"]+	c #F2E4D0",
"^+	c #F0E3CF",
"/+	c #EEE1CF",
"(+	c #EDE1CF",
"_+	c #EEE1D0",
":+	c #F0ECE6",
"<+	c #E5BD87",
"[+	c #DB9A42",
"}+	c #E5E6E9",
"|+	c #86AADB",
"1+	c #4F81C1",
"2+	c #DDAE41",
"3+	c #FBF3E5",
"4+	c #F4DFBD",
"5+	c #F2D8B2",
"6+	c #F3D7AF",
"7+	c #E6CDA8",
"8+	c #D7C9AC",
"9+	c #D9DDCE",
"0+	c #D7DFD4",
"a+	c #D5DDD1",
"b+	c #D2D9CE",
"c+	c #CDD5CB",
"d+	c #CAD3C9",
"e+	c #C9D2C5",
"f+	c #C9D1C5",
"g+	c #CAE1F8",
"h+	c #D7BD9A",
"i+	c #D09341",
"j+	c #90ABCE",
"k+	c #6191CF",
"l+	c #497CBE",
"m+	c #DDAA42",
"n+	c #FAF3E2",
"o+	c #FFFFF5",
"p+	c #FFFFF4",
"q+	c #FFFFF3",
"r+	c #EFF2E7",
"s+	c #D5DCCC",
"t+	c #CECEA4",
"u+	c #CAC99A",
"v+	c #C8C798",
"w+	c #C6C695",
"x+	c #C1C290",
"y+	c #BFBF89",
"z+	c #BDBC81",
"A+	c #BDBB7F",
"B+	c #C0D2D7",
"C+	c #D4B994",
"D+	c #CB8E3A",
"E+	c #517DB5",
"F+	c #3775C5",
"G+	c #DDA741",
"H+	c #FAF0DE",
"I+	c #FFFCE8",
"J+	c #FCF1C2",
"K+	c #FBEFB9",
"L+	c #FAEDB1",
"M+	c #F9E89D",
"N+	c #F8E38A",
"O+	c #F7E285",
"P+	c #F7E07F",
"Q+	c #F7DF78",
"R+	c #F6DD6F",
"S+	c #F5DB66",
"T+	c #F4D85A",
"U+	c #F4D757",
"V+	c #FDF8D3",
"W+	c #EDCB9C",
"X+	c #D88D29",
"Y+	c #DDA241",
"Z+	c #F9EEDC",
"`+	c #FEF9DE",
" @	c #FAECB0",
".@	c #F9EAA9",
"+@	c #F9E89E",
"@@	c #F8E590",
"#@	c #F8E384",
"$@	c #F9E385",
"%@	c #F9E281",
"&@	c #F9E17A",
"*@	c #F8DF72",
"=@	c #F7DD69",
"-@	c #F6DA5F",
";@	c #F5D650",
">@	c #F4D54B",
",@	c #FFF9D3",
"'@	c #EECD9F",
")@	c #D98D28",
"!@	c #DD9D41",
"~@	c #F9EDDB",
"{@	c #FEF8D5",
"]@	c #F9EAA1",
"^@	c #F9E799",
"/@	c #F8E58E",
"(@	c #F7E282",
"_@	c #F7E079",
":@	c #F6DE72",
"<@	c #F6DD6A",
"[@	c #F5DB62",
"}@	c #F5D859",
"|@	c #F4D64E",
"1@	c #F3D345",
"2@	c #F1D037",
"3@	c #F1CF34",
"4@	c #FCF5C1",
"5@	c #EDCB98",
"6@	c #D88E29",
"7@	c #DC9940",
"8@	c #F9ECD8",
"9@	c #FDF6CF",
"0@	c #F8E69A",
"a@	c #F8E493",
"b@	c #F7E288",
"c@	c #F6E07E",
"d@	c #F6DD73",
"e@	c #F5DB68",
"f@	c #F4D85E",
"g@	c #F4D654",
"h@	c #F3D34B",
"i@	c #F2D141",
"j@	c #F2CF39",
"k@	c #F1CC2E",
"l@	c #F0CC2E",
"m@	c #FBF0B0",
"n@	c #EDC98E",
"o@	c #D88D2A",
"p@	c #DB943D",
"q@	c #F8E7CD",
"r@	c #FAEFCD",
"s@	c #F5DFA5",
"t@	c #F5DFA1",
"u@	c #F4DE9B",
"v@	c #F4DC95",
"w@	c #F4DB8E",
"x@	c #F4DA88",
"y@	c #F3D882",
"z@	c #F3D67D",
"A@	c #F3D678",
"B@	c #F2D572",
"C@	c #F2D36D",
"D@	c #F2D167",
"E@	c #FAEEBC",
"F@	c #EBC489",
"G@	c #D88829",
"H@	c #D98C34",
"I@	c #E4AD6B",
"J@	c #E3AA63",
"K@	c #E1A253",
"L@	c #E1A251",
"M@	c #E1A250",
"N@	c #E0A14E",
"O@	c #E0A14C",
"P@	c #E0A14B",
"Q@	c #E0A049",
"R@	c #E0A048",
"S@	c #E0A047",
"T@	c #E0A045",
"U@	c #E09F44",
"V@	c #E09E42",
"W@	c #E09E43",
"X@	c #E2A759",
"Y@	c #DF9C4D",
"Z@	c #D8872A",
"`@	c #D47A18",
" #	c #D67E20",
".#	c #D57F20",
"+#	c #D57F21",
"@#	c #D57F22",
"##	c #D57F23",
"$#	c #D57F24",
"%#	c #D58025",
"&#	c #D58026",
"*#	c #D57F26",
"=#	c #D47D1D",
"-#	c #D67F20",
"              . + @ # $ % & * = - ; > , ' ) ",
"              ! ~ { ] ^ / ( ( ( _ _ : < [ } ",
"              | 1 2 3 4 5 6 7 8 9 0 a b c d ",
"              e f g h i j k l m n o p q r s ",
"              t u v w w w w w w w w w x y z ",
"              A B C D E F G H H H I J K y L ",
"            M N B O P Q R S T U U V W X Y Z ",
"`  ...+.+.@.#.$.%.&.*.=.-.;.>.,.,.x ,.'.).!.",
"~.{.w ].].^./.(._.:.R <.[.}.|.1.2.3.4.5.6.7.",
"8.9.0.a.b.c.d.e.f.g.h.i.j.k.l.m.n.o.p.q.r.s.",
"t.u.v.w.x.y.z.A.B.C.D.E.F.G.H.I.J.K.L.M.N.O.",
"P.Q.R.S.T.U.V.W.X.Y.Z.`. +.+`.`.++@+#+$+%+&+",
"*+=+-+;+>+,+'+)+!+~+{+]+^+/+(+_+:+<+[+}+|+1+",
"2+Q.3+4+5+6+7+8+9+0+a+b+c+d+e+f+g+h+i+j+k+l+",
"m+n+w o+p+q+r+s+t+u+v+w+x+y+z+A+B+C+D+E+F+  ",
"G+H+I+J+K+L+M+N+N+O+P+Q+R+S+T+U+V+W+X+      ",
"Y+Z+`+ @.@+@@@#@$@%@&@*@=@-@;@>@,@'@)@      ",
"!@~@{@]@^@/@(@_@:@<@[@}@|@1@2@3@4@5@6@      ",
"7@8@9@0@a@b@c@d@e@f@g@h@i@j@k@l@m@n@o@      ",
"p@q@r@s@t@u@v@w@x@y@z@A@B@C@D@D@E@F@G@      ",
"H@I@J@K@L@M@N@O@P@Q@R@S@T@U@V@W@X@Y@Z@      ",
"    `@ #.#+#+#@#####$#$#%#&#&#*#=#-#        "};
