/* XPM */
static const char * filenew_xpm[] = {
"22 22 33 1",
" 	c None",
".	c #C7C7C7",
"+	c #F4F4F4",
"@	c #F3F3F3",
"#	c #F5F5F5",
"$	c #F6F6F6",
"%	c #DFDFDF",
"&	c #D5D5D5",
"*	c #FFFFFF",
"=	c #FAFAFA",
"-	c #FBFBFB",
";	c #F9F9F9",
">	c #F8F8F8",
",	c #FCFCFC",
"'	c #CBCBCB",
")	c #FEFEFE",
"!	c #F2F2F2",
"~	c #F0F0F0",
"{	c #EEEEEE",
"]	c #E7E7E7",
"^	c #EDEDED",
"/	c #C8C8C8",
"(	c #F7F7F7",
"_	c #EFEFEF",
":	c #EAEAEA",
"<	c #D8D8D8",
"[	c #F1F1F1",
"}	c #E4E4E4",
"|	c #EBEBEB",
"1	c #E5E5E5",
"2	c #ECECEC",
"3	c #FDFDFD",
"4	c #D4D4D4",
"                      ",
"  .+@+++++++#$%       ",
"  &*=----=;>#,#'      ",
"  &)+####!~{]+,^/     ",
"  &*(;>((#!_:+,$;<    ",
"  &*>;;>($+[:+),);}   ",
"  &*==-=;>$@{[#+!,>   ",
"  &*-,,,,=(#@{|:1@#   ",
"  &*,,,,,-=(#@[{2(#   ",
"  &*,,,,,,-=>$+!~;#   ",
"  &*,,,,,,,-;>$+@-#   ",
"  &*,,,,,,,,==>$$,+   ",
"  &*,,,,,,,,-=;;>3+   ",
"  &*,,,,--,--=;>>3+   ",
"  &*,,,,----===>>3+   ",
"  &*,,,,---======)+   ",
"  &*,,,,,--------*+   ",
"  &*,,,,,,-,,,,,,*+   ",
"  4*3333333333333*+   ",
"  4*)*)))))))))))*@   ",
"                      ",
"                      "};
