/* XPM */
static const char * global_xpm[] = {
"34 34 350 2",
"  	c None",
". 	c #5682BA",
"+ 	c #4E7CB3",
"@ 	c #517CB4",
"# 	c #4F7DB4",
"$ 	c #507DB4",
"% 	c #507CB4",
"& 	c #517EB5",
"* 	c #5783BA",
"= 	c #4771A4",
"- 	c #A5C9F0",
"; 	c #8FB7E9",
"> 	c #8CB4E8",
", 	c #8AB4E8",
"' 	c #8DB6E8",
") 	c #8EB5E9",
"! 	c #94BAEA",
"~ 	c #93B6E0",
"{ 	c #4E7AB1",
"] 	c #517EB4",
"^ 	c #517DB5",
"/ 	c #527DB5",
"( 	c #507DB5",
"_ 	c #4F7DB5",
": 	c #4E7DB5",
"< 	c #406896",
"[ 	c #74A3DF",
"} 	c #5E93D6",
"| 	c #6195D6",
"1 	c #5F95D6",
"2 	c #6194D6",
"3 	c #6094D6",
"4 	c #7BA7DD",
"5 	c #7BA8DF",
"6 	c #7EA9DF",
"7 	c #81ABDF",
"8 	c #80ABDF",
"9 	c #84ADE0",
"0 	c #86AFE1",
"a 	c #88AFE1",
"b 	c #89B1E3",
"c 	c #8DB2E3",
"d 	c #8CB3E3",
"e 	c #8DB4E4",
"f 	c #8FB5E4",
"g 	c #91B6E5",
"h 	c #92B7E5",
"i 	c #95B8E5",
"j 	c #94B9E4",
"k 	c #97BAE6",
"l 	c #94BAE7",
"m 	c #5983B9",
"n 	c #3D628F",
"o 	c #5F93D3",
"p 	c #6090D0",
"q 	c #5C90D0",
"r 	c #5D90D0",
"s 	c #5D8FCF",
"t 	c #598CCC",
"u 	c #5785C2",
"v 	c #4F7EB9",
"w 	c #4C7DB7",
"x 	c #4D7CB7",
"y 	c #4C7CB7",
"z 	c #4B7CB7",
"A 	c #4A7CB7",
"B 	c #4E7CB7",
"C 	c #4B7BB7",
"D 	c #4E7BB7",
"E 	c #4A7BB7",
"F 	c #497BB6",
"G 	c #618EC5",
"H 	c #41689A",
"I 	c #3E6392",
"J 	c #568AC9",
"K 	c #5788C7",
"L 	c #5688C7",
"M 	c #5888C7",
"N 	c #5988C6",
"O 	c #5587C5",
"P 	c #517EB9",
"Q 	c #3D6A9D",
"R 	c #2A5384",
"S 	c #254E7E",
"T 	c #264E7E",
"U 	c #274E7E",
"V 	c #274F7E",
"W 	c #264F7E",
"X 	c #264F7F",
"Y 	c #305A8B",
"Z 	c #234672",
"` 	c #355884",
" .	c #4676AE",
"..	c #4574AD",
"+.	c #4774AC",
"@.	c #4674AD",
"#.	c #4774AD",
"$.	c #4671AA",
"%.	c #3B669A",
"&.	c #234878",
"*.	c #C3DDEF",
"=.	c #C7E3F5",
"-.	c #BAD9F2",
";.	c #BADAF2",
">.	c #BAD9F1",
",.	c #B8D8F1",
"'.	c #A8C8E5",
").	c #19385D",
"!.	c #224A7A",
"~.	c #214879",
"{.	c #21497A",
"].	c #224979",
"^.	c #214778",
"/.	c #1D4370",
"(.	c #35577E",
"_.	c #BAD7EF",
":.	c #8FB0DD",
"<.	c #8DB1DD",
"[.	c #8FB1DD",
"}.	c #8EB1DD",
"|.	c #8FB2DD",
"1.	c #91B2DE",
"2.	c #7E9CC1",
"3.	c #7DA1C3",
"4.	c #BEDEF7",
"5.	c #B9D9F1",
"6.	c #AFD1ED",
"7.	c #93B6DF",
"8.	c #90B2DC",
"9.	c #8FB2DC",
"0.	c #92B4DF",
"a.	c #6E8AAC",
"b.	c #5A83B1",
"c.	c #92B2DF",
"d.	c #8AAFDC",
"e.	c #8EB0DC",
"f.	c #8CAFDC",
"g.	c #8BAFDC",
"h.	c #8DAFDC",
"i.	c #8BB0DC",
"j.	c #90B1DD",
"k.	c #91B2DD",
"l.	c #90B3DF",
"m.	c #6781A1",
"n.	c #547CAA",
"o.	c #91B4DF",
"p.	c #8EB0DB",
"q.	c #8DB0DB",
"r.	c #8CB0DB",
"s.	c #8BB0DB",
"t.	c #8FB0DB",
"u.	c #8EB3DE",
"v.	c #65809F",
"w.	c #547DAA",
"x.	c #8FB2DF",
"y.	c #8AAEDB",
"z.	c #8BAFDB",
"A.	c #8BAEDB",
"B.	c #8AAFDB",
"C.	c #8CAFDB",
"D.	c #8EAFDB",
"E.	c #8CAEDB",
"F.	c #8FAFDB",
"G.	c #8DAFDB",
"H.	c #89AEDB",
"I.	c #8EB1DE",
"J.	c #667E9E",
"K.	c #537BAA",
"L.	c #88ADDB",
"M.	c #8AADDB",
"N.	c #88AEDB",
"O.	c #89ADDB",
"P.	c #89B0DD",
"Q.	c #627E9E",
"R.	c #8DB0DE",
"S.	c #87ACDB",
"T.	c #8CADDB",
"U.	c #88ACDB",
"V.	c #87ADDB",
"W.	c #89ACDB",
"X.	c #8BADDB",
"Y.	c #8DAFDD",
"Z.	c #617D9E",
"`.	c #527AAA",
" +	c #85ACDA",
".+	c #86ACDA",
"++	c #87ACDA",
"@+	c #86ABDA",
"#+	c #89ADDA",
"$+	c #88ABDA",
"%+	c #87ABDA",
"&+	c #89ACDA",
"*+	c #8BADDA",
"=+	c #8BACDA",
"-+	c #85ABDA",
";+	c #87AEDD",
">+	c #627C9E",
",+	c #527BAA",
"'+	c #89AEDD",
")+	c #84ABDA",
"!+	c #84AADA",
"~+	c #85AADA",
"{+	c #88AEDC",
"]+	c #5F7B9D",
"^+	c #86ADDD",
"/+	c #84A9D9",
"(+	c #86ABD9",
"_+	c #84AAD9",
":+	c #82AAD9",
"<+	c #87AAD9",
"[+	c #85AAD9",
"}+	c #82A9D9",
"|+	c #86AAD9",
"1+	c #83A9D9",
"2+	c #85ABD9",
"3+	c #83AAD9",
"4+	c #86A9D9",
"5+	c #85A9D9",
"6+	c #88ACDC",
"7+	c #5E7A9D",
"8+	c #517AAA",
"9+	c #83A8D9",
"0+	c #80A8D9",
"a+	c #81A8D9",
"b+	c #84A8D9",
"c+	c #85A8D9",
"d+	c #82A8D9",
"e+	c #82AADB",
"f+	c #5E7A9C",
"g+	c #5079A9",
"h+	c #87ABDC",
"i+	c #82A7D8",
"j+	c #81A7D8",
"k+	c #84A7D8",
"l+	c #7FA7D8",
"m+	c #80A7D8",
"n+	c #86A8D8",
"o+	c #83A7D8",
"p+	c #83A8D8",
"q+	c #86AADB",
"r+	c #5F799C",
"s+	c #8AAFDF",
"t+	c #88ABDC",
"u+	c #85ABDC",
"v+	c #89ABDC",
"w+	c #86ABDC",
"x+	c #8AACDC",
"y+	c #84ABDC",
"z+	c #8AABDC",
"A+	c #88ADDE",
"B+	c #607A9D",
"C+	c #205893",
"D+	c #2661A0",
"E+	c #2460A0",
"F+	c #2560A0",
"G+	c #2360A0",
"H+	c #2660A0",
"I+	c #2561A0",
"J+	c #1B4F86",
"K+	c #3D6B9D",
"L+	c #4F81BB",
"M+	c #4F80B9",
"N+	c #4F7FB9",
"O+	c #4D7FB9",
"P+	c #4E7FB9",
"Q+	c #4E80B9",
"R+	c #507FB9",
"S+	c #4C7FB9",
"T+	c #5080B9",
"U+	c #4D80B9",
"V+	c #4E80BB",
"W+	c #385B85",
"X+	c #3B689C",
"Y+	c #467BB6",
"Z+	c #4678B4",
"`+	c #4579B4",
" @	c #4679B4",
".@	c #4578B4",
"+@	c #4479B4",
"@@	c #4778B4",
"#@	c #4779B4",
"$@	c #4379B4",
"%@	c #4478B4",
"&@	c #457AB6",
"*@	c #335882",
"=@	c #6589B3",
"-@	c #92B3E1",
";@	c #92B1DE",
">@	c #92B0DE",
",@	c #93B1DE",
"'@	c #8EB0DE",
")@	c #8CB0DE",
"!@	c #8FB0DE",
"~@	c #90B1DE",
"{@	c #93B0DE",
"]@	c #90B0DE",
"^@	c #8FB1DE",
"/@	c #94B1DE",
"(@	c #6F88A9",
"_@	c #4E76A7",
":@	c #7FA3D8",
"<@	c #79A1D4",
"[@	c #78A0D4",
"}@	c #7CA0D4",
"|@	c #79A0D4",
"1@	c #7BA0D4",
"2@	c #7CA1D4",
"3@	c #7AA1D4",
"4@	c #77A0D4",
"5@	c #7DA0D4",
"6@	c #7AA0D4",
"7@	c #7DA1D7",
"8@	c #567399",
"9@	c #4C78A8",
"0@	c #719BCF",
"a@	c #6D9ACE",
"b@	c #6E9BCE",
"c@	c #6D9BCE",
"d@	c #709CCE",
"e@	c #729CCE",
"f@	c #709BCE",
"g@	c #6F9BCE",
"h@	c #719BCE",
"i@	c #719CCE",
"j@	c #6C9BCE",
"k@	c #6F9CCE",
"l@	c #739CCE",
"m@	c #6E99CF",
"n@	c #57749B",
"o@	c #4F79AB",
"p@	c #5688C1",
"q@	c #578AC1",
"r@	c #598BC2",
"s@	c #5B8BC2",
"t@	c #578BC2",
"u@	c #5A8CC2",
"v@	c #588BC2",
"w@	c #5A8BC2",
"x@	c #5A8BC1",
"y@	c #598BC1",
"z@	c #588AC1",
"A@	c #5688C0",
"B@	c #6084B2",
"C@	c #000817",
"D@	c #000916",
"E@	c #000816",
"F@	c #000815",
"G@	c #000814",
"H@	c #000714",
"I@	c #000917",
"                                                                    ",
"                                                                    ",
"                                                                    ",
"    . + @ # $ @ # % & *                                             ",
"    = - ; > , ' ) ! ~ { ] ^ / ^ ^ ( / ( ( _ ( ( _ ( ^ : ^ ( %       ",
"    < [ } | 1 | 2 3 4 5 6 6 7 8 9 9 0 a b c d e f g h i j k l m     ",
"    n o p q r r r r s t u v w x x y y y y z A B z C D E y F G H     ",
"    I J K K L M K N O P Q R S T T S U S T T V T T U W T T X Y Z     ",
"    `  ...+.@.#.#.@.$.%.&.*.=.-.;.;.;.;.;.;.;.;.;.;.;.;.;.;.>.,.'.  ",
"    ).!.~.{.].~.~.~.^./.(._.:.<.[.}.}.}.|.[.[.[.<.[.<.[.}.}.}.1.2.  ",
"  3.4.5.5.5.5.5.5.5.5.5.6.7.8.9.9.9.8.9.8.9.8.9.9.9.8.9.9.8.8.0.a.  ",
"  b.c.d.e.f.d.g.g.g.h.f.i.j.}.k.[.}.}.<.}.[.<.}.[.[.}.k.}.}.}.l.m.  ",
"  n.o.p.q.r.r.q.s.q.r.s.s.t.q.s.q.r.q.s.r.q.s.s.p.r.q.q.r.q.s.u.v.  ",
"  w.x.y.z.A.z.B.C.y.D.B.D.z.y.B.E.z.B.y.C.F.y.D.B.A.B.G.H.z.y.I.J.  ",
"  K.I.E.y.E.L.H.M.N.L.y.y.M.A.A.A.O.y.y.L.L.y.H.A.E.O.M.A.y.H.P.Q.  ",
"  n.R.M.L.S.T.U.L.O.L.V.M.W.M.W.S.X.O.S.X.V.L.O.W.X.W.L.X.U.U.Y.Z.  ",
"  `.R. +.+++@+#+$+%+ +++$+&+ +.+++@+@+*+@+.+++ +=+-+.+++@+-+*+;+>+  ",
"  ,+'+)+!+)+@+-+!+@+%+!+-+-+)+~+)+%+-+~+@+@+~+-+@+)+~+)+-+%+!+{+]+  ",
"  ,+^+/+(+_+:+/+<+[+}+_+|+}+1+2+|+3+_+_+4+1+_+[+5+1+2+/+_+_+3+6+7+  ",
"  8+g.9+9+0+a+a+b+0+9+9+c+(+9+9+0+a+a+b+0+d+b+b+|+/+d+d+0+a+b+e+f+  ",
"  g+h+i+j+k+l+i+m+n+o+i+i+o+i+l+k+j+i+m+p+k+o+o+j+o+m+k+j+j+m+q+r+  ",
"  ,+s+t+u+u+v+w+h+t+u+h+w+u+x+y+u+h+w+z+w+w+h+h+y+z+u+w+w+h+v+A+B+  ",
"  C+D+E+E+F+G+F+E+E+E+F+E+H+E+F+E+G+E+E+G+F+E+F+H+E+F+F+E+E+G+I+J+  ",
"  K+L+M+N+O+O+O+O+M+P+P+O+Q+Q+O+R+O+O+S+O+T+O+P+U+O+Q+N+P+O+O+V+W+  ",
"  X+Y+Z+`+`+`+ @.@`+.@+@@@#@Z++@#@`+ @`+.@.@`+Z+ @@@$@#@%@#@`+&@*@  ",
"  =@-@;@>@,@'@'@,@)@;@'@;@!@~@{@;@'@]@!@^@~@R.~@'@/@>@!@~@>@R.-@(@  ",
"  _@:@<@[@[@}@|@1@|@[@[@2@1@3@|@4@1@|@[@5@[@|@|@2@3@[@[@6@[@6@7@8@  ",
"  9@0@a@b@c@d@e@f@g@b@h@g@i@j@g@c@k@f@l@g@b@f@g@i@c@g@c@k@b@e@m@n@  ",
"  o@p@q@r@r@s@t@r@u@v@t@u@v@v@w@v@s@v@r@r@t@t@v@w@v@w@r@x@y@z@A@B@  ",
"                C@D@E@E@F@F@F@F@G@H@F@F@F@E@D@E@D@I@                ",
"                                                                    ",
"                                                                    ",
"                                                                    ",
"                                                                    "};
