/* XPM */
static const char * listS_xpm[] = {
"16 16 25 1",
" 	c None",
".	c #60606F",
"+	c #60606E",
"@	c #5F5F6D",
"#	c #5D5D6A",
"$	c #636473",
"%	c #C1DAFC",
"&	c #C2DBFE",
"*	c #61616F",
"=	c #C0D9FC",
"-	c #BED7F8",
";	c #C0D9FB",
">	c #60606D",
",	c #C2DCFE",
"'	c #C4DEFF",
")	c #5B5A67",
"!	c #5F5E6C",
"~	c #C5E0FF",
"{	c #5D5C69",
"]	c #C2DCFF",
"^	c #5D5C6A",
"/	c #5E5E6C",
"(	c #626371",
"_	c #5E5D6B",
":	c #605F6D",
" .+++++++++++++ ",
"++++++@+++++++++",
"++++++++++++#+++",
"++++@+$+%+&+++++",
"++++*++=-=;=++++",
"+++>++,'=)=,=+++",
"++++!++~+@+,++++",
"++++{+,],+,,,+^+",
"+++++++==,,=@/++",
"+@+++,++]+,+++++",
"+@++,,,+++($++++",
"+/+,,),,+_++++++",
"+_++,,,+/+++++++",
"++#++,++!+++++++",
"+++++++{++++++++",
" ++++:>++++++++ "};
