/* XPM */
static const char * midi_init_instr_xpm[] = {
"16 16 117 2",
"  	c None",
". 	c #AEC6E3",
"+ 	c #C8D0DB",
"@ 	c #D3D5D7",
"# 	c #D2D4D6",
"$ 	c #C4CDD8",
"% 	c #AAC1DF",
"& 	c #A8C3E6",
"* 	c #D2D7DD",
"= 	c #E8ECF1",
"- 	c #F3F6FA",
"; 	c #FBFDFE",
"> 	c #F2F5F9",
", 	c #E5E9EE",
"' 	c #C7CDD4",
") 	c #9FBADD",
"! 	c #D4D8DE",
"~ 	c #F7F8FB",
"{ 	c #FFFFFF",
"] 	c #F6F9FC",
"^ 	c #EEF3FA",
"/ 	c #EDF3FA",
"( 	c #F4F8FC",
"_ 	c #F3F6F9",
": 	c #C4CAD1",
"< 	c #9CB7DA",
"[ 	c #EBF1F9",
"} 	c #87ADDD",
"| 	c #E8EFF9",
"1 	c #86ACDD",
"2 	c #E5EEF8",
"3 	c #BABFC7",
"4 	c #AEC5E2",
"5 	c #E6EFF8",
"6 	c #598CCD",
"7 	c #E1EBF7",
"8 	c #76A2D9",
"9 	c #385A83",
"0 	c #6C9AD6",
"a 	c #E3ECF7",
"b 	c #D8DFE7",
"c 	c #94ABC8",
"d 	c #C7CFDA",
"e 	c #E4EDF7",
"f 	c #5B8FD1",
"g 	c #CBDBF1",
"h 	c #507EB9",
"i 	c #4D7AB3",
"j 	c #F1F5FB",
"k 	c #EAEFF6",
"l 	c #A0A9B4",
"m 	c #D1D3D5",
"n 	c #ECF2FA",
"o 	c #5A8ED0",
"p 	c #84ACDD",
"q 	c #36557D",
"r 	c #7BA5DA",
"s 	c #DFE9F6",
"t 	c #F9FBFD",
"u 	c #A5A7A9",
"v 	c #D0D2D4",
"w 	c #73A0D8",
"x 	c #375780",
"y 	c #DBE6F5",
"z 	c #5281BE",
"A 	c #DDE8F6",
"B 	c #F1F5FA",
"C 	c #A0A2A4",
"D 	c #C2CBD6",
"E 	c #EFF3F8",
"F 	c #F2F6FB",
"G 	c #C9DAF0",
"H 	c #4F7DB8",
"I 	c #CCDCF1",
"J 	c #4C79B1",
"K 	c #D8E5F4",
"L 	c #DCE7F5",
"M 	c #DBE4EF",
"N 	c #949CA7",
"O 	c #A7BEDC",
"P 	c #E1E5EC",
"Q 	c #FEFEFF",
"R 	c #E0EAF6",
"S 	c #406594",
"T 	c #7AA4DA",
"U 	c #5586C5",
"V 	c #DAE5F5",
"W 	c #FAFCFE",
"X 	c #BFC9D6",
"Y 	c #8198B6",
"Z 	c #BEC3CA",
"` 	c #EDF1F7",
" .	c #729FD8",
"..	c #A3C0E5",
"+.	c #DCE4EF",
"@.	c #929AA3",
"#.	c #94B0D2",
"$.	c #B3BBC3",
"%.	c #E8EEF4",
"&.	c #EFF4FB",
"*.	c #DBE4EE",
"=.	c #919CA8",
"-.	c #7994B7",
";.	c #8CA7CA",
">.	c #A3ABB3",
",.	c #C8D1DC",
"'.	c #E1E8F1",
").	c #D6E0ED",
"!.	c #B8C3D2",
"~.	c #8C949F",
"{.	c #7792B5",
"].	c #839BB8",
"^.	c #8E97A2",
"/.	c #949698",
"(.	c #909295",
"_.	c #88919C",
":.	c #7991AE",
"                                ",
"          . + @ # $ %           ",
"      & * = - ; ; > , ' )       ",
"    & ! ~ { ] ^ / ( { _ : <     ",
"    * ~ { [ } | | 1 2 { _ 3     ",
"  4 = { [ 5 6 7 8 9 0 a { b c   ",
"  d - ( | e f g h g i 7 j k l   ",
"  m ; n | 7 o 7 p q r s a t u   ",
"  v ; [ s w x 0 y z A A 7 B C   ",
"  D E F G H I J K z A L ^ M N   ",
"  O P Q R 1 S T y U y V W X Y   ",
"    Z ` { A  .L y ..K Q +.@.    ",
"    #.$.%.Q &.7 R / W *.=.-.    ",
"      ;.>.,.'.F ^ ).!.~.{.      ",
"          ].^./.(._.:.          ",
"                                "};
