/* XPM */
static const char * midi_thru_on3_xpm[] = {
"18 18 153 2",
"  	c None",
". 	c #818191",
"+ 	c #808090",
"@ 	c #7E7D8D",
"# 	c #7C7B8A",
"$ 	c #7E7E8E",
"% 	c #7F7F8F",
"& 	c #808091",
"* 	c #808191",
"= 	c #787583",
"- 	c #99A3BA",
"; 	c #C0DBFC",
"> 	c #BCD4F4",
", 	c #BFD9FA",
"' 	c #888C9E",
") 	c #7B7988",
"! 	c #A0ADC5",
"~ 	c #A9BAD5",
"{ 	c #9199AE",
"] 	c #939AB0",
"^ 	c #8E95A9",
"/ 	c #8F95AA",
"( 	c #949CB1",
"_ 	c #929AAF",
": 	c #B2C6E4",
"< 	c #7A7886",
"[ 	c #797684",
"} 	c #A8B9D4",
"| 	c #8C92A5",
"1 	c #777482",
"2 	c #848798",
"3 	c #A6B6D1",
"4 	c #A2B1CA",
"5 	c #7D7C8B",
"6 	c #797786",
"7 	c #959EB4",
"8 	c #ACBEDA",
"9 	c #7A7786",
"0 	c #7F7E8E",
"a 	c #99A4BB",
"b 	c #A9BAD6",
"c 	c #8A8EA1",
"d 	c #75717F",
"e 	c #9097AB",
"f 	c #CFF0FF",
"g 	c #C8E5FF",
"h 	c #818293",
"i 	c #74707D",
"j 	c #97A1B8",
"k 	c #A8B8D3",
"l 	c #9299AE",
"m 	c #7E7D8C",
"n 	c #9096AB",
"o 	c #878A9C",
"p 	c #8C91A5",
"q 	c #878A9D",
"r 	c #AEC1DE",
"s 	c #AABBD6",
"t 	c #939BB0",
"u 	c #98A3B9",
"v 	c #A7B7D1",
"w 	c #AFC3E0",
"x 	c #7B7987",
"y 	c #8E94A8",
"z 	c #D2F3FF",
"A 	c #B0C3E0",
"B 	c #787685",
"C 	c #7B7985",
"D 	c #B2984A",
"E 	c #7D7D8C",
"F 	c #C1DBFD",
"G 	c #D0F0FF",
"H 	c #929AB0",
"I 	c #A3B2CC",
"J 	c #807F8F",
"K 	c #8F96AA",
"L 	c #9FABC4",
"M 	c #A6B5D0",
"N 	c #7C7A85",
"O 	c #D0AA2B",
"P 	c #F2BD03",
"Q 	c #D6AD22",
"R 	c #A3AFC3",
"S 	c #8E93A7",
"T 	c #A4B3CD",
"U 	c #7C7A89",
"V 	c #818091",
"W 	c #7F7F90",
"X 	c #D1AA29",
"Y 	c #EFBB06",
"Z 	c #F5BE00",
"` 	c #F0BB05",
" .	c #D5AC22",
"..	c #7A7887",
"+.	c #A7B8D3",
"@.	c #8F95A9",
"#.	c #A3B1CB",
"$.	c #B1C4D6",
"%.	c #DBB235",
"&.	c #EFB606",
"*.	c #F0BC06",
"=.	c #DCB62E",
"-.	c #A4B3CC",
";.	c #7F7E8D",
">.	c #8D92A6",
",.	c #A5B4CE",
"'.	c #E1B743",
").	c #F5B100",
"!.	c #F5B500",
"~.	c #F5B800",
"{.	c #F4BE00",
"].	c #F5BE01",
"^.	c #D3AF32",
"/.	c #A4B2CC",
"(.	c #B1C5E2",
"_.	c #9EAAC2",
":.	c #888C9F",
"<.	c #898D9F",
"[.	c #7E7E8D",
"}.	c #F5B400",
"|.	c #F5BA00",
"1.	c #86899B",
"2.	c #ACBED9",
"3.	c #858798",
"4.	c #AABCD8",
"5.	c #959FB5",
"6.	c #F5AF00",
"7.	c #F5B600",
"8.	c #75707E",
"9.	c #888B9D",
"0.	c #797785",
"a.	c #A7B7D2",
"b.	c #F5AB00",
"c.	c #878B9D",
"d.	c #F59000",
"e.	c #F59300",
"f.	c #F59700",
"g.	c #F59A00",
"h.	c #F59D00",
"i.	c #F5BB00",
"j.	c #F5A400",
"k.	c #F5A200",
"l.	c #F5A700",
"m.	c #F5B000",
"n.	c #F59F00",
"o.	c #7F7F8E",
"p.	c #828292",
"q.	c #F58700",
"r.	c #F58A00",
"s.	c #F58E00",
"t.	c #F59100",
"u.	c #F59400",
"v.	c #F49600",
"  . + + + + + + + + + + + + + + .   ",
"+ + + + + @ # # # # # # $ % + + & . ",
"+ + + * = - ; > > > > , ' ) + + & . ",
"+ + & = ! ~ { ] ^ / ( _ : ^ < * & . ",
"+ + [ ! } | 1 2 3 4 5 6 7 8 _ 9 . . ",
"+ 0 a b c d 6 e f g h ) i j k l m + ",
"+ 5 ; n o - p q r s + t u @ v w x 0 ",
"+ 5 > y k z A B C D E F G H I 8 ) J ",
"+ 5 > K L F M N O P Q R , S T 8 U V ",
"+ 5 > ( # + W X Y Z `  .+ ..+.8 ) 0 ",
"+ 5 > @.#.$.%.&.Z Z Z *.=.n -.8 ) ;.",
"+ 5 , >.,.'.).!.~.Z Z {.].^./.r ) + ",
"+ J ' (._.:.<.[.}.Z |.p 1.2.,.3.J . ",
"+ + ) @.4.5.i ..6.Z 7.8.-./.9.U . . ",
"+ + W 0.l a.k k b.Z ).k M c.) + . . ",
"+ + % + d.e.f.g.h.i.j.r 3.U + + & . ",
"+ . + + k.l.b.m.!.|.n.) o.+ + + & + ",
"  p.+ + q.r.s.t.u.v.g.+ + + + + .   "};
