/* XPM */
static const char * midi_inputplugins_xpm[] = {
"16 16 115 2",
"  	c None",
". 	c #81A7D9",
"+ 	c #769ED3",
"@ 	c #A1BEEC",
"# 	c #9DBBE7",
"$ 	c #97B6E4",
"% 	c #92B2E0",
"& 	c #8FAEDA",
"* 	c #98B5DC",
"= 	c #7A9FCF",
"- 	c #5786C3",
"; 	c #A4C0E8",
"> 	c #B0C8E9",
", 	c #A9C3E5",
"' 	c #A2BDE1",
") 	c #99B6DC",
"! 	c #8AABD5",
"~ 	c #82A4D0",
"{ 	c #4476B5",
"] 	c #8FB1E2",
"^ 	c #A8C1E7",
"/ 	c #9FBAE0",
"( 	c #8BACD8",
"_ 	c #82A5D2",
": 	c #779DCE",
"< 	c #84A6D1",
"[ 	c #5C86BE",
"} 	c #88ABD9",
"| 	c #94B2DA",
"1 	c #92B0D8",
"2 	c #7299CB",
"3 	c #6890C4",
"4 	c #789CC8",
"5 	c #4A72B2",
"6 	c #9E9E9E",
"7 	c #999999",
"8 	c #6F97C9",
"9 	c #7C9FCB",
"0 	c #5985BC",
"a 	c #6B92C3",
"b 	c #3E63A6",
"c 	c #9FBEEA",
"d 	c #9AAFCE",
"e 	c #B7B7B7",
"f 	c #BCBCBC",
"g 	c #8C8C8C",
"h 	c #406DAE",
"i 	c #5C83BB",
"j 	c #678FC0",
"k 	c #608ABB",
"l 	c #335099",
"m 	c #9CBBE7",
"n 	c #A3C0E8",
"o 	c #A3BFE5",
"p 	c #8A9DB5",
"q 	c #AEAEAE",
"r 	c #838383",
"s 	c #34579F",
"t 	c #4C72AD",
"u 	c #3F5FA2",
"v 	c #29418E",
"w 	c #93B4E3",
"x 	c #ADC6E8",
"y 	c #A6C0E3",
"z 	c #8FB0DB",
"A 	c #718DB4",
"B 	c #717171",
"C 	c #676767",
"D 	c #2B438F",
"E 	c #28418B",
"F 	c #8CAEDD",
"G 	c #A4BEE2",
"H 	c #89ABD8",
"I 	c #94B3D9",
"J 	c #5878A3",
"K 	c #939393",
"L 	c #A9A9A9",
"M 	c #555555",
"N 	c #82A6D7",
"O 	c #7DA1D0",
"P 	c #739ACB",
"Q 	c #82A4CF",
"R 	c #7499C7",
"S 	c #586C89",
"T 	c #878787",
"U 	c #4E4E4E",
"V 	c #7CA1D0",
"W 	c #8FAED7",
"X 	c #668FC3",
"Y 	c #5C88BD",
"Z 	c #648CC0",
"` 	c #6188BC",
" .	c #3C5183",
"..	c #608CC6",
"+.	c #83A6D1",
"@.	c #7B9FCC",
"#.	c #7B9ECB",
"$.	c #6C92C3",
"%.	c #658DBE",
"&.	c #4569A8",
"*.	c #5A88C4",
"=.	c #6892C6",
"-.	c #80A2CD",
";.	c #7096C5",
">.	c #537BB6",
",.	c #466AAB",
"'.	c #3D5EA3",
").	c #35529C",
"!.	c #2C4491",
"~.	c #4A7CBA",
"{.	c #5C87BF",
"].	c #567EB9",
"^.	c #3A62A7",
"/.	c #3C66AB",
"(.	c #385DA4",
"                          . +   ",
"                @ # $ % & * = - ",
"                ; > , ' ) ! ~ { ",
"              ] ^ / ( _ : < [   ",
"              . } | 1 2 3 4 5   ",
"          6 7     - 8 9 0 a b   ",
"      c d e f g     h i j k l   ",
"    m n o p q r       s t u v   ",
"    w x y z A   B C     D E     ",
"    F G H I = J K L M           ",
"    N ) O P Q R S T U           ",
"    V W 8 X Y Z `  .            ",
"  ..+.@.#.R $.%.&.              ",
"*.=.-.;.>.,.'.).!.              ",
"~.{.].^.                        ",
"  /.(.                          "};
