/* XPM */
static const char * midi_local_off_xpm[] = {
"16 16 118 2",
"  	c None",
". 	c #AEC6E3",
"+ 	c #C8D0DB",
"@ 	c #D3D5D7",
"# 	c #D2D4D6",
"$ 	c #C4CDD8",
"% 	c #AAC1DF",
"& 	c #A8C3E6",
"* 	c #D2D7DD",
"= 	c #E8ECF1",
"- 	c #F3F6FA",
"; 	c #FBFDFE",
"> 	c #F2F5F9",
", 	c #E5E9EE",
"' 	c #C7CDD4",
") 	c #9FBADD",
"! 	c #D4D8DE",
"~ 	c #F7F8FB",
"{ 	c #FFFFFF",
"] 	c #F6F9FC",
"^ 	c #638FC6",
"/ 	c #F4F8FC",
"( 	c #F3F6F9",
"_ 	c #C4CAD1",
": 	c #9CB7DA",
"< 	c #FDFEFE",
"[ 	c #C3D4EA",
"} 	c #E9F0F9",
"| 	c #5283C0",
"1 	c #E8EFF9",
"2 	c #BED2E9",
"3 	c #BABFC7",
"4 	c #AEC5E2",
"5 	c #A1BCDE",
"6 	c #B6CBE5",
"7 	c #D8DFE7",
"8 	c #94ABC8",
"9 	c #C7CFDA",
"0 	c #EDF3F9",
"a 	c #5786C2",
"b 	c #789ECE",
"c 	c #628FC6",
"d 	c #E5EEF8",
"e 	c #6A94C9",
"f 	c #F1F5FB",
"g 	c #EAEFF6",
"h 	c #A0A9B4",
"i 	c #D1D3D5",
"j 	c #C4D5EB",
"k 	c #B7CDE7",
"l 	c #E3ECF7",
"m 	c #A5BFE0",
"n 	c #D1DFF0",
"o 	c #F9FBFD",
"p 	c #A5A7A9",
"q 	c #D0D2D4",
"r 	c #C0D2E9",
"s 	c #B6CBE6",
"t 	c #E1EBF7",
"u 	c #A4BEDF",
"v 	c #CBDBEF",
"w 	c #F1F5FA",
"x 	c #A0A2A4",
"y 	c #C2CBD6",
"z 	c #EFF3F8",
"A 	c #EBF1F8",
"B 	c #769DCE",
"C 	c #E1EBF6",
"D 	c #E0EAF6",
"E 	c #DFE9F6",
"F 	c #DAE6F4",
"G 	c #6993C9",
"H 	c #EEF3FA",
"I 	c #DBE4EF",
"J 	c #949CA7",
"K 	c #A7BEDC",
"L 	c #E1E5EC",
"M 	c #FEFEFF",
"N 	c #9CB9DC",
"O 	c #719ACC",
"P 	c #A0BCDE",
"Q 	c #6893C8",
"R 	c #B2C8E5",
"S 	c #FAFCFE",
"T 	c #BFC9D6",
"U 	c #8198B6",
"V 	c #BEC3CA",
"W 	c #EDF1F7",
"X 	c #9AB7DC",
"Y 	c #5686C2",
"Z 	c #5B89C3",
"` 	c #DCE4EF",
" .	c #929AA3",
"..	c #94B0D2",
"+.	c #B3BBC3",
"@.	c #E8EEF4",
"#.	c #E8EFF8",
"$.	c #BED1E9",
"%.	c #BDD1E9",
"&.	c #E9F0F8",
"*.	c #DBE4EE",
"=.	c #919CA8",
"-.	c #7994B7",
";.	c #8CA7CA",
">.	c #A3ABB3",
",.	c #C8D1DC",
"'.	c #E1E8F1",
").	c #F2F6FB",
"!.	c #D6E0ED",
"~.	c #B8C3D2",
"{.	c #8C949F",
"].	c #7792B5",
"^.	c #839BB8",
"/.	c #8E97A2",
"(.	c #949698",
"_.	c #909295",
":.	c #88919C",
"<.	c #7991AE",
"                                ",
"          . + @ # $ %           ",
"      & * = - ; ; > , ' )       ",
"    & ! ~ { ] ^ ^ / { ( _ :     ",
"    * ~ < [ } | | 1 2 { ( 3     ",
"  4 = { 5 | 1 | | 1 | 6 { 7 8   ",
"  9 - 0 a b 1 c c d e ^ f g h   ",
"  i ; j | k d l l l m | n o p   ",
"  q ; r | s l l t l u | v w x   ",
"  y z A a B C D E F G ^ H I J   ",
"  K L M N | O m P Q | R S T U   ",
"    V W < X Y | | Z m S `  .    ",
"    ..+.@.M #.$.%.&.S *.=.-.    ",
"      ;.>.,.'.).H !.~.{.].      ",
"          ^./.(._.:.<.          ",
"                                "};
