/* XPM */
static const char * midi_reset_instr_xpm[] = {
"16 16 88 1",
" 	c None",
".	c #4F9947",
"+	c #499141",
"@	c #65B45B",
"#	c #5FAD56",
"$	c #5AA650",
"%	c #539E4B",
"&	c #4D9645",
"*	c #68A860",
"=	c #62A25B",
"-	c #3A7E34",
";	c #68B95E",
">	c #83C379",
",	c #92CA89",
"'	c #9CD094",
")	c #9ED195",
"!	c #99CF90",
"~	c #94CB8C",
"{	c #8FC987",
"]	c #87C480",
"^	c #54954E",
"/	c #2C6D27",
"(	c #67B65C",
"_	c #8EC985",
":	c #A4D49B",
"<	c #98CE8F",
"[	c #9ACF92",
"}	c #95CC8D",
"|	c #90CA88",
"1	c #8BC683",
"2	c #85C47E",
"3	c #7FC179",
"4	c #4C8D47",
"5	c #256522",
"6	c #7EBF75",
"7	c #A1D298",
"8	c #9CCF94",
"9	c #8DC786",
"0	c #65A75E",
"a	c #408639",
"b	c #33762E",
"c	c #4F9049",
"d	c #4A8B45",
"e	c #246320",
"f	c #5EAB54",
"g	c #89C380",
"h	c #8AC483",
"i	c #448B3D",
"j	c #3E8337",
"k	c #276623",
"l	c #23611F",
"m	c #55A14D",
"n	c #42883B",
"o	c #3C8035",
"p	c #6EC063",
"q	c #6ABB5F",
"r	c #8EC686",
"s	c #8FC988",
"t	c #76B36F",
"u	c #6DBE62",
"v	c #85C77B",
"w	c #81C277",
"x	c #57A34E",
"y	c #519B49",
"z	c #6BAC63",
"A	c #8BC383",
"B	c #89C682",
"C	c #569750",
"D	c #6CBC60",
"E	c #83C479",
"F	c #A7D79E",
"G	c #9FD297",
"H	c #82C27A",
"I	c #63A45D",
"J	c #2A6B26",
"K	c #7CBD73",
"L	c #9FD196",
"M	c #96CD8F",
"N	c #91CA8A",
"O	c #8BC785",
"P	c #81BE7A",
"Q	c #6CAD65",
"R	c #51924B",
"S	c #296824",
"T	c #6EB066",
"U	c #68AA61",
"V	c #377B32",
"W	c #32742C",
"                ",
"         .+     ",
"    @#$%&*=-    ",
"  ;>,')!~{]^/   ",
" (_:<[}|12345   ",
" 67890a-bcde    ",
"fg}hij   kl     ",
"m.+no           ",
"           m.+no",
"     pq   %&rstb",
"    uvwfxyzA{BC ",
"   DEF:G[}|H2IJ ",
"   @KL8MNOPQRS  ",
"    xTUijVW/    ",
"     +n         ",
"                "};
