/* XPM */
static const char * midi_edit_instrument_xpm[] = {
"16 16 194 2",
"  	c None",
". 	c #4D8BC8",
"+ 	c #4F8CC8",
"@ 	c #4F8DC8",
"# 	c #4F8CC9",
"$ 	c #4F8BC7",
"% 	c #4B89C5",
"& 	c #3B76C4",
"* 	c #4985C4",
"= 	c #ECF2F7",
"- 	c #EEF4F8",
"; 	c #EDF4F8",
"> 	c #EDF3F8",
", 	c #ECF2F8",
"' 	c #D7E6F2",
") 	c #7DB2E2",
"! 	c #6594DB",
"~ 	c #4B88C5",
"{ 	c #F2F6FA",
"] 	c #C7E0FA",
"^ 	c #C9E1FB",
"/ 	c #C9E2FB",
"( 	c #C8E0FB",
"_ 	c #C5DFF9",
": 	c #C1DBF8",
"< 	c #B8D6F4",
"[ 	c #F8FBFF",
"} 	c #C2CBB6",
"| 	c #D8A558",
"1 	c #DBB185",
"2 	c #D09D46",
"3 	c #4C89C6",
"4 	c #F1F5F9",
"5 	c #CDE3FC",
"6 	c #CEE3FB",
"7 	c #CDE3FB",
"8 	c #CBE2FB",
"9 	c #C8E0F9",
"0 	c #C2DCF8",
"a 	c #BAD6F5",
"b 	c #F1E3AF",
"c 	c #E7BE77",
"d 	c #F0D2B4",
"e 	c #FFF3E5",
"f 	c #EFD2AC",
"g 	c #C78C48",
"h 	c #4B89C6",
"i 	c #CFE3FC",
"j 	c #D0E4FB",
"k 	c #CFE4FC",
"l 	c #CAE1FA",
"m 	c #C4DDF9",
"n 	c #C9CDAF",
"o 	c #EED581",
"p 	c #F9E3B2",
"q 	c #E7C08B",
"r 	c #F6D3AE",
"s 	c #FCE0C4",
"t 	c #D39F66",
"u 	c #F0F4F9",
"v 	c #D3E6FC",
"w 	c #D4E6FC",
"x 	c #D3E7FD",
"y 	c #D1E4FC",
"z 	c #D0D4BE",
"A 	c #EED47D",
"B 	c #FDF6C4",
"C 	c #F6DD6C",
"D 	c #EDCA6D",
"E 	c #D7A363",
"F 	c #C89964",
"G 	c #4A88C6",
"H 	c #EFF4F9",
"I 	c #D7E7FE",
"J 	c #D6E7FD",
"K 	c #D5E7FD",
"L 	c #D4E6FD",
"M 	c #D5D6BD",
"N 	c #EED379",
"O 	c #FDF7C7",
"P 	c #F5DC5F",
"Q 	c #F7E25B",
"R 	c #F2D67A",
"S 	c #E0A151",
"T 	c #6085AD",
"U 	c #4988C6",
"V 	c #EDF4F9",
"W 	c #D8E8FE",
"X 	c #D7E8FE",
"Y 	c #CCC6B0",
"Z 	c #E7CB77",
"` 	c #F5DC5E",
" .	c #F7E15A",
"..	c #F1D47B",
"+.	c #DB994B",
"@.	c #E9DFD2",
"#.	c #4582C6",
"$.	c #4784C6",
"%.	c #ECF3F9",
"&.	c #D6E8FE",
"*.	c #CCC6B3",
"=.	c #D6B976",
"-.	c #FDF6C2",
";.	c #F7DF63",
">.	c #F8E25D",
",.	c #F0D379",
"'.	c #DA9849",
").	c #C8D5E2",
"!.	c #EAF2FA",
"~.	c #4280C6",
"{.	c #4582C5",
"].	c #EBF2F8",
"^.	c #D6E7FE",
"/.	c #BFB6A6",
"(.	c #D5B67A",
"_.	c #D1B790",
":.	c #E4C955",
"<.	c #F5DF5B",
"[.	c #EDD078",
"}.	c #D99B51",
"|.	c #CDD6E1",
"1.	c #F2F7FB",
"2.	c #3F7CC5",
"3.	c #4280C5",
"4.	c #E8F1F8",
"5.	c #D5E5FE",
"6.	c #AA8943",
"7.	c #FFF2E0",
"8.	c #D89A54",
"9.	c #BE7A1A",
"0.	c #C59849",
"a.	c #C28C48",
"b.	c #CDD2DA",
"c.	c #C9E0FB",
"d.	c #C8E1FB",
"e.	c #F7FAFD",
"f.	c #3B76C1",
"g.	c #407CC4",
"h.	c #E6F0F7",
"i.	c #55B4F8",
"j.	c #82662E",
"k.	c #F9C794",
"l.	c #F9C991",
"m.	c #C98541",
"n.	c #A66826",
"o.	c #65A8D2",
"p.	c #51B2F7",
"q.	c #4FB2F7",
"r.	c #F5F9FC",
"s.	c #366FBF",
"t.	c #3C78C1",
"u.	c #E3EDF7",
"v.	c #6EC2FD",
"w.	c #574218",
"x.	c #87612B",
"y.	c #BC894C",
"z.	c #B39F70",
"A.	c #9AC9E3",
"B.	c #95D6FF",
"C.	c #94D5FF",
"D.	c #93D4FF",
"E.	c #65BEFB",
"F.	c #F4F7FB",
"G.	c #3167BB",
"H.	c #3871BF",
"I.	c #DFEBF5",
"J.	c #68BFFD",
"K.	c #67BDFC",
"L.	c #64BEFC",
"M.	c #62BDFC",
"N.	c #63BDFB",
"O.	c #61BCFB",
"P.	c #60BEFC",
"Q.	c #62BCFC",
"R.	c #F8FBFD",
"S.	c #2D64B9",
"T.	c #3369BC",
"U.	c #EAF1F8",
"V.	c #DFECF7",
"W.	c #DEEBF6",
"X.	c #DEEAF6",
"Y.	c #DCEAF6",
"Z.	c #EBF3FA",
"`.	c #F3F7FC",
" +	c #F4F8FC",
".+	c #FDFEFE",
"++	c #2A60B7",
"@+	c #3065BA",
"#+	c #3166BB",
"$+	c #3066BA",
"%+	c #2F65BA",
"&+	c #2E65B9",
"*+	c #2E64B9",
"=+	c #2C62B7",
"    . + + + + @ # $ % &         ",
"  * = - ; > > > , = ' ) !       ",
"  ~ { ] ^ / ( _ : < [ } | 1 2   ",
"  3 4 5 6 7 8 9 0 a b c d e f g ",
"  h 4 i j k 5 l m n o p q r s t ",
"  h u v w x y 7 z A B C D E F   ",
"  G H I J K L M N O P Q R S T   ",
"  U V W W X Y Z O `  ...+.@.#.  ",
"  $.%.&.X *.=.-.;.>.,.'.).!.~.  ",
"  {.].^./.(._.:.<.[.}.|.^ 1.2.  ",
"  3.4.5.6.7.8.9.0.a.b.c.d.e.f.  ",
"  g.h.i.j.k.l.m.n.o.p.q.q.r.s.  ",
"  t.u.v.w.x.y.z.A.B.C.D.E.F.G.  ",
"  H.I.J.K.E.L.L.M.N.O.P.Q.R.S.  ",
"  T.U.V.W.X.Y.Y.Z.Z.!.`. +.+++  ",
"    @+#+$+$+$+@+%+&+&+*+*+=+    "};
