/* XPM */
static const char * midi_thru_off3_xpm[] = {
"18 18 123 2",
"  	c None",
". 	c #818191",
"+ 	c #808091",
"@ 	c #808090",
"# 	c #7D7C8C",
"$ 	c #7B7988",
"% 	c #7F7F8E",
"& 	c #7F7F8F",
"* 	c #808191",
"= 	c #797684",
"- 	c #959EB3",
"; 	c #BBD3F3",
"> 	c #B7CDEC",
", 	c #B8CFEF",
"' 	c #7D7C8B",
") 	c #9AA4BB",
"! 	c #A9BAD6",
"~ 	c #97A1B8",
"{ 	c #98A1B8",
"] 	c #939CB1",
"^ 	c #949DB2",
"/ 	c #99A3BA",
"( 	c #98A2B9",
"_ 	c #B1C5E2",
": 	c #848697",
"< 	c #7D7B8A",
"[ 	c #797785",
"} 	c #9AA5BC",
"| 	c #AABBD6",
"1 	c #8F96AA",
"2 	c #777481",
"3 	c #848698",
"4 	c #A3B2CC",
"5 	c #9DAAC2",
"6 	c #7A7887",
"7 	c #9DA9C0",
"8 	c #ABBDD9",
"9 	c #888B9D",
"0 	c #7C7B8A",
"a 	c #7E7D8D",
"b 	c #969EB4",
"c 	c #8D93A7",
"d 	c #75717E",
"e 	c #7A7786",
"f 	c #9299AE",
"g 	c #D0F1FF",
"h 	c #C5E1FF",
"i 	c #7B7A89",
"j 	c #74707D",
"k 	c #A0AEC7",
"l 	c #A4B3CD",
"m 	c #8B8FA2",
"n 	c #807F8F",
"o 	c #7C7A89",
"p 	c #BBD4F4",
"q 	c #959EB4",
"r 	c #858899",
"s 	c #99A4BB",
"t 	c #8C91A5",
"u 	c #888C9E",
"v 	c #AFC2DF",
"w 	c #A8B8D3",
"x 	c #7A7886",
"y 	c #B6CCEB",
"z 	c #9EABC3",
"A 	c #7C7988",
"B 	c #7F7E8E",
"C 	c #D2F3FF",
"D 	c #B0C4E1",
"E 	c #787684",
"F 	c #C6E3FF",
"G 	c #CDEDFF",
"H 	c #888B9E",
"I 	c #B2C7E4",
"J 	c #9CA8BF",
"K 	c #959DB3",
"L 	c #BED7F8",
"M 	c #A4B3CC",
"N 	c #B5CBE9",
"O 	c #BAD2F2",
"P 	c #858798",
"Q 	c #B3C7E5",
"R 	c #9CA7BF",
"S 	c #7C7B8B",
"T 	c #818293",
"U 	c #818292",
"V 	c #B4CAE8",
"W 	c #949CB2",
"X 	c #A1AEC7",
"Y 	c #CBEAFF",
"Z 	c #ACBEDA",
"` 	c #C1DBFD",
" .	c #C7E4FF",
"..	c #878A9C",
"+.	c #B2C7E5",
"@.	c #7C7A88",
"#.	c #7F7E8D",
"$.	c #B8D0EF",
"%.	c #939BB1",
"&.	c #CCECFF",
"*.	c #ACBFDB",
"=.	c #C2DCFE",
"-.	c #C8E6FF",
";.	c #B3C8E6",
">.	c #80808F",
",.	c #848597",
"'.	c #86889A",
").	c #7F7F90",
"!.	c #B8CFEE",
"~.	c #AABCD7",
"{.	c #9FADC5",
"].	c #7A7987",
"^.	c #787482",
"/.	c #97A0B7",
"(.	c #7E7E8E",
"_.	c #7C7A8A",
":.	c #B7CDED",
"<.	c #B5CAE8",
"[.	c #B5CAE9",
"}.	c #B5CBEA",
"|.	c #7D7D8D",
"1.	c #8A8FA1",
"2.	c #7E7E8D",
"  . + @ @ @ @ @ @ @ @ @ @ @ @ @     ",
"@ @ @ @ @ # $ $ $ $ $ $ % & @ @ @   ",
"+ @ @ * = - ; > > > > , @ ' @ @ @ @ ",
"@ @ + = ) ! ~ { ] ^ / ( _ : < @ @ @ ",
"@ + [ } | 1 2 3 4 5 $ 6 7 8 9 0 * @ ",
"@ a b | c d e f g h a i j k l m a n ",
"@ o p q r s t u v w & q { x y z A B ",
"@ o > ] l C D E x 6 * F G H I J o & ",
"@ o > K } L M $ & % @ N O P Q R 0 @ ",
"@ o > / S T * & & & & U T $ V J o B ",
"@ o > W X Y Z 6 & B + `  ...+.J @.#.",
"@ o $.%.k &.*.6 & B + =.-.r ;.7 0 @ ",
"@ >.+ D k + ,.B & & & '.).!.( & @ @ ",
"@ @ # : ~.{.d $ ].].].^.N /.+ (.@ @ ",
"@ @ & _...l :.<.<.<.[.}.( + |.@ @ @ ",
"+ @ @ @ o 1.z R R R R 7 & (.@ @ @ @ ",
"  . @ @ @ 2.o 0 0 0 0 0 >.@ @ @ +   ",
"    . @ @ @ @ @ @ @ @ @ @ @ @ @     "};
