/* XPM */
static const char * mixeraudioS_xpm[] = {
"16 16 4 1",
" 	c None",
".	c #FF00FF",
"+	c #FFFFFF",
"@	c #000000",
"................",
"................",
"..++++++++++++..",
"..+@++@++@++@+..",
"..@@@+@+@@@+@+..",
"..@@@+@+@@@+@+..",
"..+@++@++@++@+..",
"..+@++@++@+@@@..",
"..+@++@++@+@@@..",
"..+@++@++@++@+..",
"..+@+@@@+@++@+..",
"..+@+@@@+@++@+..",
"..++++++++++++..",
"..++++++++++++..",
"................",
"................"};
