/* XPM */
static const char * oom_icon_xpm[] = {
"32 32 311 2",
"  	c None",
". 	c #BAA451",
"+ 	c #B09B34",
"@ 	c #AE9931",
"# 	c #AF9B2D",
"$ 	c #B09B2B",
"% 	c #B09C29",
"& 	c #AD9A29",
"* 	c #AB9527",
"= 	c #A38C21",
"- 	c #BBA753",
"; 	c #AF9930",
"> 	c #AB9327",
", 	c #A68B2E",
"' 	c #9E8033",
") 	c #916C3F",
"! 	c #8C604B",
"~ 	c #8C5F4C",
"{ 	c #926A41",
"] 	c #9B7C31",
"^ 	c #A48829",
"/ 	c #A68E25",
"( 	c #A59025",
"_ 	c #C1A74D",
": 	c #B09B2F",
"< 	c #AD981C",
"[ 	c #966E45",
"} 	c #904C7B",
"| 	c #873394",
"1 	c #851EA7",
"2 	c #7813A1",
"3 	c #7B1BA6",
"4 	c #7C1FA3",
"5 	c #7C1CA7",
"6 	c #821BA6",
"7 	c #842C94",
"8 	c #874772",
"9 	c #92723E",
"0 	c #A7941C",
"a 	c #A28C21",
"b 	c #1C7F9B",
"c 	c #5F6A35",
"d 	c #A08325",
"e 	c #7F3D73",
"f 	c #8928AC",
"g 	c #8A31A4",
"h 	c #7D398E",
"i 	c #695D5A",
"j 	c #5B812D",
"k 	c #689E27",
"l 	c #6AA425",
"m 	c #699C28",
"n 	c #65823B",
"o 	c #6D526B",
"p 	c #823295",
"q 	c #8324A8",
"r 	c #804469",
"s 	c #A18729",
"t 	c #A28A1E",
"u 	c #12758C",
"v 	c #11768D",
"w 	c #106E85",
"x 	c #563379",
"y 	c #8B1EB0",
"z 	c #774E76",
"A 	c #718446",
"B 	c #72A52B",
"C 	c #69A422",
"D 	c #5D921F",
"E 	c #679C25",
"F 	c #699D28",
"G 	c #699C25",
"H 	c #669C22",
"I 	c #66A020",
"J 	c #6C992F",
"K 	c #6F7650",
"L 	c #782F8F",
"M 	c #813486",
"N 	c #967537",
"O 	c #A69028",
"P 	c #10758A",
"Q 	c #14758E",
"R 	c #12768C",
"S 	c #0F768A",
"T 	c #135F83",
"U 	c #57574B",
"V 	c #73AC27",
"W 	c #73A62B",
"X 	c #649724",
"Y 	c #649A23",
"Z 	c #689C25",
"` 	c #689C26",
" .	c #72A42F",
"..	c #6EA12A",
"+.	c #6CA229",
"@.	c #6A9D27",
"#.	c #609523",
"$.	c #6B9E28",
"%.	c #69982D",
"&.	c #773688",
"*.	c #84318E",
"=.	c #7C8C7F",
"-.	c #147793",
";.	c #117489",
">.	c #11758A",
",.	c #14768C",
"'.	c #11758B",
").	c #0F7389",
"!.	c #0E758C",
"~.	c #187470",
"{.	c #5E922E",
"].	c #6B9C2A",
"^.	c #71A424",
"/.	c #5A9230",
"(.	c #398150",
"_.	c #277763",
":.	c #277A6F",
"<.	c #22796D",
"[.	c #2B7B62",
"}.	c #3D854F",
"|.	c #62962E",
"1.	c #6A9F23",
"2.	c #669B25",
"3.	c #6E9F29",
"4.	c #706C8B",
"5.	c #247A96",
"6.	c #106E84",
"7.	c #14778C",
"8.	c #10748A",
"9.	c #106F8A",
"0.	c #0F6F89",
"a.	c #13768B",
"b.	c #267361",
"c.	c #6FA42F",
"d.	c #37825A",
"e.	c #0E7088",
"f.	c #0D6E89",
"g.	c #0E6F89",
"h.	c #147489",
"i.	c #107288",
"j.	c #0F7287",
"k.	c #116F89",
"l.	c #137183",
"m.	c #43803B",
"n.	c #6FA226",
"o.	c #73A153",
"p.	c #317F8F",
"q.	c #106C82",
"r.	c #126F86",
"s.	c #126D82",
"t.	c #12758B",
"u.	c #0F758A",
"v.	c #10738A",
"w.	c #10708A",
"x.	c #13758C",
"y.	c #1C6D71",
"z.	c #107388",
"A.	c #0F6F88",
"B.	c #116F88",
"C.	c #137489",
"D.	c #0F7187",
"E.	c #127188",
"F.	c #0D6D87",
"G.	c #3A8266",
"H.	c #408C91",
"I.	c #0D6F88",
"J.	c #10687D",
"K.	c #126D84",
"L.	c #137087",
"M.	c #0F7489",
"N.	c #13778C",
"O.	c #10728A",
"P.	c #13768A",
"Q.	c #15768B",
"R.	c #14758A",
"S.	c #0E687D",
"T.	c #107389",
"U.	c #107087",
"V.	c #117087",
"W.	c #0F7087",
"X.	c #127388",
"Y.	c #0D6F84",
"Z.	c #3B8CA0",
"`.	c #187589",
" +	c #147288",
".+	c #137189",
"++	c #126D7F",
"@+	c #136F86",
"#+	c #126F85",
"$+	c #0E6B82",
"%+	c #117186",
"&+	c #0F7189",
"*+	c #137388",
"=+	c #157489",
"-+	c #0F6D82",
";+	c #0D667A",
">+	c #107086",
",+	c #127487",
"'+	c #107187",
")+	c #127389",
"!+	c #147189",
"~+	c #34889D",
"{+	c #177389",
"]+	c #197689",
"^+	c #126E84",
"/+	c #127086",
"(+	c #167086",
"_+	c #0E6C81",
":+	c #0E667B",
"<+	c #0E6A7F",
"[+	c #107488",
"}+	c #0F7387",
"|+	c #15758A",
"1+	c #117088",
"2+	c #0E7186",
"3+	c #0D657B",
"4+	c #247E93",
"5+	c #167188",
"6+	c #18778B",
"7+	c #157388",
"8+	c #147087",
"9+	c #117289",
"0+	c #12768B",
"a+	c #137589",
"b+	c #0E708A",
"c+	c #0F6F85",
"d+	c #106D83",
"e+	c #0E6A80",
"f+	c #0F6C81",
"g+	c #13758A",
"h+	c #107188",
"i+	c #0D6A7F",
"j+	c #0F6A81",
"k+	c #207C91",
"l+	c #1F788F",
"m+	c #106F85",
"n+	c #167489",
"o+	c #147188",
"p+	c #137188",
"q+	c #147186",
"r+	c #136E82",
"s+	c #156F85",
"t+	c #117189",
"u+	c #0F7188",
"v+	c #106E83",
"w+	c #10657B",
"x+	c #11677D",
"y+	c #107085",
"z+	c #107287",
"A+	c #0E657B",
"B+	c #0C5466",
"C+	c #0B353F",
"D+	c #145667",
"E+	c #16738A",
"F+	c #147388",
"G+	c #177589",
"H+	c #19768A",
"I+	c #177187",
"J+	c #166D83",
"K+	c #17768C",
"L+	c #17778D",
"M+	c #14758B",
"N+	c #137389",
"O+	c #13748A",
"P+	c #127187",
"Q+	c #126B81",
"R+	c #126F84",
"S+	c #106C81",
"T+	c #0D3742",
"U+	c #176E81",
"V+	c #1A7589",
"W+	c #1C7586",
"X+	c #1C7B90",
"Y+	c #1C7B91",
"Z+	c #1C7A90",
"`+	c #1A788E",
" @	c #19778E",
".@	c #1A788C",
"+@	c #17788D",
"@@	c #17768B",
"#@	c #17748C",
"$@	c #19788B",
"%@	c #19768C",
"&@	c #2B8397",
"*@	c #278095",
"=@	c #207D91",
"-@	c #1F7D91",
";@	c #1E7A90",
">@	c #1D7A90",
",@	c #1E7B90",
"'@	c #1C7A8F",
")@	c #1C788F",
"!@	c #1D798F",
"~@	c #1C788D",
"{@	c #1C788C",
"]@	c #1C778B",
"^@	c #177289",
"/@	c #1E7B91",
"(@	c #1C768D",
"_@	c #1B748B",
":@	c #1E7C8F",
"<@	c #1E7C90",
"[@	c #1D7A8F",
"}@	c #1A778A",
"|@	c #16778C",
"1@	c #167286",
"2@	c #19778C",
"3@	c #19768B",
"4@	c #18748A",
"5@	c #146E84",
"6@	c #126B80",
"                                                                ",
"                                                                ",
"                                                                ",
"                                                                ",
"                                                                ",
"                                                                ",
"                          . + @ # $ % & * =                     ",
"                      - ; > , ' ) ! ~ { ] ^ / (                 ",
"                  _ : < [ } | 1 2 3 4 5 6 7 8 9 0 a             ",
"                b c d e f g h i j k l m n o p q r s t           ",
"              u v w x y z A B C D E F G H I J K L M N O         ",
"            P Q R S T U V W X Y Z `  ...+.@.#.$.%.&.*.=.-.      ",
"          ;.>.,.'.).!.~.{.].^./.(._.:.<.[.}.|.1.2.3.4.5.6.      ",
"          S >.7.8.9.0.a.b.c.d.e.f.g.h.i.j.k.l.m.n.o.p.q.r.s.    ",
"        t.u.>.7.v.w.0.a.x.y.0.z.A.B.C.z.D.E.;.F.G.H.I.J.K.L.    ",
"        '.M.;.N.O.g.g.P.Q.R.S.T.U.V.C.z.W.X.X.Y.Z.`. +.+++@+#+  ",
"      $+%+u.>.a.O.i.&+*+Q.=+-+;+>+,+*+U.'+)+!+~+{+]+ +L.^+/+(+  ",
"      C._+:+<+C.T.[+}+C.|+X.1+2+3+W.X.U.>+@+4+5+h.6+7+r.^+r.8+  ",
"    9+0+a+b+c+d+e+_+f+^+a+g+h+%+i+j+)+c+'+k+l+m+L.n+o+p+q+r+s+  ",
"    ;.C.a+g.t+;.i.j.u+v+w+x+y+z+z+A+B+C+D+E+F+5+G+H+I+J+        ",
"    K+L+L+7.Q.M+N+O+N+g+g+P+s.Q+R+S+    T+U+V+W+                ",
"    X+Y+Z+`+ @.@+@+@+@@@#@@@@@$@%@                              ",
"    &@*@=@-@;@>@,@'@)@!@~@{@]@^@                                ",
"    /@(@_@,@:@<@<@[@}@                                          ",
"    |@G+1@2@3@4@                                                ",
"    5@6@                                                        ",
"                                                                ",
"                                                                ",
"                                                                ",
"                                                                ",
"                                                                ",
"                                                                "};
