/* XPM */
static const char * project_xpm[] = {
"34 34 492 2",
"  	c None",
". 	c #5784BC",
"+ 	c #4F7DB4",
"@ 	c #517CB5",
"# 	c #4F7EB5",
"$ 	c #507EB5",
"% 	c #527DB5",
"& 	c #507DB5",
"* 	c #517FB7",
"= 	c #5884BB",
"- 	c #4871A5",
"; 	c #A7CAF1",
"> 	c #8FB8EA",
", 	c #8CB5E9",
"' 	c #8AB5E9",
") 	c #8DB6E9",
"! 	c #8FB6EA",
"~ 	c #95BBEB",
"{ 	c #94B6E0",
"] 	c #4E79B1",
"^ 	c #517EB5",
"/ 	c #517EB6",
"( 	c #527EB6",
"_ 	c #507EB6",
": 	c #4F7EB6",
"< 	c #4E7DB6",
"[ 	c #517DB6",
"} 	c #507DB6",
"| 	c #406897",
"1 	c #74A3E0",
"2 	c #5E93D6",
"3 	c #6195D6",
"4 	c #5F95D6",
"5 	c #6194D6",
"6 	c #6094D6",
"7 	c #7BA8DE",
"8 	c #7BA8DF",
"9 	c #7FAAE0",
"0 	c #7EAAE0",
"a 	c #81ABE0",
"b 	c #80ABE0",
"c 	c #85ADE1",
"d 	c #87AFE2",
"e 	c #89AFE2",
"f 	c #8AB1E3",
"g 	c #8EB2E3",
"h 	c #8DB4E3",
"i 	c #8EB5E4",
"j 	c #90B6E4",
"k 	c #92B7E5",
"l 	c #93B8E5",
"m 	c #96B9E5",
"n 	c #95BAE5",
"o 	c #98BBE6",
"p 	c #96BBE8",
"q 	c #5A84BA",
"r 	c #3E6290",
"s 	c #6093D4",
"t 	c #6090D0",
"u 	c #5C90D0",
"v 	c #5D90D0",
"w 	c #5D8FCF",
"x 	c #588CCC",
"y 	c #5785C2",
"z 	c #4E7EB9",
"A 	c #4B7DB7",
"B 	c #4D7CB7",
"C 	c #4B7CB7",
"D 	c #4C7CB7",
"E 	c #4A7CB7",
"F 	c #4B7BB7",
"G 	c #4D7BB7",
"H 	c #4A7AB7",
"I 	c #497AB6",
"J 	c #618EC6",
"K 	c #42699B",
"L 	c #3E6492",
"M 	c #578ACA",
"N 	c #5788C7",
"O 	c #5688C7",
"P 	c #5888C7",
"Q 	c #5988C6",
"R 	c #5587C6",
"S 	c #527EBA",
"T 	c #3D6A9D",
"U 	c #295283",
"V 	c #234D7D",
"W 	c #244D7D",
"X 	c #264D7D",
"Y 	c #264E7D",
"Z 	c #244E7D",
"` 	c #244D7E",
" .	c #2F588A",
"..	c #214571",
"+.	c #355984",
"@.	c #4776AF",
"#.	c #4574AC",
"$.	c #4874AB",
"%.	c #4674AC",
"&.	c #4874AC",
"*.	c #4774AC",
"=.	c #4771AA",
"-.	c #3B669A",
";.	c #224777",
">.	c #C5DEF0",
",.	c #C9E4F6",
"'.	c #BBDAF3",
").	c #BBDBF3",
"!.	c #BBDAF2",
"~.	c #BADAF2",
"{.	c #A8C8E5",
"].	c #18375C",
"^.	c #214979",
"/.	c #204777",
"(.	c #204878",
"_.	c #214877",
":.	c #204676",
"<.	c #1C426E",
"[.	c #34557D",
"}.	c #BBD8EF",
"|.	c #8FB0DC",
"1.	c #8DB0DD",
"2.	c #8FB0DD",
"3.	c #8EB0DD",
"4.	c #8FB1DD",
"5.	c #8FB1DF",
"6.	c #90B1DF",
"7.	c #91B2DE",
"8.	c #7E9CC1",
"9.	c #7DA1C3",
"0.	c #C0E0F9",
"a.	c #B0D2ED",
"b.	c #93B7DF",
"c.	c #90B2DC",
"d.	c #8FB2DC",
"e.	c #92B2E3",
"f.	c #61AB73",
"g.	c #619096",
"h.	c #92B3E0",
"i.	c #92B4DF",
"j.	c #6E8AAC",
"k.	c #5A83B1",
"l.	c #93B2DF",
"m.	c #8AAEDC",
"n.	c #8EAFDC",
"o.	c #8CAEDC",
"p.	c #8BAEDC",
"q.	c #8DAEDC",
"r.	c #8BAFDC",
"s.	c #90B1DD",
"t.	c #8EB1DD",
"u.	c #91B2DD",
"v.	c #8DB1DD",
"w.	c #91B0E8",
"x.	c #51B831",
"y.	c #015504",
"z.	c #95B5E8",
"A.	c #8FB1DE",
"B.	c #90B3E0",
"C.	c #6781A1",
"D.	c #547CAA",
"E.	c #92B5DF",
"F.	c #8EB0DB",
"G.	c #8DB0DB",
"H.	c #8CB0DB",
"I.	c #8BB0DB",
"J.	c #8FB0DB",
"K.	c #8FAFE6",
"L.	c #58B937",
"M.	c #066106",
"N.	c #529E78",
"O.	c #8FB0E0",
"P.	c #8EB3DF",
"Q.	c #65809F",
"R.	c #547DAA",
"S.	c #90B2DF",
"T.	c #8AAEDB",
"U.	c #8BAFDB",
"V.	c #8BAEDB",
"W.	c #8AAFDB",
"X.	c #8CAFDB",
"Y.	c #8EAFDB",
"Z.	c #8CAEDB",
"`.	c #8FAFDB",
" +	c #8EAEE5",
".+	c #5CBB3D",
"++	c #025A04",
"@+	c #47BD1F",
"#+	c #79A7C6",
"$+	c #8BAEDD",
"%+	c #8EB1DF",
"&+	c #667E9E",
"*+	c #537BAA",
"=+	c #88ADDB",
"-+	c #89AEDB",
";+	c #8AADDB",
">+	c #88AEDB",
",+	c #89ADDB",
"'+	c #8EACE5",
")+	c #61BD42",
"!+	c #005300",
"~+	c #22AA10",
"{+	c #40B02F",
"]+	c #8DAEE4",
"^+	c #8AB0DF",
"/+	c #627E9E",
"(+	c #8EB0DE",
"_+	c #87ACDB",
":+	c #8CADDB",
"<+	c #88ACDB",
"[+	c #87ADDB",
"}+	c #89ACDB",
"|+	c #8BADDB",
"1+	c #8DABE5",
"2+	c #67BF48",
"3+	c #366E5A",
"4+	c #1F8732",
"5+	c #079E00",
"6+	c #399D5C",
"7+	c #90B0E4",
"8+	c #617D9E",
"9+	c #527AAA",
"0+	c #85ACDA",
"a+	c #86ACDA",
"b+	c #87ACDA",
"c+	c #86ABDA",
"d+	c #89ADDA",
"e+	c #88ABDA",
"f+	c #87ABDA",
"g+	c #89ACDA",
"h+	c #8BADDA",
"i+	c #8BACDA",
"j+	c #86A9E4",
"k+	c #6DC14D",
"l+	c #467675",
"m+	c #90B0EA",
"n+	c #43996E",
"o+	c #008900",
"p+	c #80ADD1",
"q+	c #627C9E",
"r+	c #527BAA",
"s+	c #8AAEDD",
"t+	c #84ABDA",
"u+	c #84AADA",
"v+	c #85ABDA",
"w+	c #85AADA",
"x+	c #84A8E2",
"y+	c #75C253",
"z+	c #457573",
"A+	c #87ACDD",
"B+	c #8FACE7",
"C+	c #269540",
"D+	c #419E67",
"E+	c #607B9F",
"F+	c #86ADDD",
"G+	c #84A9D9",
"H+	c #87ABD9",
"I+	c #84AAD9",
"J+	c #82AAD9",
"K+	c #87AAD9",
"L+	c #85AAD9",
"M+	c #82A9D9",
"N+	c #86AAD9",
"O+	c #83A9D9",
"P+	c #85ABD9",
"Q+	c #83AAD9",
"R+	c #86A9D9",
"S+	c #85A9D9",
"T+	c #83A7E1",
"U+	c #7CC55D",
"V+	c #437472",
"W+	c #86ABDB",
"X+	c #85A9DA",
"Y+	c #75A6C5",
"Z+	c #08910C",
"`+	c #647BA6",
" @	c #517AAA",
".@	c #8CAFDC",
"+@	c #83A8D9",
"@@	c #80A8D9",
"#@	c #81A8D9",
"$@	c #84A8D9",
"%@	c #85A8D9",
"&@	c #86ABD9",
"*@	c #82A8D9",
"=@	c #84A6E0",
"-@	c #80C560",
";@	c #417472",
">@	c #82A9DB",
",@	c #8FAAEB",
"'@	c #008F00",
")@	c #627AA4",
"!@	c #5079A9",
"~@	c #87ABDC",
"{@	c #82A7D8",
"]@	c #81A7D8",
"^@	c #84A7D8",
"/@	c #7FA7D8",
"(@	c #80A7D8",
"_@	c #86A8D8",
":@	c #83A7D8",
"<@	c #83A8D8",
"[@	c #83A4E0",
"}@	c #74C057",
"|@	c #457372",
"1@	c #82A8DA",
"2@	c #89A8E7",
"3@	c #009000",
"4@	c #5E7899",
"5@	c #8BB0DF",
"6@	c #89ACDC",
"7@	c #87ACDC",
"8@	c #8BACDC",
"9@	c #8AACDC",
"0@	c #86ACDC",
"a@	c #8BADDC",
"b@	c #85ACDC",
"c@	c #88ACDC",
"d@	c #8BAAE5",
"e@	c #69BD50",
"f@	c #88ADDF",
"g@	c #94ADEC",
"h@	c #019101",
"i@	c #677CA9",
"j@	c #205893",
"k@	c #2560A0",
"l@	c #235F9F",
"m@	c #245F9F",
"n@	c #225F9F",
"o@	c #255F9F",
"p@	c #2059A6",
"q@	c #52AF40",
"r@	c #104C54",
"s@	c #245FA1",
"t@	c #235FA0",
"u@	c #22609E",
"v@	c #06851F",
"w@	c #1C4E89",
"x@	c #3D6B9D",
"y@	c #4F81BB",
"z@	c #4F80BA",
"A@	c #4F7FBA",
"B@	c #4D7FBA",
"C@	c #4E7FBA",
"D@	c #4E80BA",
"E@	c #507FBA",
"F@	c #4C7FBA",
"G@	c #5180BA",
"H@	c #4D80B9",
"I@	c #4C7BC2",
"J@	c #4CAE3B",
"K@	c #285F63",
"L@	c #4F7FBC",
"M@	c #4E7FBB",
"N@	c #308670",
"O@	c #3C8392",
"P@	c #385B85",
"Q@	c #3B689C",
"R@	c #467AB6",
"S@	c #4578B4",
"T@	c #4479B4",
"U@	c #4579B4",
"V@	c #4478B4",
"W@	c #4379B4",
"X@	c #4678B4",
"Y@	c #4679B4",
"Z@	c #4875BC",
"`@	c #3CA730",
" #	c #255C61",
".#	c #4478B6",
"+#	c #4978BA",
"@#	c #257F67",
"##	c #4779BD",
"$#	c #335882",
"%#	c #6589B3",
"&#	c #93B3E2",
"*#	c #92B2DE",
"=#	c #92B1DE",
"-#	c #94B2DE",
";#	c #93B2DE",
">#	c #8DB1DE",
",#	c #90B1DE",
"'#	c #93B1DE",
")#	c #91B1DE",
"!#	c #90B2DE",
"~#	c #8EB1DE",
"{#	c #92B2DF",
"]#	c #99B1EB",
"^#	c #38A92D",
"/#	c #4F7B79",
"(#	c #93B3E0",
"_#	c #8FB1DA",
":#	c #93B4E2",
"<#	c #6F88A9",
"[#	c #4D76A7",
"}#	c #7FA3D8",
"|#	c #79A1D4",
"1#	c #77A0D4",
"2#	c #78A0D4",
"3#	c #7CA0D4",
"4#	c #79A0D4",
"5#	c #7BA0D4",
"6#	c #7CA1D4",
"7#	c #7AA1D4",
"8#	c #7DA0D5",
"9#	c #779ED8",
"0#	c #769DD5",
"a#	c #68A4A6",
"b#	c #5F9999",
"c#	c #7297C3",
"d#	c #2B9F26",
"e#	c #417074",
"f#	c #7BA1D6",
"g#	c #7AA0D4",
"h#	c #7FA2D7",
"i#	c #557399",
"j#	c #4B76A8",
"k#	c #759CCF",
"l#	c #6D9ACE",
"m#	c #709BCE",
"n#	c #6F9BCE",
"o#	c #729CCE",
"p#	c #779DCE",
"q#	c #729BCE",
"r#	c #719BCE",
"s#	c #749BCE",
"t#	c #759DCE",
"u#	c #6A9BCE",
"v#	c #719CCE",
"w#	c #779DCF",
"x#	c #6F99CC",
"y#	c #71C381",
"z#	c #96F573",
"A#	c #55CE30",
"B#	c #149700",
"C#	c #077300",
"D#	c #025800",
"E#	c #3D696F",
"F#	c #729DD1",
"G#	c #729ACF",
"H#	c #567399",
"I#	c #5179AA",
"J#	c #6789C1",
"K#	c #678BC2",
"L#	c #688DC2",
"M#	c #688CC2",
"N#	c #6F90C2",
"O#	c #648BC2",
"P#	c #658DC4",
"Q#	c #6C8FC4",
"R#	c #678CC4",
"S#	c #648CC4",
"T#	c #6B8FC4",
"U#	c #688CC4",
"V#	c #698BC4",
"W#	c #6B8DC4",
"X#	c #668BC4",
"Y#	c #6F91C4",
"Z#	c #658BC4",
"`#	c #6588C3",
" $	c #3DA826",
".$	c #ACE49B",
"+$	c #A4F38A",
"@$	c #5CE030",
"#$	c #22A900",
"$$	c #157B00",
"%$	c #066600",
"&$	c #396A64",
"*$	c #6B8EC4",
"=$	c #698DC2",
"-$	c #648BC0",
";$	c #6384B1",
">$	c #000B1E",
",$	c #0D5108",
"'$	c #159600",
")$	c #3DBD0F",
"!$	c #45DB12",
"~$	c #39E800",
"{$	c #32BF09",
"]$	c #1D8E01",
"^$	c #0A6300",
"/$	c #002418",
"($	c #198E00",
"_$	c #2EAE03",
":$	c #59DA21",
"<$	c #7DF739",
"[$	c #61E328",
"}$	c #249E07",
"|$	c #208A04",
"1$	c #2AAA07",
"2$	c #2CAF0A",
"3$	c #1A8A05",
"                                                                    ",
"                                                                    ",
"                                                                    ",
"    . + @ # $ % # & * =                                             ",
"    - ; > , ' ) ! ~ { ] ^ / ( / / _ ( / _ : _ _ : _ ( < [ } &       ",
"    | 1 2 3 4 3 5 6 7 8 9 0 a b c c d e f g h i j k l m n o p q     ",
"    r s t u v v v v w x y z A B B C C D D C E B C F G H D I J K     ",
"    L M N N O P N Q R S T U V W W V X V W W Y W W X Z W W `  ...    ",
"    +.@.#.$.%.&.*.%.=.-.;.>.,.'.).).).).).).).).).).).).).).!.~.{.  ",
"    ].^./.(._./././.:.<.[.}.|.1.2.3.3.3.4.2.2.2.1.2.5.6.3.3.3.7.8.  ",
"  9.0.~.~.~.~.~.~.~.~.~.a.b.c.d.d.d.c.d.c.d.c.d.d.e.f.g.h.c.c.i.j.  ",
"  k.l.m.n.o.m.p.p.p.q.o.r.s.t.u.4.t.t.v.t.4.v.t.4.w.x.y.z.A.t.B.C.  ",
"  D.E.F.G.H.H.G.I.G.H.I.I.J.G.I.G.H.G.I.H.G.I.I.F.K.L.M.N.O.I.P.Q.  ",
"  R.S.T.U.V.U.W.X.T.Y.W.Y.U.T.W.Z.U.W.T.X.`.T.Y.W. +.+++@+#+$+%+&+  ",
"  *+A.Z.T.Z.=+-+;+>+=+T.T.;+V.V.V.,+T.T.=+=+T.-+V.'+)+!+~+{+]+^+/+  ",
"  D.(+;+=+_+:+<+=+,+=+[+;+}+;+}+_+|+,+_+|+[+=+,+}+1+2+3+4+5+6+7+8+  ",
"  9+(+0+a+b+c+d+e+f+0+b+e+g+0+a+b+c+c+h+c+a+b+0+i+j+k+l+m+n+o+p+q+  ",
"  r+s+t+u+t+c+v+u+c+f+u+v+v+t+w+t+f+v+w+c+c+w+v+c+x+y+z+A+B+C+D+E+  ",
"  r+F+G+H+I+J+G+K+L+M+I+N+M+O+P+N+Q+I+I+R+O+I+L+S+T+U+V+W+X+Y+Z+`+  ",
"   @.@+@+@@@#@#@$@@@+@+@%@&@+@+@@@#@#@$@@@*@$@$@K+=@-@;@>@#@,@'@)@  ",
"  !@~@{@]@^@/@{@(@_@:@{@{@:@{@/@^@]@{@(@<@^@:@:@]@[@}@|@1@]@2@3@4@  ",
"  r+5@6@7@7@8@7@6@9@0@6@7@0@a@b@7@6@7@8@c@c@6@7@b@d@e@l+f@6@g@h@i@  ",
"  j@k@l@l@m@n@m@l@l@l@m@l@o@l@m@l@n@l@l@n@m@l@m@o@p@q@r@s@t@u@v@w@  ",
"  x@y@z@A@B@B@B@B@z@C@C@B@D@D@B@E@B@B@F@B@G@B@C@H@I@J@K@L@M@N@O@P@  ",
"  Q@R@S@T@T@T@U@V@T@V@W@X@Y@S@W@Y@T@U@T@V@V@T@S@U@Z@`@ #.#+#@###$#  ",
"  %#&#*#=#-#A.A.;#>#*#A.*#,#7.'#*#A.)#,#!#7.~#{#5.]#^#/#(#_#H.:#<#  ",
"  [#}#|#1#2#3#4#5#4#2#2#6#5#7#4#1#5#4#2#8#9#0#a#b#c#d#e#f#2#g#h#i#  ",
"  j#k#l#m#n#o#p#q#r#m#s#q#t#u#m#n#v#q#w#x#y#z#A#B#C#D#E#F#r#t#G#H#  ",
"  I#J#K#L#M#N#O#P#Q#R#S#T#U#V#W#X#Y#Z#`# $.$+$@$#$$$%$&$*$=$O#-$;$  ",
"                                  >$  ,$'$)$!$~${$]$^$/$            ",
"                                        ($_$:$<$[$}$                ",
"                                          |$1$2$3$                  ",
"                                                                    ",
"                                                                    "};
