/* XPM */
static const char * redled_xpm[] = {
"10 10 11 1",
" 	c None",
".	c #001A1A",
"+	c #01FFFC",
"@	c #00FEFB",
"#	c #87FFFD",
"$	c #00F6F4",
"%	c #66C2C1",
"&	c #00FAF7",
"*	c #00F8F5",
"=	c #00FCF9",
"-	c #00FDFA",
"          ",
"   ....   ",
"  .+++@.  ",
" .@+#++$. ",
" .+%+++&. ",
" .+++++*. ",
" .=++++@. ",
"  .-++@.  ",
"   ....   ",
"          "};
