/* XPM */
static const char * remove_ctrl_xpm[] = {
"16 16 11 1",
" 	c None",
".	c #60606F",
"+	c #60606E",
"@	c #5F5F6D",
"#	c #61616F",
"$	c #60606D",
"%	c #C2DCFF",
"&	c #5E5E6C",
"*	c #5E5D6B",
"=	c #5F5E6C",
"-	c #605F6D",
" .+++++++++++++ ",
"++++++@+++++++++",
"++++++++++++++++",
"++++@+++++++++++",
"++++#+++++++++++",
"+++$++++++++++++",
"++++++++++++++++",
"++++%%%%%%%%++++",
"++++%%%%%%%%++++",
"++++++++++++++++",
"+@++++++++++++++",
"+&++++++++++++++",
"+*++++++++++++++",
"++++++++=+++++++",
"++++++++++++++++",
" ++++-$++++++++ "};
