/* XPM */
static const char * select_invert_selection_xpm[] = {
"16 16 92 2",
"  	c None",
". 	c #A8A8A8",
"+ 	c #A7A7A7",
"@ 	c #A6A6A6",
"# 	c #A5A5A5",
"$ 	c #A4A4A4",
"% 	c #B1B1B1",
"& 	c #E3E3E3",
"* 	c #F8F8F8",
"= 	c #FEFEFE",
"- 	c #F7F7F7",
"; 	c #E1E1E1",
"> 	c #ADADAD",
", 	c #C9C9C9",
"' 	c #F5F5F5",
") 	c #FBFBFB",
"! 	c #F6F6F6",
"~ 	c #EFEFEF",
"{ 	c #EEEEEE",
"] 	c #F2F2F2",
"^ 	c #F4F4F4",
"/ 	c #949494",
"( 	c #B2B2B2",
"_ 	c #ECECEC",
": 	c #EAEAEA",
"< 	c #E8E8E8",
"[ 	c #E6E6E6",
"} 	c #E5E5E5",
"| 	c #BEBEBE",
"1 	c #757575",
"2 	c #565656",
"3 	c #EDEDED",
"4 	c #E9E9E9",
"5 	c #E7E7E7",
"6 	c #909090",
"7 	c #3A3A3A",
"8 	c #808080",
"9 	c #686868",
"0 	c #545454",
"a 	c #E4E4E4",
"b 	c #E2E2E2",
"c 	c #8F8F8F",
"d 	c #393939",
"e 	c #363636",
"f 	c #5A5A5A",
"g 	c #747474",
"h 	c #535353",
"i 	c #EBEBEB",
"j 	c #8D8D8D",
"k 	c #383838",
"l 	c #353535",
"m 	c #343434",
"n 	c #313131",
"o 	c #7B7B7B",
"p 	c #515151",
"q 	c #A3A3A3",
"r 	c #E0E0E0",
"s 	c #8C8C8C",
"t 	c #323232",
"u 	c #303030",
"v 	c #2F2F2F",
"w 	c #787878",
"x 	c #505050",
"y 	c #A2A2A2",
"z 	c #DFDFDF",
"A 	c #8B8B8B",
"B 	c #333333",
"C 	c #2D2D2D",
"D 	c #525252",
"E 	c #6E6E6E",
"F 	c #DDDDDD",
"G 	c #DEDEDE",
"H 	c #8A8A8A",
"I 	c #2E2E2E",
"J 	c #2C2C2C",
"K 	c #2A2A2A",
"L 	c #767676",
"M 	c #606060",
"N 	c #4E4E4E",
"O 	c #ABABAB",
"P 	c #F0F0F0",
"Q 	c #BABABA",
"R 	c #2B2B2B",
"S 	c #292929",
"T 	c #4D4D4D",
"U 	c #717171",
"V 	c #696969",
"W 	c #575757",
"X 	c #646464",
"Y 	c #6F6F6F",
"Z 	c #727272",
"` 	c #6C6C6C",
"                                ",
"          . + + @ # $           ",
"        % & * = = - ; >         ",
"      , ' ) ! ~ { ] * ^ /       ",
"    ( ^ * { _ : < [ } | 1 2     ",
"    ; ) 3 _ 4 5 [ & 6 7 8 9 0   ",
"  # - ^ : < [ a b c d e f g h   ",
"  $ = i 5 } & ; j k l m n o p   ",
"  q = < a b r s e l t u v w x   ",
"  y ' { ; z A l B n u C D E x   ",
"    F ! G H l t u I J K L M N   ",
"    O P Q B n v C R S 1 9 T     ",
"      j U o h n l N g V W       ",
"        D X Y 1 Z ` M T         ",
"          x x N T T T           ",
"                                "};
