/* XPM */
static const char * select_inside_loop_xpm[] = {
"16 16 80 1",
" 	c None",
".	c #D8D8D8",
"+	c #D7D7D7",
"@	c #D6D6D6",
"#	c #D5D5D5",
"$	c #D3D3D3",
"%	c #D2D2D2",
"&	c #EBEBEB",
"*	c #F5F5F5",
"=	c #FCFCFC",
"-	c #F4F4F4",
";	c #E8E8E8",
">	c #CECECE",
",	c #F8F8F8",
"'	c #FFFFFF",
")	c #F2F2F2",
"!	c #F1F1F1",
"~	c #F7F7F7",
"{	c #C9C9C9",
"]	c #EFEFEF",
"^	c #EEEEEE",
"/	c #EDEDED",
"(	c #ECECEC",
"_	c #C0C0C0",
":	c #B3B3B3",
"<	c #777777",
"[	c #767676",
"}	c #757575",
"|	c #989898",
"1	c #DDDDDD",
"2	c #CDCDCD",
"3	c #EAEAEA",
"4	c #E9E9E9",
"5	c #CACACA",
"6	c #747474",
"7	c #ABABAB",
"8	c #D4D4D4",
"9	c #F0F0F0",
"0	c #E6E6E6",
"a	c #909090",
"b	c #DFDFDF",
"c	c #737373",
"d	c #FAFAFA",
"e	c #A7A7A7",
"f	c #CBCBCB",
"g	c #E4E4E4",
"h	c #727272",
"i	c #BFBFBF",
"j	c #A2A2A2",
"k	c #D1D1D1",
"l	c #AFAFAF",
"m	c #686868",
"n	c #B8B8B8",
"o	c #717171",
"p	c #6F6F6F",
"q	c #949494",
"r	c #E1E1E1",
"s	c #9D9D9D",
"t	c #FEFEFE",
"u	c #E7E7E7",
"v	c #E5E5E5",
"w	c #A5A5A5",
"x	c #DBDBDB",
"y	c #E2E2E2",
"z	c #FBFBFB",
"A	c #C6C6C6",
"B	c #999999",
"C	c #C4C4C4",
"D	c #E3E3E3",
"E	c #A3A3A3",
"F	c #D9D9D9",
"G	c #B9B9B9",
"H	c #F3F3F3",
"I	c #AAAAAA",
"J	c #939393",
"K	c #9C9C9C",
"L	c #979797",
"M	c #969696",
"N	c #929292",
"O	c #8E8E8E",
"                ",
"     .+@#$%     ",
"    .&*==-;>    ",
"   .,',)!~'*{   ",
"  .,']^//(&'*_  ",
" +&':<<<[[}|'1: ",
" @*~<2(&3456-^7 ",
" 8=9<&340abc4de ",
" $=][f4gahic;-j ",
" k)*lm;nhopq)rs ",
" >gt;u0vwoxyzAB ",
"  C9'vvgDEFtyB  ",
"   G(tH;u!zrB   ",
"    I>0*)1_J    ",
"     KLMNaO     ",
"                "};
