/* XPM */
static const char * select_outside_loop_xpm[] = {
"16 16 115 2",
"  	c None",
". 	c #AEC6E3",
"+ 	c #C8D0DB",
"@ 	c #D3D5D7",
"# 	c #D2D4D6",
"$ 	c #C4CDD8",
"% 	c #AAC1DF",
"& 	c #A8C3E6",
"* 	c #D2D7DD",
"= 	c #E8ECF1",
"- 	c #F3F6FA",
"; 	c #FBFDFE",
"> 	c #F2F5F9",
", 	c #E5E9EE",
"' 	c #C7CDD4",
") 	c #9FBADD",
"! 	c #D4D8DE",
"~ 	c #F7F8FB",
"{ 	c #FFFFFF",
"] 	c #F6F9FC",
"^ 	c #EEF3FA",
"/ 	c #EDF3FA",
"( 	c #F4F8FC",
"_ 	c #F3F6F9",
": 	c #C4CAD1",
"< 	c #9CB7DA",
"[ 	c #EBF1F9",
"} 	c #E9F0F9",
"| 	c #E8EFF9",
"1 	c #E6EFF8",
"2 	c #E5EEF8",
"3 	c #BABFC7",
"4 	c #AEC5E2",
"5 	c #9DBCE4",
"6 	c #5485C3",
"7 	c #5384C1",
"8 	c #5283C0",
"9 	c #7AA4DA",
"0 	c #D8DFE7",
"a 	c #94ABC8",
"b 	c #C7CFDA",
"c 	c #BED3ED",
"d 	c #E4EDF7",
"e 	c #E3ECF7",
"f 	c #BBD0EC",
"g 	c #5281BE",
"h 	c #F1F5FB",
"i 	c #EAEFF6",
"j 	c #A0A9B4",
"k 	c #D1D3D5",
"l 	c #ECF2FA",
"m 	c #DFE9F6",
"n 	c #6F9DD7",
"o 	c #D5E3F3",
"p 	c #5180BD",
"q 	c #F9FBFD",
"r 	c #A5A7A9",
"s 	c #D0D2D4",
"t 	c #BCD1EC",
"u 	c #DCE7F5",
"v 	c #517FBB",
"w 	c #ACC7E8",
"x 	c #E1EBF7",
"y 	c #F1F5FA",
"z 	c #A0A2A4",
"A 	c #C2CBD6",
"B 	c #EFF3F8",
"C 	c #F2F6FB",
"D 	c #97B9E2",
"E 	c #4974AA",
"F 	c #A3C0E5",
"G 	c #507EB9",
"H 	c #4E7CB6",
"I 	c #75A1D8",
"J 	c #DBE4EF",
"K 	c #949CA7",
"L 	c #A7BEDC",
"M 	c #E1E5EC",
"N 	c #FEFEFF",
"O 	c #E0EAF6",
"P 	c #DDE8F6",
"Q 	c #8BB0DF",
"R 	c #D0DFF2",
"S 	c #DAE5F5",
"T 	c #FAFCFE",
"U 	c #BFC9D6",
"V 	c #8198B6",
"W 	c #BEC3CA",
"X 	c #EDF1F7",
"Y 	c #DBE6F5",
"Z 	c #88AEDE",
"` 	c #CEDDF1",
" .	c #DCE4EF",
"..	c #929AA3",
"+.	c #94B0D2",
"@.	c #B3BBC3",
"#.	c #E8EEF4",
"$.	c #EFF4FB",
"%.	c #DBE4EE",
"&.	c #919CA8",
"*.	c #7994B7",
"=.	c #8CA7CA",
"-.	c #A3ABB3",
";.	c #C8D1DC",
">.	c #E1E8F1",
",.	c #D6E0ED",
"'.	c #B8C3D2",
").	c #8C949F",
"!.	c #7792B5",
"~.	c #839BB8",
"{.	c #8E97A2",
"].	c #949698",
"^.	c #909295",
"/.	c #88919C",
"(.	c #7991AE",
"                                ",
"          . + @ # $ %           ",
"      & * = - ; ; > , ' )       ",
"    & ! ~ { ] ^ / ( { _ : <     ",
"    * ~ { [ } | | 1 2 { _ 3     ",
"  4 = { 5 6 6 6 7 7 8 9 { 0 a   ",
"  b - ( 6 c 1 2 d e f g h i j   ",
"  k ; l 6 2 d e m n o p e q r   ",
"  s ; [ 7 t e u n v w p x y z   ",
"  A B C D E x F v G H I ^ J K   ",
"  L M N x O m P Q G R S T U V   ",
"    W X { P P u Y Z ` N  ...    ",
"    +.@.#.N $.x O / T %.&.*.    ",
"      =.-.;.>.C ^ ,.'.).!.      ",
"          ~.{.].^./.(.          ",
"                                "};
