/* XPM */
static const char * select_all_parts_on_track_xpm[] = {
"16 16 9 1",
" 	c None",
".	c #818191",
"+	c #808090",
"@	c #7F7F8F",
"#	c #7D7C8B",
"$	c #F7A229",
"%	c #7F7E8E",
"&	c #7F7E8D",
"*	c #7E7D8C",
" .+++++++++++++ ",
"++++@#######++++",
"+++++$$$$$$$++++",
"+++++$$$$$$$++++",
"++++++++++++++++",
"++$$$$$$$$$$$$+%",
"++$$$$$$$$$$$$+%",
"++++++++++++++++",
"++++++++$$$$$$+%",
"++++++++$$$$$$+&",
"++++++++++++++++",
"+++++*$$$$++++++",
"+++++*$$$$++++++",
"++++++....++++++",
"++++++++++++++++",
" .+++++++++++++ "};
