/* XPM */
static const char * settings_configureshortcuts_xpm[] = {
"16 16 107 2",
"  	c None",
". 	c #D4D4D4",
"+ 	c #CFCFCF",
"@ 	c #C8C8C8",
"# 	c #C0C0C0",
"$ 	c #B7B7B7",
"% 	c #AEAEAE",
"& 	c #D0D0D0",
"* 	c #C9C9C9",
"= 	c #C4C4C4",
"- 	c #BCBCBC",
"; 	c #C1DEFC",
"> 	c #B6B9BB",
", 	c #AEB1B3",
"' 	c #BEDBFA",
") 	c #BBD8F8",
"! 	c #B7D5F6",
"~ 	c #B3D2F3",
"{ 	c #AECEF0",
"] 	c #AAC9ED",
"^ 	c #A4C5EA",
"/ 	c #9FC0E7",
"( 	c #9ABCE3",
"_ 	c #95B7E0",
": 	c #8FB2DD",
"< 	c #8AAED9",
"[ 	c #D8E2EF",
"} 	c #D7E1EE",
"| 	c #D6E0EE",
"1 	c #D4DFEE",
"2 	c #D2DDED",
"3 	c #D1DCEC",
"4 	c #CEDAEB",
"5 	c #CCD8EA",
"6 	c #CAD7EA",
"7 	c #C7D5E8",
"8 	c #C5D3E7",
"9 	c #C2D1E7",
"0 	c #83A8D5",
"a 	c #FCFCFC",
"b 	c #BCCCE4",
"c 	c #B7C9E1",
"d 	c #B0C3DF",
"e 	c #A9BEDC",
"f 	c #A1B8D9",
"g 	c #F0F3F7",
"h 	c #BECEE5",
"i 	c #7DA2D1",
"j 	c #BFDCFA",
"k 	c #BACBE3",
"l 	c #B8C9E2",
"m 	c #B4C6E0",
"n 	c #B1C4DF",
"o 	c #ADC2DE",
"p 	c #AABFDC",
"q 	c #A6BCDA",
"r 	c #A2B9D9",
"s 	c #9EB6D7",
"t 	c #9AB3D6",
"u 	c #CAD6E9",
"v 	c #779DCE",
"w 	c #D4DEED",
"x 	c #AEC2DE",
"y 	c #A6BCDB",
"z 	c #9EB6D8",
"A 	c #97B0D5",
"B 	c #B6C8E1",
"C 	c #7299CA",
"D 	c #B6D4F5",
"E 	c #D0DCEC",
"F 	c #AFC3DE",
"G 	c #ABBFDD",
"H 	c #A7BDDB",
"I 	c #A3BAD9",
"J 	c #9FB7D8",
"K 	c #9CB4D6",
"L 	c #97B1D5",
"M 	c #94AED3",
"N 	c #8FABD1",
"O 	c #8CA8D0",
"P 	c #88A6CF",
"Q 	c #85A3CD",
"R 	c #B3C5E0",
"S 	c #6E95C7",
"T 	c #B1D0F2",
"U 	c #A4BADA",
"V 	c #82A1CC",
"W 	c #6A92C5",
"X 	c #ABCBEE",
"Y 	c #C8D5E8",
"Z 	c #C5D4E8",
"` 	c #C3D2E7",
" .	c #C1D0E5",
"..	c #BCCCE3",
"+.	c #B9CAE3",
"@.	c #B7C9E2",
"#.	c #B5C7E1",
"$.	c #B0C4DF",
"%.	c #AFC2DE",
"&.	c #6890C4",
"*.	c #85A9D6",
"=.	c #7FA5D3",
"-.	c #7BA0D0",
";.	c #769CCD",
">.	c #6E96C8",
",.	c #6B93C6",
"'.	c #6990C4",
"                                ",
"                                ",
"      . + @ # $ %               ",
"    & *                         ",
"    = -                         ",
"; ; > , ' ) ! ~ { ] ^ / ( _ : < ",
"; [ [ [ } | 1 2 3 4 5 6 7 8 9 0 ",
"; [ a b a c a d a e a f a g h i ",
"j | k l m n o p q r s t u a k v ",
") w a a x a y a z a A a a a B C ",
"D E F G H I J K L M N O P Q R S ",
"T 5 a U a a a a a a a a V a d W ",
"X Y Z `  .h ..+.@.#.R n $.%.x &.",
"^ / ( _ : < *.=.-.;.C >.,.'.&.&.",
"                                ",
"                                "};
