/* XPM */
static const char * settings_midifileexport_xpm[] = {
"16 16 85 1",
" 	c None",
".	c #68CDCD",
"+	c #64CBCB",
"@	c #5CC9C9",
"#	c #57C7C7",
"$	c #51C4C4",
"%	c #49C2C2",
"&	c #44C1C1",
"*	c #3FBDBD",
"=	c #3CB3B3",
"-	c #3AAFAF",
";	c #319696",
">	c #5BC8C8",
",	c #B8E7E7",
"'	c #B2E5E5",
")	c #AFE4E4",
"!	c #ABE3E3",
"~	c #A8E2E2",
"{	c #A2E0E0",
"]	c #9CDEDE",
"^	c #97DCDC",
"/	c #94DBDB",
"(	c #246C6C",
"_	c #55C6C6",
":	c #B1E4E4",
"<	c #2B8282",
"[	c #277676",
"}	c #267171",
"|	c #2A7F7F",
"1	c #8BD8D8",
"2	c #226767",
"3	c #4CC3C3",
"4	c #ACE3E3",
"5	c #2E8A8A",
"6	c #2D8787",
"7	c #85D6D6",
"8	c #1F5D5D",
"9	c #46C1C1",
"0	c #A4E1E1",
"a	c #2D8888",
"b	c #7ED3D3",
"c	c #1C5757",
"d	c #A0DFDF",
"e	c #76D1D1",
"f	c #1A4F4F",
"g	c #3BB2B2",
"h	c #297C7C",
"i	c #70CFCF",
"j	c #184848",
"k	c #38ABAB",
"l	c #93DBDB",
"m	c #267373",
"n	c #65CCCC",
"o	c #164141",
"p	c #38A8A8",
"q	c #87D7D7",
"r	c #359F9F",
"s	c #48C2C2",
"t	c #123737",
"u	c #4BC3C3",
"v	c #6ACDCD",
"w	c #236A6A",
"x	c #349D9D",
"y	c #60CACA",
"z	c #2E8B8B",
"A	c #103131",
"B	c #6CCECE",
"C	c #81D4D4",
"D	c #39ACAC",
"E	c #206161",
"F	c #61CACA",
"G	c #5EC9C9",
"H	c #194C4C",
"I	c #7BD3D3",
"J	c #82D5D5",
"K	c #7FD4D4",
"L	c #4FC4C4",
"M	c #287979",
"N	c #36A2A2",
"O	c #38A9A9",
"P	c #309393",
"Q	c #0F2C2C",
"R	c #0D2828",
"S	c #1E5B5B",
"T	c #194E4E",
"                ",
"     .+@#$%&*=-;",
"     >,')!~{]^/(",
"     _:&<[}(|*12",
"     345     678",
"     90a     abc",
"     *d<     |ef",
"     g^h     [ij",
"     kl}     mno",
"     pq(   <[rst",
"   =kuvw  x9nyzA",
"  uB7CDE k#FG-H ",
" #IJKL(  MN-}t  ",
" O93Pc    tQR   ",
"  STj           ",
"                "};
