/* XPM */
static const char * settings_midiport_softsynths_xpm[] = {
"16 16 7 1",
" 	c None",
".	c #818191",
"+	c #808090",
"@	c #7F7F8F",
"#	c #C2DDFF",
"$	c #7F7E8E",
"%	c #7F7E8D",
" .+++++++++++++ ",
"++++@@@@@@@@@+++",
"++++@######@@+++",
"++++#@@@@@@#@+++",
"+++#@@@##@@@#+++",
"++#@@@@##@@@@#+$",
"++#@##@@@@##@#+$",
"++#@##@@@@##@#++",
"++#@@@@@@@@@@#+$",
"++#@##@@@@##@#+%",
"++#@##@@@@##@#++",
"++@#@@@@@@@@#@++",
"++@@#@@@@@@#@@++",
"++@@@######@@@++",
"++++++++++++++++",
" .+++++++++++++ "};
