/* XPM */
static const char * settings_appearance_settings_xpm[] = {
"16 16 204 2",
"  	c None",
". 	c #35D10C",
"+ 	c #55D215",
"@ 	c #74D418",
"# 	c #8CD618",
"$ 	c #A2D813",
"% 	c #B9DB0D",
"& 	c #09D020",
"* 	c #3DD73A",
"= 	c #7CE66A",
"- 	c #AAF388",
"; 	c #C4F996",
"> 	c #D3FB97",
", 	c #DBF787",
"' 	c #E0EF68",
") 	c #E5E71A",
"! 	c #EBD50A",
"~ 	c #0ED54C",
"{ 	c #58E174",
"] 	c #99F6A1",
"^ 	c #A6FF9E",
"/ 	c #9EFF7B",
"( 	c #AEFF70",
"_ 	c #C7FF70",
": 	c #E3FF7C",
"< 	c #FAFFA5",
"[ 	c #FBF498",
"} 	c #F5D855",
"| 	c #F9B70D",
"1 	c #09DA77",
"2 	c #57E294",
"3 	c #9DF9BB",
"4 	c #6EFF8A",
"5 	c #76FF79",
"6 	c #97FF82",
"7 	c #B6FF89",
"8 	c #D1FF87",
"9 	c #ECFF7E",
"0 	c #FEFB6D",
"a 	c #FFE876",
"b 	c #FCDF9B",
"c 	c #FBBA54",
"d 	c #F68207",
"e 	c #38E1A0",
"f 	c #97F6CB",
"g 	c #6CFFAE",
"h 	c #7AFFA4",
"i 	c #8DFF9D",
"j 	c #A3FF9B",
"k 	c #C4FFA4",
"l 	c #DFFFA2",
"m 	c #F8FF97",
"n 	c #FFEF85",
"o 	c #FFD36E",
"p 	c #FFC578",
"q 	c #FCC592",
"r 	c #F46E14",
"s 	c #08E6B2",
"t 	c #67EBC6",
"u 	c #9BFFDD",
"v 	c #6FFFC5",
"w 	c #8CFFC3",
"x 	c #A1FFBE",
"y 	c #B3FFB9",
"z 	c #CFFFBD",
"A 	c #EEFFBD",
"B 	c #FFF8B0",
"C 	c #FFDE99",
"D 	c #FFC27E",
"E 	c #FFA363",
"F 	c #FFBD9E",
"G 	c #F88359",
"H 	c #E23603",
"I 	c #0EEACD",
"J 	c #82F5E4",
"K 	c #6FFFE5",
"L 	c #79FFE0",
"M 	c #95FFE0",
"N 	c #AFFFDF",
"O 	c #C7FFDC",
"P 	c #E0FFDC",
"Q 	c #FAFED9",
"R 	c #FFE9C5",
"S 	c #FFCAA7",
"T 	c #FFAA87",
"U 	c #FF8B69",
"V 	c #FF8E78",
"W 	c #FB8673",
"X 	c #DD2208",
"Y 	c #0EECEA",
"Z 	c #92FAF9",
"` 	c #64FDFA",
" .	c #7BFDFA",
"..	c #98FDF9",
"+.	c #B5FDFA",
"@.	c #D3FEFA",
"#.	c #EFFEFA",
"$.	c #FFF3EF",
"%.	c #FFD5D0",
"&.	c #FFB3AF",
"*.	c #FF918D",
"=.	c #FF6F6C",
"-.	c #FF6967",
";.	c #FB8382",
">.	c #D90D09",
",.	c #0EDAF1",
"'.	c #90F2FF",
").	c #62E9FF",
"!.	c #76E8FF",
"~.	c #93E7FF",
"{.	c #B0E7FF",
"].	c #CAE6FF",
"^.	c #E5E5FF",
"/.	c #FDDEFC",
"(.	c #FFC6E1",
"_.	c #FFA6C2",
":.	c #FF84A1",
"<.	c #FF667E",
"[.	c #FF6476",
"}.	c #F67B88",
"|.	c #D5081A",
"1.	c #09BFF5",
"2.	c #80DDFE",
"3.	c #6CD1FF",
"4.	c #6BC7FF",
"5.	c #85C7FF",
"6.	c #9EC4FF",
"7.	c #B3BDFF",
"8.	c #D0BFFF",
"9.	c #F1BFFF",
"0.	c #FFB0F4",
"a.	c #FF96D6",
"b.	c #FF79B6",
"c.	c #FF5E95",
"d.	c #FF7799",
"e.	c #EC6582",
"f.	c #D0042A",
"g.	c #00A6FB",
"h.	c #60BEFD",
"i.	c #9CD0FF",
"j.	c #5BA5FF",
"k.	c #71A2FF",
"l.	c #849AFF",
"m.	c #9B97FF",
"n.	c #BF9FFF",
"o.	c #E09FFF",
"p.	c #FB92FE",
"q.	c #FF7CE7",
"r.	c #FF66C9",
"s.	c #FF4FA8",
"t.	c #FD95BE",
"u.	c #DD4072",
"v.	c #0B7CF8",
"w.	c #8EB9FB",
"x.	c #6A97FF",
"y.	c #5B79FF",
"z.	c #6B71FF",
"A.	c #8976FF",
"B.	c #AD7CFF",
"C.	c #CD7BFF",
"D.	c #ED71FF",
"E.	c #FF63F7",
"F.	c #FF52D9",
"G.	c #FF7CCF",
"H.	c #EC73B3",
"I.	c #CC0659",
"J.	c #0056F0",
"K.	c #4477F0",
"L.	c #92A6FC",
"M.	c #6F7BFF",
"N.	c #5851FF",
"O.	c #795AFF",
"P.	c #9B5EFF",
"Q.	c #BC5CFF",
"R.	c #DA57FF",
"S.	c #F74CFF",
"T.	c #FF7BF1",
"U.	c #F185D6",
"V.	c #CF3497",
"W.	c #002AE2",
"X.	c #4052E9",
"Y.	c #8485F8",
"Z.	c #9F96FF",
"`.	c #9174FF",
" +	c #9A60FF",
".+	c #B760FF",
"++	c #D878FF",
"@+	c #EF92FC",
"#+	c #EA71E8",
"$+	c #CC32B6",
"%+	c #BD0089",
"&+	c #0004D3",
"*+	c #0C04D4",
"=+	c #5940E1",
"-+	c #8463EE",
";+	c #A173F3",
">+	c #B271F0",
",+	c #B65AE4",
"'+	c #B436D2",
")+	c #B402BE",
"!+	c #3100BF",
"~+	c #4401BE",
"{+	c #5A00BB",
"]+	c #7200B9",
"          . + @ # $ %           ",
"      & * = - ; > , ' ) !       ",
"    ~ { ] ^ / ( _ : < [ } |     ",
"  1 2 3 4 5 6 7 8 9 0 a b c d   ",
"  e f g h i j k l m n o p q r   ",
"s t u v w x y z A B C D E F G H ",
"I J K L M N O P Q R S T U V W X ",
"Y Z `  ...+.@.#.$.%.&.*.=.-.;.>.",
",.'.).!.~.{.].^./.(._.:.<.[.}.|.",
"1.2.3.4.5.6.7.8.9.0.a.b.c.d.e.f.",
"g.h.i.j.k.l.m.n.o.p.q.r.s.t.u.  ",
"  v.w.x.y.z.A.B.C.D.E.F.G.H.I.  ",
"  J.K.L.M.N.O.P.Q.R.S.T.U.V.    ",
"    W.X.Y.Z.`. +.+++@+#+$+%+    ",
"      &+*+=+-+;+>+,+'+)+        ",
"            !+~+{+]+            "};
