/* XPM */
static const char * track_comment_xpm[] = {
"14 12 123 2",
"  	c None",
". 	c #FEDFB6",
"+ 	c #FAD2A2",
"@ 	c #F9D19C",
"# 	c #F8CD97",
"$ 	c #F7CA92",
"% 	c #F6C68C",
"& 	c #F5C285",
"* 	c #F4BF7E",
"= 	c #F4BA76",
"- 	c #F1B66E",
"; 	c #F0B265",
"> 	c #F0AD5D",
", 	c #FDDCB2",
"' 	c #FFFEFA",
") 	c #FEFDFA",
"! 	c #FFFDFA",
"~ 	c #EEA853",
"{ 	c #F6CC97",
"] 	c #FFFDF9",
"^ 	c #FEFBF0",
"/ 	c #FEFCF0",
"( 	c #FDFBEE",
"_ 	c #FDFBEF",
": 	c #FDFBF0",
"< 	c #FEFDF7",
"[ 	c #EDA34A",
"} 	c #F5C893",
"| 	c #FDF7E1",
"1 	c #F9EAAA",
"2 	c #F9E8A3",
"3 	c #F8E79D",
"4 	c #F8E596",
"5 	c #F7E390",
"6 	c #F7E188",
"7 	c #F6DF80",
"8 	c #F5DD77",
"9 	c #FBF1C8",
"0 	c #EB9E40",
"a 	c #F4C58C",
"b 	c #FDF7DD",
"c 	c #F8E8A2",
"d 	c #F8E595",
"e 	c #F7E38F",
"f 	c #F7E187",
"g 	c #F6DF7F",
"h 	c #F4DB6D",
"i 	c #FBF0C4",
"j 	c #EA9837",
"k 	c #F0B979",
"l 	c #FCF6DB",
"m 	c #F8E79C",
"n 	c #F7E186",
"o 	c #F5DF7E",
"p 	c #F5DD76",
"q 	c #F4D964",
"r 	c #FBF0C0",
"s 	c #E9942C",
"t 	c #EEB671",
"u 	c #F4D19E",
"v 	c #F0CA78",
"w 	c #F0C772",
"x 	c #F0C66E",
"y 	c #EDBE60",
"z 	c #F4DB6C",
"A 	c #F3D65B",
"B 	c #FBEFBE",
"C 	c #E88F23",
"D 	c #EBAD5E",
"E 	c #F0C383",
"F 	c #FCF3D3",
"G 	c #FCF3D1",
"H 	c #FAEDB2",
"I 	c #EDBC5B",
"J 	c #F4DA6C",
"K 	c #F4D962",
"L 	c #F3D65A",
"M 	c #F3D451",
"N 	c #FBEEBA",
"O 	c #E58A1A",
"P 	c #ECAC5D",
"Q 	c #EBAD55",
"R 	c #EBAF47",
"S 	c #F9E9AC",
"T 	c #FAEAAD",
"U 	c #EBBB56",
"V 	c #F3D450",
"W 	c #F3D249",
"X 	c #F9EDB7",
"Y 	c #E48511",
"Z 	c #EBAB5D",
"` 	c #F8E3B4",
" .	c #E69F32",
"..	c #E9AB3B",
"+.	c #F8E9A8",
"@.	c #EBBA4E",
"#.	c #F2D248",
"$.	c #F2D142",
"%.	c #F9EDB4",
"&.	c #E38108",
"*.	c #EBA755",
"=.	c #F9E6B6",
"-.	c #F1D195",
";.	c #E8A74B",
">.	c #EBAF5A",
",.	c #EEC27D",
"'.	c #FBEEBB",
").	c #F9EEBA",
"!.	c #F9EDB3",
"~.	c #F9EDB2",
"{.	c #E27D01",
"].	c #EAA34D",
"^.	c #E89E46",
"/.	c #E79A3E",
"(.	c #E69535",
"_.	c #E28C1E",
":.	c #E28C20",
"<.	c #E48D21",
"[.	c #E38919",
"}.	c #E38312",
"|.	c #E1810A",
"1.	c #E07D03",
"2.	c #DF7900",
"  . + @ # $ % & * = - ; >   ",
"  , ' ' ' ' ' ) ! ' ' ! ~   ",
"  { ] ^ ^ / ( _ _ : : < [   ",
"  } | 1 2 3 4 5 6 7 8 9 0   ",
"  a b c 3 d e f g 8 h i j   ",
"  k l m d e n o p h q r s   ",
"  t u v w x y p z q A B C   ",
"  D E F G H I J K L M N O   ",
"  P Q R S T U K L V W X Y   ",
"  Z `  ...+.@.L V #.$.%.&.  ",
"  *.=.-.;.>.,.'.).X !.~.{.  ",
"  ].^./.(._.:.<.[.}.|.1.2.  "};
