/* XPM */
static const char * user_xpm[] = {
"34 34 478 2",
"  	c None",
". 	c #5783BA",
"+ 	c #4F7DB4",
"@ 	c #517CB4",
"# 	c #507DB5",
"$ 	c #517EB5",
"% 	c #527CB5",
"& 	c #4F7EB5",
"* 	c #507CB5",
"= 	c #517FB6",
"- 	c #5783BB",
"; 	c #4771A4",
"> 	c #A6C9F1",
", 	c #8FB8E9",
"' 	c #8CB5E9",
") 	c #8AB5E9",
"! 	c #8DB6E9",
"~ 	c #8EB6EA",
"{ 	c #94BBEB",
"] 	c #93B6E0",
"^ 	c #4E79B1",
"/ 	c #517EB4",
"( 	c #517DB6",
"_ 	c #527DB6",
": 	c #507DB6",
"< 	c #4F7DB6",
"[ 	c #4E7DB6",
"} 	c #406896",
"| 	c #74A3DF",
"1 	c #5E93D6",
"2 	c #6194D6",
"3 	c #5F94D6",
"4 	c #6094D6",
"5 	c #7BA8DE",
"6 	c #7BA8DF",
"7 	c #7FA9DF",
"8 	c #7EA9E0",
"9 	c #81AAE0",
"0 	c #80AAE0",
"a 	c #84ADE1",
"b 	c #86AFE2",
"c 	c #88AFE2",
"d 	c #89B1E3",
"e 	c #8EB2E3",
"f 	c #8DB3E3",
"g 	c #8EB4E4",
"h 	c #90B5E4",
"i 	c #92B6E5",
"j 	c #93B7E5",
"k 	c #96B8E5",
"l 	c #95B9E5",
"m 	c #98BAE6",
"n 	c #95BBE7",
"o 	c #5A84BA",
"p 	c #3D628F",
"q 	c #6093D3",
"r 	c #6090D0",
"s 	c #5C90D0",
"t 	c #5D90D0",
"u 	c #5D8FCF",
"v 	c #598CCC",
"w 	c #5785C2",
"x 	c #4F7EB9",
"y 	c #4C7DB7",
"z 	c #4D7CB7",
"A 	c #4C7CB7",
"B 	c #4B7CB7",
"C 	c #4E7CB7",
"D 	c #4B7BB7",
"E 	c #4D7BB7",
"F 	c #4A7BB7",
"G 	c #497AB6",
"H 	c #618EC5",
"I 	c #42689A",
"J 	c #3E6392",
"K 	c #578ACA",
"L 	c #5788C7",
"M 	c #5688C7",
"N 	c #5888C7",
"O 	c #5988C6",
"P 	c #5587C5",
"Q 	c #517EBA",
"R 	c #3D6A9D",
"S 	c #295284",
"T 	c #244D7E",
"U 	c #254D7D",
"V 	c #254E7D",
"W 	c #244E7D",
"X 	c #264E7D",
"Y 	c #264F7D",
"Z 	c #254F7D",
"` 	c #254F7E",
" .	c #30598A",
"..	c #224671",
"+.	c #355884",
"@.	c #4776AE",
"#.	c #4574AC",
"$.	c #4774AC",
"%.	c #4674AD",
"&.	c #4774AD",
"*.	c #4671AA",
"=.	c #3B669A",
"-.	c #224778",
";.	c #C4DEEF",
">.	c #C8E4F6",
",.	c #BBDAF2",
"'.	c #BBDBF2",
").	c #BADBF2",
"!.	c #BADAF1",
"~.	c #B9D9F2",
"{.	c #A8C8E5",
"].	c #18375D",
"^.	c #214A79",
"/.	c #204877",
"(.	c #204979",
"_.	c #214978",
":.	c #204878",
"<.	c #204777",
"[.	c #1C436F",
"}.	c #34567E",
"|.	c #BAD7EF",
"1.	c #8FB0DC",
"2.	c #8DB0DC",
"3.	c #8FB1DC",
"4.	c #8EB1DC",
"5.	c #8FB2DD",
"6.	c #91B2DD",
"7.	c #93B4DF",
"8.	c #90B1DD",
"9.	c #8DB1DC",
"0.	c #90B2DE",
"a.	c #7E9CC1",
"b.	c #7DA1C3",
"c.	c #BFDFF7",
"d.	c #BADAF2",
"e.	c #AFD1ED",
"f.	c #93B7DE",
"g.	c #90B2DC",
"h.	c #8FB2DC",
"i.	c #8FB3DC",
"j.	c #93B5DE",
"k.	c #5B8ABE",
"l.	c #4477B1",
"m.	c #80A7D3",
"n.	c #91B4DD",
"o.	c #92B4DF",
"p.	c #6E8AAC",
"q.	c #5A83B1",
"r.	c #92B2DE",
"s.	c #8AAEDB",
"t.	c #8EB0DB",
"u.	c #8CAEDB",
"v.	c #8BAEDB",
"w.	c #8DAEDB",
"x.	c #8BB0DB",
"y.	c #8EB1DD",
"z.	c #8FB1DD",
"A.	c #8EB2DD",
"B.	c #78A0CF",
"C.	c #356CA9",
"D.	c #4578B1",
"E.	c #4E7FB7",
"F.	c #336AA7",
"G.	c #5E8BC0",
"H.	c #8EB2DC",
"I.	c #90B3DF",
"J.	c #6781A1",
"K.	c #547CAA",
"L.	c #91B4DF",
"M.	c #8DB0DB",
"N.	c #8CB0DB",
"O.	c #8FB0DB",
"P.	c #8BAFDB",
"Q.	c #4C7EB5",
"R.	c #346DA9",
"S.	c #5183BA",
"T.	c #5685BB",
"U.	c #5385BA",
"V.	c #5585BB",
"W.	c #4276AF",
"X.	c #396FAB",
"Y.	c #82A8D5",
"Z.	c #8CB1DB",
"`.	c #8EB3DE",
" +	c #65809F",
".+	c #547DAA",
"++	c #8FB2DF",
"@+	c #8AAFDB",
"#+	c #8CAFDB",
"$+	c #8EAFDB",
"%+	c #90B3DE",
"&+	c #6C95C8",
"*+	c #3168A6",
"=+	c #487AB4",
"-+	c #5584BA",
";+	c #5383BA",
">+	c #5384BA",
",+	c #4F80B8",
"'+	c #3068A5",
")+	c #618CC1",
"!+	c #8FB2DE",
"~+	c #8EB1DE",
"{+	c #667E9E",
"]+	c #537BAA",
"^+	c #8FB1DE",
"/+	c #88ADDB",
"(+	c #89AEDB",
"_+	c #8AADDB",
":+	c #88AEDB",
"<+	c #8BADDB",
"[+	c #84A8D5",
"}+	c #4074AF",
"|+	c #3B70AB",
"1+	c #5282BA",
"2+	c #5282B9",
"3+	c #5182BA",
"4+	c #5382BA",
"5+	c #5583B9",
"6+	c #5583BA",
"7+	c #3F73AE",
"8+	c #3B71AC",
"9+	c #82A7D5",
"0+	c #8AB0DD",
"a+	c #627E9E",
"b+	c #8DB0DE",
"c+	c #87ACDB",
"d+	c #8CADDB",
"e+	c #88ACDB",
"f+	c #89ADDB",
"g+	c #87ADDB",
"h+	c #84A8D7",
"i+	c #2E67A4",
"j+	c #4C7DB6",
"k+	c #5383B9",
"l+	c #5283BA",
"m+	c #84AAD8",
"n+	c #8DAFDD",
"o+	c #617D9E",
"p+	c #527AAA",
"q+	c #85ACDA",
"r+	c #86ACDA",
"s+	c #87ACDA",
"t+	c #86ABDA",
"u+	c #89ADDA",
"v+	c #88ABDA",
"w+	c #87ABDA",
"x+	c #87AAD8",
"y+	c #5385BC",
"z+	c #497DB6",
"A+	c #5081B9",
"B+	c #5081BA",
"C+	c #5082BA",
"D+	c #4D7EB7",
"E+	c #4D7EB6",
"F+	c #4C7EB7",
"G+	c #4A7DB6",
"H+	c #5284BB",
"I+	c #89ACD8",
"J+	c #88AEDD",
"K+	c #627C9E",
"L+	c #527BAA",
"M+	c #89AEDD",
"N+	c #84ABDA",
"O+	c #84AADA",
"P+	c #85ABDA",
"Q+	c #9FBCE3",
"R+	c #A8C4E8",
"S+	c #4376AB",
"T+	c #4F82BA",
"U+	c #4D7FB7",
"V+	c #92B2DB",
"W+	c #A4C0E5",
"X+	c #92B5DD",
"Y+	c #4677AC",
"Z+	c #4A7DB8",
"`+	c #A8C2E7",
" @	c #A1BCE3",
".@	c #88AEDC",
"+@	c #5F7B9D",
"@@	c #86ADDD",
"#@	c #84A9D9",
"$@	c #86ABD9",
"%@	c #84AAD9",
"&@	c #82AAD9",
"*@	c #87AAD9",
"=@	c #85AAD9",
"-@	c #82A9D9",
";@	c #86AAD9",
">@	c #81A9D9",
",@	c #4576AC",
"'@	c #4F81BA",
")@	c #4F81B9",
"!@	c #5080B9",
"~@	c #8CB0DD",
"{@	c #83A8D9",
"]@	c #82A8D9",
"^@	c #8DB1DE",
"/@	c #4476AC",
"(@	c #4C7DB8",
"_@	c #86ACDB",
":@	c #83A9D9",
"<@	c #83AAD9",
"[@	c #88ACDD",
"}@	c #5E7A9D",
"|@	c #517AAA",
"1@	c #8BAFDC",
"2@	c #80A8D9",
"3@	c #81A8D9",
"4@	c #84A8D9",
"5@	c #85A8D9",
"6@	c #87ACDC",
"7@	c #4475AB",
"8@	c #4D80B9",
"9@	c #4D7FB9",
"0@	c #4F7FB9",
"a@	c #497CB6",
"b@	c #87ABDB",
"c@	c #89ADDC",
"d@	c #4575AB",
"e@	c #4A7CB7",
"f@	c #84ABDB",
"g@	c #83AADB",
"h@	c #5E7A9C",
"i@	c #5079A9",
"j@	c #87ABDC",
"k@	c #82A7D8",
"l@	c #81A7D8",
"m@	c #84A7D8",
"n@	c #7FA7D8",
"o@	c #80A7D8",
"p@	c #86A8D8",
"q@	c #83A7D8",
"r@	c #84ABDC",
"s@	c #4675AB",
"t@	c #4E7FB9",
"u@	c #4C7FB9",
"v@	c #4B7CB6",
"w@	c #87AADA",
"x@	c #85AADA",
"y@	c #86AADB",
"z@	c #5F799C",
"A@	c #8AAEDF",
"B@	c #88ABDB",
"C@	c #85AADC",
"D@	c #86AADC",
"E@	c #89AADC",
"F@	c #87AADC",
"G@	c #88AADC",
"H@	c #8AABDB",
"I@	c #88AEDF",
"J@	c #4374AB",
"K@	c #4D7EB9",
"L@	c #497BB5",
"M@	c #8BADDE",
"N@	c #85AADB",
"O@	c #8EAFDF",
"P@	c #497CB7",
"Q@	c #89AEDE",
"R@	c #8AAADB",
"S@	c #89ADDE",
"T@	c #607A9C",
"U@	c #185493",
"V@	c #2761A1",
"W@	c #235F9F",
"X@	c #2460A0",
"Y@	c #245FA0",
"Z@	c #225FA0",
"`@	c #235FA0",
" #	c #2560A0",
".#	c #245F9F",
"+#	c #255FA0",
"@#	c #4978AE",
"##	c #4B7FB9",
"$#	c #4D7EB8",
"%#	c #4C7EB8",
"&#	c #4B7EB8",
"*#	c #4E80B9",
"=#	c #205D9E",
"-#	c #25609F",
";#	c #225EA0",
">#	c #4A77AE",
",#	c #215D9E",
"'#	c #225F9F",
")#	c #2561A1",
"!#	c #1C538F",
"~#	c #30649D",
"{#	c #4F81BB",
"]#	c #4F80B9",
"^#	c #4D7DB8",
"/#	c #4B7DB7",
"(#	c #4E80BB",
"_#	c #386394",
":#	c #2D619B",
"<#	c #477BB6",
"[#	c #4578B4",
"}#	c #4479B4",
"|#	c #4579B4",
"1#	c #4478B4",
"2#	c #4379B4",
"3#	c #4778B4",
"4#	c #4679B4",
"5#	c #4678B4",
"6#	c #4279B4",
"7#	c #4378B4",
"8#	c #457AB6",
"9#	c #325F93",
"0#	c #668AB3",
"a#	c #93B3E2",
"b#	c #92B1DE",
"c#	c #93B2DE",
"d#	c #90B1DE",
"e#	c #91B2DE",
"f#	c #93B1DE",
"g#	c #91B1DE",
"h#	c #94B2DE",
"i#	c #92B3E1",
"j#	c #6F88A8",
"k#	c #4D76A7",
"l#	c #7FA3D8",
"m#	c #78A1D4",
"n#	c #77A0D4",
"o#	c #78A0D4",
"p#	c #7CA0D4",
"q#	c #79A0D4",
"r#	c #7BA0D4",
"s#	c #7CA1D4",
"t#	c #7AA1D4",
"u#	c #7DA0D4",
"v#	c #7BA1D4",
"w#	c #7AA0D4",
"x#	c #7FA2D7",
"y#	c #557399",
"z#	c #4B76A8",
"A#	c #759CCF",
"B#	c #6D9ACE",
"C#	c #709CCE",
"D#	c #6F9CCE",
"E#	c #729DCE",
"F#	c #779ECE",
"G#	c #729CCE",
"H#	c #719CCE",
"I#	c #749CCE",
"J#	c #759ECE",
"K#	c #6B9CCE",
"L#	c #719DCE",
"M#	c #769ECE",
"N#	c #769DCE",
"O#	c #6E9CCE",
"P#	c #729ACF",
"Q#	c #567399",
"R#	c #5179AA",
"S#	c #6688C0",
"T#	c #678BC2",
"U#	c #688DC2",
"V#	c #688CC2",
"W#	c #6E8FC2",
"X#	c #648BC2",
"Y#	c #658DC3",
"Z#	c #6B8EC3",
"`#	c #678CC3",
" $	c #648CC3",
".$	c #688CC3",
"+$	c #698BC3",
"@$	c #6B8DC3",
"#$	c #668BC3",
"$$	c #6E90C3",
"%$	c #658BC3",
"&$	c #668CC3",
"*$	c #688EC3",
"=$	c #668AC3",
"-$	c #658CC3",
";$	c #6D8EC3",
">$	c #6C8DC2",
",$	c #688BC2",
"'$	c #698DC2",
")$	c #648ABF",
"!$	c #6384B1",
"~$	c #000C1E",
"                                                                    ",
"                                                                    ",
"                                                                    ",
"    . + @ # $ % & * = -                                             ",
"    ; > , ' ) ! ~ { ] ^ / ( _ ( ( : _ ( ( : ( ( < : ( [ ( : *       ",
"    } | 1 2 3 2 2 4 5 6 7 8 9 0 a a b c d e f g h i j k l m n o     ",
"    p q r s t t t t u v w x y z z A A z z A B C A D E F A G H I     ",
"    J K L L M N L O P Q R S T U V W X W V V Y V V X Z V V `  ...    ",
"    +.@.#.$.%.&.&.%.*.=.-.;.>.,.'.).).).).).).'.'.'.'.'.).).!.~.{.  ",
"    ].^./.(._.:.:.:.<.[.}.|.1.2.3.4.4.4.5.6.7.8.9.3.9.3.4.4.4.0.a.  ",
"  b.c.d.!.!.!.d.d.d.d.d.e.f.g.h.h.h.g.i.j.k.l.m.n.i.g.h.h.g.g.o.p.  ",
"  q.r.s.t.u.s.v.v.v.w.u.x.8.y.6.z.A.o.B.C.D.E.F.G.o.H.6.y.y.y.I.J.  ",
"  K.L.t.M.N.N.M.x.M.N.x.x.O.M.x.4.P.Q.R.S.T.U.V.W.X.Y.h.Z.M.x.`. +  ",
"  .+++s.P.v.P.@+#+s.$+@+$+P.P.%+&+*+=+V.-+-+;+-+>+,+'+)+!+#+s.~+{+  ",
"  ]+^+u.s.u./+(+_+:+/+s.s.<+[+}+|+1+2+1+3+1+4+4+4+5+6+7+8+9+@+0+a+  ",
"  K.b+_+/+c+d+e+/+f+/+g+_+h+i+j+;+k+l+3+;+S.S.l+1+;+l+;+E.i+m+n+o+  ",
"  p+b+q+r+s+t+u+v+w+q+s+v+x+y+z+3+A+B+4+B+C+D+z+E+F+C+3+G+H+I+J+K+  ",
"  L+M+N+O+N+t+P+O+t+w+O+P+t+Q+R+S+3+C+T+C+U+V+W+W+X+Y+Z+`+ @N+.@+@  ",
"  L+@@#@$@%@&@#@*@=@-@%@;@-@>@.@,@'@)@)@!@G+~@{@]@^@/@(@_@:@<@[@}@  ",
"  |@1@{@{@2@3@3@4@2@{@{@5@$@{@6@7@8@9@0@9@a@b@4@;@c@d@e@f@3@4@g@h@  ",
"  i@j@k@l@m@n@k@o@p@q@k@k@q@k@r@s@9@t@u@0@v@w@q@l@j@7@B x@l@o@y@z@  ",
"  L+A@B@C@D@E@D@F@G@C@F@D@C@H@I@J@t@u@t@K@L@M@N@N@O@J@P@Q@b@R@S@T@  ",
"  U@V@W@X@Y@Z@Y@`@`@X@Y@`@ #.#+#@###$#%#&#*#=#.#-#;#>#'@,#W@'#)#!#  ",
"  ~#{#]#0@9@9@9@9@]#t@t@9@*#*#9@^#/#Z+Z+Z+D+8@t@8@9@%#y *#9@9@(#_#  ",
"  :#<#[#}#}#}#|#1#}#1#2#3#4#[#2#4#}#|#}#1#1#}#[#|#5#6#4#7#4#}#8#9#  ",
"  0#a#r.b#c#^+^+c#^@r.^+r.d#e#f#r.^+g#d#0.e#~+e#^+h#b#d#e#b#^@i#j#  ",
"  k#l#m#n#o#p#q#r#q#o#o#s#r#t#q#n#r#q#o#u#o#q#q#s#v#o#o#w#o#w#x#y#  ",
"  z#A#B#C#D#E#F#G#H#C#I#G#J#K#C#D#L#G#M#H#C#G#G#N#O#C#D#L#H#J#P#Q#  ",
"  R#S#T#U#V#W#X#Y#Z#`# $Z#.$+$@$#$$$%$&$*$=$-$&$;$#$>$,$'$'$X#)$!$  ",
"                                  ~$                                ",
"                                                                    ",
"                                                                    ",
"                                                                    ",
"                                                                    "};
