/* XPM */
static const char * view_bigtime_window_xpm[] = {
"16 16 157 2",
"  	c None",
". 	c #C6AB7E",
"+ 	c #CDB378",
"@ 	c #D0B87B",
"# 	c #CDB47A",
"$ 	c #C4A971",
"% 	c #B99D71",
"& 	c #C2AA86",
"* 	c #D2BA78",
"= 	c #E3D9C8",
"- 	c #EAE7DD",
"; 	c #F1F1EE",
"> 	c #F0F0EC",
", 	c #E4E0D2",
"' 	c #D2C4A8",
") 	c #B89C67",
"! 	c #C0A885",
"~ 	c #DCCC97",
"{ 	c #EEEBE1",
"] 	c #D9E1EE",
"^ 	c #ACBEDF",
"/ 	c #96ADD5",
"( 	c #92AAD4",
"_ 	c #A3B7DC",
": 	c #CEDAE8",
"< 	c #DFD9C6",
"[ 	c #B69B68",
"} 	c #CCB374",
"| 	c #ECE9DF",
"1 	c #C2CFE6",
"2 	c #AEBFDF",
"3 	c #DCE3F1",
"4 	c #ECF1F3",
"5 	c #EBF1F4",
"6 	c #D9E2F1",
"7 	c #A3BADC",
"8 	c #AFC1DE",
"9 	c #D8CFB7",
"0 	c #A48358",
"a 	c #BCA177",
"b 	c #DBCFB7",
"c 	c #D7E0ED",
"d 	c #AABDDE",
"e 	c #FFFFFF",
"f 	c #EEF0F0",
"g 	c #DAE5E7",
"h 	c #F7FFFF",
"i 	c #F3FEFF",
"j 	c #98B4DC",
"k 	c #C4D1E1",
"l 	c #BBA473",
"m 	c #987C59",
"n 	c #BEA26D",
"o 	c #E6E1D3",
"p 	c #A4B9DB",
"q 	c #D6E3F1",
"r 	c #F5FBFE",
"s 	c #F3F5F5",
"t 	c #959E9F",
"u 	c #E9F0F0",
"v 	c #F2F8F8",
"w 	c #ADB9BE",
"x 	c #C2DAF0",
"y 	c #8BA7D1",
"z 	c #D3CAA9",
"A 	c #9B7B53",
"B 	c #BDA16C",
"C 	c #EEECE4",
"D 	c #8AA5D1",
"E 	c #E9F6FA",
"F 	c #EEF8FD",
"G 	c #F9FFFF",
"H 	c #798081",
"I 	c #A4AEB1",
"J 	c #777F81",
"K 	c #BAC6C9",
"L 	c #D3F0FA",
"M 	c #7295C9",
"N 	c #E2DFC9",
"O 	c #9E7B54",
"P 	c #B89A67",
"Q 	c #ECEADD",
"R 	c #819FCF",
"S 	c #E2F3FA",
"T 	c #E9F6FD",
"U 	c #E3F0F2",
"V 	c #848C8D",
"W 	c #C2CFD2",
"X 	c #EBFBFF",
"Y 	c #CCECFA",
"Z 	c #6D90C7",
"` 	c #E1DDC1",
" .	c #9D7953",
"..	c #AD8E5E",
"+.	c #DDD3B7",
"@.	c #90AAD1",
"#.	c #C1DBF0",
"$.	c #E6F7FF",
"%.	c #E3F2FA",
"&.	c #B6C0C5",
"*.	c #DEEDF1",
"=.	c #E8FCFF",
"-.	c #DFF5FF",
";.	c #AFD4EF",
">.	c #7B9BC9",
",.	c #D0C292",
"'.	c #957550",
").	c #A0855E",
"!.	c #C0A978",
"~.	c #C6D1DA",
"{.	c #88AAD9",
"].	c #EBFEFF",
"^.	c #EEFAFF",
"/.	c #F2FDFF",
"(.	c #F2FEFF",
"_.	c #EFFCFF",
":.	c #EBFDFF",
"<.	c #7AA3D9",
"[.	c #B9C6CB",
"}.	c #B19458",
"|.	c #907454",
"1.	c #A28257",
"2.	c #D8CCA2",
"3.	c #A5B7CD",
"4.	c #89AAD8",
"5.	c #CFDFEF",
"6.	c #F3F6FA",
"7.	c #F3F5FA",
"8.	c #D1DFEF",
"9.	c #85A7D7",
"0.	c #98ACC3",
"a.	c #CEBD82",
"b.	c #94714D",
"c.	c #A68855",
"d.	c #D6C896",
"e.	c #BFCACC",
"f.	c #869FC8",
"g.	c #7692C5",
"h.	c #7390C4",
"i.	c #809AC4",
"j.	c #B9C4C3",
"k.	c #CDBD7D",
"l.	c #987747",
"m.	c #8F775A",
"n.	c #9A7850",
"o.	c #B1975A",
"p.	c #CEBD85",
"q.	c #DED6A4",
"r.	c #DED5A0",
"s.	c #CBB97B",
"t.	c #AB8C4F",
"u.	c #94724D",
"v.	c #8F7659",
"w.	c #917553",
"x.	c #93724E",
"y.	c #97744D",
"z.	c #907452",
"                                ",
"          . + @ # $ %           ",
"      & * = - ; > , ' )         ",
"    ! ~ { ] ^ / ( _ : < [       ",
"    } | 1 2 3 4 5 6 7 8 9 0     ",
"  a b c d e f g h h i j k l m   ",
"  n o p q r s t u v w x y z A   ",
"  B C D E F G H I J K L M N O   ",
"  P Q R S T U V J W X Y Z `  .  ",
"  ..+.@.#.$.%.&.*.=.-.;.>.,.'.  ",
"  ).!.~.{.].^./.(._.:.<.[.}.|.  ",
"    1.2.3.4.5.6.7.8.9.0.a.b.    ",
"      c.d.e.f.g.h.i.j.k.l.m.    ",
"        n.o.p.q.r.s.t.u.v.      ",
"          w.x.y.y.x.z.          ",
"                                "};
