/* XPM */
static const char * view_mixer_xpm[] = {
"16 16 53 1",
" 	c None",
".	c #ED2763",
"+	c #E62D68",
"@	c #E62D67",
"#	c #E72D67",
"$	c #D43D74",
"%	c #D43E75",
"&	c #D43E74",
"*	c #D53D74",
"=	c #C24E80",
"-	c #C34E81",
";	c #C34E80",
">	c #C24E81",
",	c #C34F81",
"'	c #B05E8D",
")	c #B15E8D",
"!	c #B05F8D",
"~	c #B15F8E",
"{	c #B15F8D",
"]	c #B05F8E",
"^	c #9F6F9A",
"/	c #9E6F9A",
"(	c #9E6F99",
"_	c #9E709A",
":	c #8C7FA6",
"<	c #8D7FA6",
"[	c #8D80A6",
"}	c #8C80A6",
"|	c #8D80A7",
"1	c #7A90B3",
"2	c #7B90B3",
"3	c #7A91B3",
"4	c #7A91B2",
"5	c #68A1C0",
"6	c #69A1C0",
"7	c #69A1BF",
"8	c #68A0BF",
"9	c #68A0C0",
"0	c #68A1BF",
"a	c #69A0BF",
"b	c #69A0C0",
"c	c #56B1CC",
"d	c #56B2CC",
"e	c #57B1CC",
"f	c #45C2D8",
"g	c #44C2D9",
"h	c #45C1D9",
"i	c #45C2D9",
"j	c #45C1D8",
"k	c #44C2D8",
"l	c #33D2E5",
"m	c #32D2E5",
"n	c #33D3E5",
"                ",
"                ",
"    ...         ",
"    ++@     +#+ ",
"    $$%     &*% ",
"    =-; >=> --, ",
"    ')! ~!) !{] ",
"    ^// (_/ ^// ",
"    :<[ [}| }[[ ",
"121 121 132 143 ",
"567 890 577 ab0 ",
"cdc cec edc eee ",
"fgh hhi iif jkk ",
"lml mmm nml lmm ",
"                ",
"                "};
