/* XPM */
static const char * view_marker_xpm[] = {
"16 16 109 2",
"  	c None",
". 	c #A86B2F",
"+ 	c #C47427",
"@ 	c #C37625",
"# 	c #AB6D2B",
"$ 	c #886534",
"% 	c #87581D",
"& 	c #E97A0B",
"* 	c #FAA251",
"= 	c #FEE4CB",
"- 	c #FED4AC",
"; 	c #FC9331",
"> 	c #D77F2E",
", 	c #FBF7EF",
"' 	c #BB8436",
") 	c #F58A07",
"! 	c #F58905",
"~ 	c #F58804",
"{ 	c #F58504",
"] 	c #F58303",
"^ 	c #FCC693",
"/ 	c #FFEAD7",
"( 	c #FFF2E7",
"_ 	c #FFE4CD",
": 	c #FFE1C7",
"< 	c #C0B4A0",
"[ 	c #E2BC86",
"} 	c #A4722E",
"| 	c #F78709",
"1 	c #FFCB9B",
"2 	c #FFCD9F",
"3 	c #FFCA9B",
"4 	c #FFDAB8",
"5 	c #FFE2C8",
"6 	c #FFD9B6",
"7 	c #FFE7D1",
"8 	c #FFC895",
"9 	c #976E35",
"0 	c #E4C18F",
"a 	c #8F5F21",
"b 	c #F9810C",
"c 	c #FFA451",
"d 	c #FFA350",
"e 	c #FFBD81",
"f 	c #FFCC9F",
"g 	c #FFE0C4",
"h 	c #FFE1C5",
"i 	c #FFCC9D",
"j 	c #F0AA70",
"k 	c #AC7935",
"l 	c #DBAF6E",
"m 	c #FB8517",
"n 	c #FFCB9D",
"o 	c #FFA554",
"p 	c #FFA657",
"q 	c #FFBE82",
"r 	c #FFCFA5",
"s 	c #FFE5CD",
"t 	c #FFD9B7",
"u 	c #FFCA9A",
"v 	c #D7B093",
"w 	c #C08C42",
"x 	c #DFB77D",
"y 	c #CD7A18",
"z 	c #FEC48F",
"A 	c #FFBA7D",
"B 	c #FFAA5C",
"C 	c #FFAB5E",
"D 	c #FFBF85",
"E 	c #FFD3AA",
"F 	c #FFEEDF",
"G 	c #FFDCBD",
"H 	c #FFD8B5",
"I 	c #CCB29D",
"J 	c #D6A256",
"K 	c #C79246",
"L 	c #EB860C",
"M 	c #FF9E49",
"N 	c #FFB97C",
"O 	c #FFD2A9",
"P 	c #FFDEC0",
"Q 	c #FCCC9F",
"R 	c #F29F54",
"S 	c #F99F4D",
"T 	c #D0A579",
"U 	c #B07E3A",
"V 	c #F78A0B",
"W 	c #FEC794",
"X 	c #FFCEA3",
"Y 	c #FFCEA2",
"Z 	c #FED5B2",
"` 	c #F99435",
" .	c #EC7D0C",
"..	c #CE8B4B",
"+.	c #E5A160",
"@.	c #321D16",
"#.	c #D49E53",
"$.	c #9A6A2B",
"%.	c #AB6E29",
"&.	c #D57D16",
"*.	c #EC820A",
"=.	c #EA810A",
"-.	c #D87712",
";.	c #AA6A28",
">.	c #9C6B2C",
",.	c #B1803C",
"'.	c #CA974D",
").	c #BE8C45",
"!.	c #AC7B38",
"                                ",
"              . + @ # $ % %     ",
"            & * = - ; > , ' %   ",
"  ) ! ~ { ] ^ / ( _ : < [ }     ",
"  | 1 2 3 4 5 6 7 2 8 9 0 a     ",
"  b 1 c d e f g h i j k l %     ",
"  m n o p q r s t u v w x %     ",
"y z A B C D E F G H I J K %     ",
"L u d M N O P Q R S T J U %     ",
"V W X Y Z `  ...  +.@.#.$.      ",
"%.&.*.=.-.;.        >.J %       ",
"                  % ,.J %       ",
"                  % '.J %       ",
"                  % J ).%       ",
"                  % J !.        ",
"                  % % %         "};
