/* XPM */
static const char * view_transport_window_xpm[] = {
"16 16 104 2",
"  	c None",
". 	c #AEC6E3",
"+ 	c #C8D0DB",
"@ 	c #D3D5D7",
"# 	c #D2D4D6",
"$ 	c #C4CDD8",
"% 	c #AAC1DF",
"& 	c #A8C3E6",
"* 	c #D2D7DD",
"= 	c #E8ECF1",
"- 	c #F3F6FA",
"; 	c #FBFDFE",
"> 	c #F2F5F9",
", 	c #E5E9EE",
"' 	c #C7CDD4",
") 	c #9FBADD",
"! 	c #D4D8DE",
"~ 	c #F7F8FB",
"{ 	c #FFFFFF",
"] 	c #F6F9FC",
"^ 	c #EEF3FA",
"/ 	c #EDF3FA",
"( 	c #F4F8FC",
"_ 	c #F3F6F9",
": 	c #C4CAD1",
"< 	c #9CB7DA",
"[ 	c #EBF1F9",
"} 	c #E9F0F9",
"| 	c #B1CAE9",
"1 	c #E8EFF9",
"2 	c #E6EFF8",
"3 	c #E5EEF8",
"4 	c #BABFC7",
"5 	c #AEC5E2",
"6 	c #5384C3",
"7 	c #B0C9E9",
"8 	c #E3ECF7",
"9 	c #D8DFE7",
"0 	c #94ABC8",
"a 	c #C7CFDA",
"b 	c #5283C1",
"c 	c #ADC8E8",
"d 	c #E1EBF7",
"e 	c #F1F5FB",
"f 	c #EAEFF6",
"g 	c #A0A9B4",
"h 	c #D1D3D5",
"i 	c #ECF2FA",
"j 	c #E4EDF7",
"k 	c #5283C0",
"l 	c #5587C8",
"m 	c #BED3ED",
"n 	c #DFE9F6",
"o 	c #F9FBFD",
"p 	c #A5A7A9",
"q 	c #D0D2D4",
"r 	c #5586C6",
"s 	c #5180BE",
"t 	c #DDE8F6",
"u 	c #F1F5FA",
"v 	c #A0A2A4",
"w 	c #C2CBD6",
"x 	c #EFF3F8",
"y 	c #F2F6FB",
"z 	c #5586C5",
"A 	c #DCE7F5",
"B 	c #DBE4EF",
"C 	c #949CA7",
"D 	c #A7BEDC",
"E 	c #E1E5EC",
"F 	c #FEFEFF",
"G 	c #E0EAF6",
"H 	c #5180BD",
"I 	c #DBE6F5",
"J 	c #DAE5F5",
"K 	c #FAFCFE",
"L 	c #BFC9D6",
"M 	c #8198B6",
"N 	c #BEC3CA",
"O 	c #EDF1F7",
"P 	c #D8E5F4",
"Q 	c #DCE4EF",
"R 	c #929AA3",
"S 	c #94B0D2",
"T 	c #B3BBC3",
"U 	c #E8EEF4",
"V 	c #EFF4FB",
"W 	c #DBE4EE",
"X 	c #919CA8",
"Y 	c #7994B7",
"Z 	c #8CA7CA",
"` 	c #A3ABB3",
" .	c #C8D1DC",
"..	c #E1E8F1",
"+.	c #D6E0ED",
"@.	c #B8C3D2",
"#.	c #8C949F",
"$.	c #7792B5",
"%.	c #839BB8",
"&.	c #8E97A2",
"*.	c #949698",
"=.	c #909295",
"-.	c #88919C",
";.	c #7991AE",
"                                ",
"          . + @ # $ %           ",
"      & * = - ; ; > , ' )       ",
"    & ! ~ { ] ^ / ( { _ : <     ",
"    * ~ { [ } | 1 2 3 { _ 4     ",
"  5 = { [ } 1 6 7 3 8 8 { 9 0   ",
"  a - ( 1 1 2 b b c 8 d e f g   ",
"  h ; i 1 3 j k k l m n 8 o p   ",
"  q ; [ 3 j 8 k r s [ t d u v   ",
"  w x y 8 8 d z s [ t A ^ B C   ",
"  D E F d G n H [ A I J K L M   ",
"    N O { t t [ I J P F Q R     ",
"    S T U F V d G / K W X Y     ",
"      Z `  ...y ^ +.@.#.$.      ",
"          %.&.*.=.-.;.          ",
"                                "};
